<?xml version="1.0" encoding="utf-8"?>
<!-- Generator: Adobe Illustrator 18.0.0, SVG Export Plug-In . SVG Version: 6.00 Build 0)  -->
<!DOCTYPE svg PUBLIC "-//W3C//DTD SVG 1.1//EN" "http://www.w3.org/Graphics/SVG/1.1/DTD/svg11.dtd">
<svg version="1.1" xmlns="http://www.w3.org/2000/svg" xmlns:xlink="http://www.w3.org/1999/xlink" x="0px" y="0px"
	 viewBox="0 0 500 500" enable-background="new 0 0 500 500" xml:space="preserve">
<g id="Background">
</g>
<g id="Objects">
	<g opacity="0.1">
		<g>
			<g>
				<g>
					<circle fill="#DFDFDF" cx="218.6" cy="149.2" r="73"/>
					<path fill="#A7A7A7" d="M400.7,338.2c0,41.4-33.6,75-75,75c-41.4,0-75-33.6-75-75c0-41.4,33.6-75,75-75
						C367.1,263.2,400.7,296.8,400.7,338.2z"/>
					<circle fill="#8F8F8F" cx="320" cy="122.9" r="46.1"/>
					<circle fill="#A7A7A7" cx="178.5" cy="282" r="132.4"/>
					<g>
						<circle fill="#8B8B8B" cx="58.4" cy="183.2" r="15.2"/>
						<circle fill="#8B8B8B" cx="40.2" cy="206.1" r="2.6"/>
						<circle fill="#8B8B8B" cx="32.5" cy="183.2" r="2.6"/>
						<circle fill="#8B8B8B" cx="47.3" cy="159.6" r="2.6"/>
						<circle fill="#8B8B8B" cx="74.8" cy="165" r="2.6"/>
					</g>
					<g>
						<circle fill="#C3C3C3" cx="135.3" cy="112.8" r="33.5"/>
						<circle fill="#C3C3C3" cx="73.8" cy="131.5" r="5.8"/>
						<circle fill="#C3C3C3" cx="88.4" cy="80.3" r="5.8"/>
						<circle fill="#C3C3C3" cx="144.8" cy="56" r="5.8"/>
						<circle fill="#C3C3C3" cx="187.8" cy="100.2" r="5.8"/>
					</g>
					<g>
						<circle fill="#A1A1A1" cx="426.7" cy="145.1" r="15.2"/>
						<circle fill="#A1A1A1" cx="403.9" cy="127" r="2.6"/>
						<circle fill="#A1A1A1" cx="426.8" cy="119.3" r="2.6"/>
						<circle fill="#A1A1A1" cx="450.4" cy="134.1" r="2.6"/>
						<circle fill="#A1A1A1" cx="445" cy="161.6" r="2.6"/>
					</g>
					<g>
						<circle fill="#696969" cx="331.1" cy="79.1" r="19.6"/>
						<circle fill="#696969" cx="301.7" cy="55.7" r="3.4"/>
						<circle fill="#696969" cx="331.2" cy="45.8" r="3.4"/>
						<circle fill="#696969" cx="361.5" cy="64.9" r="3.4"/>
						<circle fill="#696969" cx="354.6" cy="100.2" r="3.4"/>
					</g>
				</g>
				<g>
					<g>
						<g>
							<ellipse fill="#8F8F8F" cx="258" cy="438.7" rx="33.3" ry="6.1"/>
							<path fill="#8F8F8F" d="M272.9,428.2c0,0,15.9-26.5,23.2-20.8C303.4,413,286.2,414.6,272.9,428.2z"/>
							<path fill="#8F8F8F" d="M249.9,422.4c0,0-22.6-37.8-33-29.7C206.5,400.9,230.9,403.1,249.9,422.4z"/>
						</g>
						<g>
							<ellipse fill="#DFDFDF" cx="202.7" cy="441" rx="45" ry="8.3"/>
							<path fill="#DFDFDF" d="M215,432.4c0,0,13.1-21.8,19.1-17.1C240,420,225.9,421.2,215,432.4z"/>
							<path fill="#DFDFDF" d="M196,427.7c0,0-18.6-31.1-27.2-24.4C160.2,409.9,180.4,411.8,196,427.7z"/>
						</g>
						<ellipse fill="#A7A7A7" cx="152.6" cy="445.1" rx="25.9" ry="4.7"/>
						<ellipse fill="#B1B1B1" cx="330.4" cy="441.4" rx="53" ry="7.4"/>
						<path fill="#A7A7A7" d="M143.8,434.7c0,0-12.9-20.3-18.4-15.7C119.9,423.6,133.2,424.4,143.8,434.7z"/>
						<path fill="#A7A7A7" d="M120.9,433.2c0,0-16.9-26.6-24.2-20.6C89.5,418.7,107,419.8,120.9,433.2z"/>
						<path fill="#B1B1B1" d="M287.8,429.7c0,0-12.9-20.3-18.4-15.7C263.9,418.6,277.2,419.4,287.8,429.7z"/>
						<path fill="#B1B1B1" d="M366.8,426.2c0,0,16.9-26.6,24.2-20.6C398.3,411.7,380.7,412.8,366.8,426.2z"/>
						<path fill="#B1B1B1" d="M378,431.2c0,0,7.5-11.8,10.7-9.1C391.9,424.8,384.2,425.3,378,431.2z"/>
						<path fill="#A7A7A7" d="M172.2,438.9c0,0,12.3-20.6,18-16.2C195.8,427.2,182.5,428.4,172.2,438.9z"/>
					</g>
					<path fill="#B1B1B1" d="M302.7,426.7c0,0-8.8-13.8-12.5-10.7C286.4,419.1,295.5,419.7,302.7,426.7z"/>
				</g>
			</g>
			<circle fill="#696969" cx="341" cy="206.9" r="79.8"/>
		</g>
		<g>
			<path fill="#414141" d="M315.6,424c0,0.3,1,3.2,1,3.2s2.3-0.5,2.8,2.1c0.8,3.6-4.1,3.7-5.8,4.2c-2.6,0.8-17.1,7.9-18.2,1.7
				c-1-5.4,18.1-7.4,18.1-7.4l0.5-3.3L315.6,424z"/>
			<path fill="#414141" d="M350.2,429.9c-0.1,0.3-1.4,3-1.4,3s-2.2-0.8-3.1,1.7c-1.2,3.5,3.6,4.2,5.2,4.9c2.4,1.1,16,9.9,17.9,3.9
				c1.7-5.2-17.1-9.5-17.1-9.5l-0.1-3.3L350.2,429.9z"/>
			<path fill="#616161" d="M371.5,341.2c0,0-1.5,40.8-18.7,91.8h-6.4c0,0,10.9-40.5-2.6-64.2c-13.5-23.6-21-1.7-22.9,5.9
				c-2,8.1-4.6,50.9-4.6,50.9l-3.2,1.1c0,0-13.5-52-14.3-67.4s4.1-30,25.5-25.2L371.5,341.2z"/>
			<path fill="#DADADA" d="M295,188.2l-1.5-3.5c0,0,5.2-13.1,1.2-13.8c-4-0.7-4.1,8.3-4.1,8.3s-2.5-15.6-7-13.4
				c-4.5,2.1,4.6,13.8,4.6,13.8s-7.7-12-10.9-9.3c-3.2,2.7,8.6,11.2,8.6,11.2s-11.1-7.9-13-4.1c-1.9,3.8,10.9,6.3,10.9,6.3
				s-6.6-1.3-7.1,1.4c-0.5,2.7,12.7,0.9,12.7,0.9l3.4,4.8L295,188.2z"/>
			<path fill="#DADADA" d="M453.7,213.5l2.6-2.8c0,0-0.1-14.1,3.9-13.3c4,0.8,0.8,9.2,0.8,9.2s8-13.6,11.4-10
				c3.4,3.6-9.4,11.2-9.4,11.2s11.5-8.4,13.5-4.7c2,3.7-12.1,7.3-12.1,7.3s13.2-3.3,13.6,0.9c0.4,4.2-12.5,1.9-12.5,1.9
				s6.6,1.2,6.1,3.9c-0.6,2.7-12.1-3.8-12.1-3.8l-4.9,3.3L453.7,213.5z"/>
			<path fill="#B1B1B1" d="M374.5,357.4c0,0-0.7-27.5,1.3-57.4c1.8-27.3,81.1-82.8,81.1-82.8l-2-7.1c0,0-93.6,53.3-95.5,54
				c-1.9,0.6-65.2-78.3-65.2-78.3l-3.8,3.1c0,0,28.2,53.3,26.3,73.9c-1.9,20.7-25.7,68.9-23.2,87.7
				C293.7,350.5,362.6,339.9,374.5,357.4z"/>
			<circle fill="#0B0B0B" cx="362.1" cy="192.2" r="27.6"/>
			<path fill="#DADADA" d="M346.7,178.9c0,0-33.7,46-15,57.3c18.7,11.3,18.5,12.5,18.5,12.5l-1.8,16.6c0,0-6.9,0.2-2.3,16.6
				c0,0,20.1-4.9,13.4-14.3l3-14.6c0,0,21.7,1.8,29.6-15.7c7.9-17.6,16.6-30.5,8.1-37.7C391.5,192.6,356.4,166.7,346.7,178.9z"/>
			<path fill="none" stroke="#0B0B0B" stroke-width="2" stroke-linecap="round" stroke-linejoin="round" stroke-miterlimit="10" d="
				M342.3,213.1c0,0,3.6-12.8,10.6-9.7c7,3.1-1.3,13.8-1.3,13.8"/>
			<path fill="none" stroke="#0B0B0B" stroke-width="2" stroke-linecap="round" stroke-linejoin="round" stroke-miterlimit="10" d="
				M366.7,224.9c0,0,5.8-12,12.1-7.7c6.4,4.3-3.7,13.4-3.7,13.4"/>
			<circle fill="#0B0B0B" cx="353" cy="160.3" r="20.6"/>
			<circle fill="#0B0B0B" cx="383.3" cy="170.2" r="19.5"/>
			<circle fill="#0B0B0B" cx="403.8" cy="185.3" r="15.1"/>
			<circle fill="#0B0B0B" cx="414.4" cy="200.5" r="9.5"/>
			<circle fill="#0B0B0B" cx="420.5" cy="213.4" r="9.5"/>
			<path fill="#0B0B0B" d="M353.4,222.9c4-1.5,7.1-3.9,9.8-7.1c1.4-1.6,2.6-3.3,3.7-5.1c1-1.6,2.3-3.5,2.7-5.4
				c0.1-0.5,0.8-0.3,0.7,0.2c-0.4,2-1.7,3.9-2.8,5.6c-1.1,1.9-2.4,3.6-3.8,5.3c-2.7,3.2-5.8,5.6-9.7,7.1c0.7,1,2,1.3,3.2,1.6
				c0.5,0.1,0.3,0.8-0.2,0.7c-1.6-0.3-3.1-0.7-3.9-2.3C353.1,223.3,353.2,223,353.4,222.9z"/>
			<path fill="#0B0B0B" d="M334,210.2c0.6-0.2,1.2-0.3,1.8-0.3c0.1,0,0.2,0,0.3,0c0.5,0,0.9,0.2,1.3,0.5c0.4,0.3,0,0.9-0.4,0.7
				c-0.3-0.2-0.5-0.3-0.8-0.3c-0.2,1,0,2,0,2.9c0,1.6,0,3.2,0.3,4.8c0.6,3,3,6,4.8,8.3c3.4,4.3,7.9,8,12.8,10.5
				c8.5,4.4,20.6,6.6,28-0.9c-0.2-0.5-0.6-0.9-1-1.2c-0.4-0.3,0.2-0.8,0.5-0.5c1.2,1,1.8,2.8,1.5,4.3c-0.1,0.5-0.8,0.3-0.7-0.2
				c0.1-0.5,0.1-1.1-0.1-1.6c-7.6,7.4-19.5,5.2-28.2,1c-5.5-2.7-10.4-7-14.2-11.8c-1.8-2.3-3.6-4.8-4.3-7.6
				c-0.4-1.4-0.3-2.9-0.3-4.4c0-1.2-0.2-2.4,0-3.6c-0.4,0-0.9,0.2-1.3,0.3C333.7,211.1,333.5,210.3,334,210.2z"/>
			<path fill="#0B0B0B" d="M341.7,177.8c0,0,17.4,4.8,22.3,13.6c5,8.8,9.5,12.3,26.5,18.8c16.9,6.5,1.2,22.3,1.2,22.3l1.4,3.5
				c0,0,26.8-7.9,27.2-23c0.4-15.1-5.2-26.4-24.8-40.4C375.9,158.6,337.6,132.6,341.7,177.8z"/>
			<g>
				<circle fill="#8F8F8F" cx="414.7" cy="287.9" r="10.3"/>
				<circle fill="#8F8F8F" cx="407.7" cy="269.4" r="1.8"/>
				<circle fill="#8F8F8F" cx="423.7" cy="272.9" r="1.8"/>
				<circle fill="#8F8F8F" cx="432.3" cy="289.7" r="1.8"/>
				<circle fill="#8F8F8F" cx="419.6" cy="303.8" r="1.8"/>
			</g>
			<path opacity="0.1" fill="#FCFCFC" d="M298.7,341.7c-0.1-1.7,7.8-28,14.9-45.3c10.2-24.9,8.6-38.5,8.6-38.5s7.5,7.4-6.2,37.8
				C302.3,326.1,298.7,341.7,298.7,341.7z"/>
			<path opacity="0.1" fill="#FCFCFC" d="M370.5,345.9c0,0-5.9-47,8.7-63.9C379.2,282,362.1,285.8,370.5,345.9z"/>
		</g>
		<g>
			<g>
				<path fill="#373737" d="M185.6,406.7c-0.1,0.3-1.6,2.9-1.6,2.9s-2.1-1-3.2,1.5c-1.4,3.4,3.3,4.4,4.8,5.3
					c2.4,1.3,15.2,11,17.5,5.2c2-5.1-16.3-10.8-16.3-10.8l0.2-3.3L185.6,406.7z"/>
				<path fill="#373737" d="M161.7,429.9c0.1,0.3,1.4,3,1.4,3s2.2-0.8,3.1,1.7c1.2,3.5-3.6,4.2-5.2,4.9c-2.4,1.1-16,9.9-17.9,3.9
					c-1.7-5.2,17.1-9.5,17.1-9.5l0.1-3.3L161.7,429.9z"/>
				<path fill="#575757" d="M140.3,341.2c0,0,1.5,40.8,18.7,91.8h6.4c0,0-10.9-40.5,2.6-64.2c13.5-23.6,19.3-0.3,18.9,6.5
					c-0.4,7.4-2.7,32.8-2.7,32.8l3.2,1.1c0,0,24.9-34.5,25.7-49.9c0.7-15.4-4.1-30-25.5-25.2L140.3,341.2z"/>
				<path fill="#DADADA" d="M216.9,188.2l1.5-3.5c0,0-5.2-13.1-1.2-13.8c4-0.7,4.1,8.3,4.1,8.3s2.5-15.6,7-13.4
					c4.5,2.1-4.6,13.8-4.6,13.8s7.7-12,10.9-9.3c3.2,2.7-8.6,11.2-8.6,11.2s11.1-7.9,13-4.1c1.9,3.8-10.9,6.3-10.9,6.3
					s6.6-1.3,7.1,1.4c0.5,2.7-12.7,0.9-12.7,0.9l-3.4,4.8L216.9,188.2z"/>
				<path fill="#DADADA" d="M77.3,320.2l-3.6,1.3c0,0-12.8-5.9-13.7-2c-0.9,4,8,4.6,8,4.6s-15.7,1.6-13.8,6.2
					c1.9,4.6,14.1-3.9,14.1-3.9s-12.4,7-9.9,10.3c2.5,3.4,11.7-8,11.7-8s-8.5,10.7-4.8,12.7c3.7,2.1,6.9-10.6,6.9-10.6
					s-1.6,6.6,1,7.2c2.6,0.6,1.6-12.6,1.6-12.6l5-3.1L77.3,320.2z"/>
				<path fill="#FCFCFC" d="M137.3,357.4c0,0-5-20.7,0-47.6c5-26.9-23.8-7.5-23.8-7.5l-37,24.2l-3.8-7.1c0,0,77.7-56,79.6-55.3
					c1.9,0.6,65.2-78.3,65.2-78.3l3.8,3.1c0,0-28.2,53.3-26.3,73.9c1.9,20.7,25.7,68.9,23.2,87.7
					C218.1,350.5,149.2,339.9,137.3,357.4z"/>
				<circle fill="#0B0B0B" cx="158.1" cy="180.8" r="27.6"/>
				<circle fill="#0B0B0B" cx="122.4" cy="180.8" r="27.6"/>
				<circle fill="#0B0B0B" cx="107.2" cy="211.9" r="27.6"/>
				<circle fill="#0B0B0B" cx="126.2" cy="246.8" r="27.6"/>
				<circle fill="#0B0B0B" cx="134.6" cy="268.8" r="15.6"/>
				<circle fill="#0B0B0B" cx="144.4" cy="286.3" r="10.5"/>
				
					<ellipse transform="matrix(0.8605 -0.5095 0.5095 0.8605 -131.5048 119.6889)" fill="#0B0B0B" cx="152.8" cy="300" rx="6.2" ry="10.5"/>
				<circle fill="#0B0B0B" cx="177.8" cy="211.9" r="27.6"/>
				<circle fill="#0B0B0B" cx="158.1" cy="235.2" r="29.8"/>
				<path fill="#DADADA" d="M165.1,178.9c0,0,33.7,46,15,57.3c-18.7,11.3-18.5,12.5-18.5,12.5l1.8,16.6c0,0,6.9,0.2,2.3,16.6
					c0,0-20.1-4.9-13.4-14.3l-3-14.6c0,0-21.7,1.8-29.6-15.7c-7.9-17.6-16.6-30.5-8.1-37.7S155.4,166.7,165.1,178.9z"/>
				
					<path fill="none" stroke="#0B0B0B" stroke-width="2" stroke-linecap="round" stroke-linejoin="round" stroke-miterlimit="10" d="
					M169.5,213.1c0,0-3.6-12.8-10.6-9.7c-7,3.1,1.3,13.8,1.3,13.8"/>
				
					<path fill="none" stroke="#0B0B0B" stroke-width="2" stroke-linecap="round" stroke-linejoin="round" stroke-miterlimit="10" d="
					M145.1,224.9c0,0-5.8-12-12.1-7.7c-6.4,4.3,3.7,13.4,3.7,13.4"/>
				<circle fill="#0B0B0B" cx="158.1" cy="174.7" r="19.5"/>
				<circle fill="#0B0B0B" cx="127.7" cy="183.1" r="19.5"/>
				<circle fill="#0B0B0B" cx="105.7" cy="208.1" r="19.5"/>
				<path fill="#0B0B0B" d="M158.4,222.9c-4-1.5-7.1-3.9-9.8-7.1c-1.4-1.6-2.6-3.3-3.7-5.1c-1-1.6-2.3-3.5-2.7-5.4
					c-0.1-0.5-0.8-0.3-0.7,0.2c0.4,2,1.7,3.9,2.8,5.6c1.1,1.9,2.4,3.6,3.8,5.3c2.7,3.2,5.8,5.6,9.7,7.1c-0.7,1-2,1.3-3.2,1.6
					c-0.5,0.1-0.3,0.8,0.2,0.7c1.6-0.3,3.1-0.7,3.9-2.3C158.7,223.3,158.6,223,158.4,222.9z"/>
				<path fill="#0B0B0B" d="M177.8,210.2c-0.6-0.2-1.2-0.3-1.9-0.3c-0.1,0-0.2,0-0.3,0c-0.5,0-0.9,0.2-1.3,0.5
					c-0.4,0.3,0,0.9,0.4,0.7c0.3-0.2,0.5-0.3,0.8-0.3c0.2,1,0,2,0,2.9c0,1.6,0,3.2-0.3,4.8c-0.6,3-3,6-4.8,8.3
					c-3.4,4.3-7.9,8-12.8,10.5c-8.5,4.4-20.6,6.6-28-0.9c0.2-0.5,0.6-0.9,1-1.2c0.4-0.3-0.2-0.8-0.5-0.5c-1.2,1-1.8,2.8-1.5,4.3
					c0.1,0.5,0.8,0.3,0.7-0.2c-0.1-0.5-0.1-1.1,0.1-1.6c7.6,7.4,19.5,5.2,28.2,1c5.5-2.7,10.4-7,14.2-11.8c1.8-2.3,3.6-4.8,4.3-7.6
					c0.4-1.4,0.3-2.9,0.3-4.4c0-1.2,0.2-2.4,0-3.6c0.4,0,0.9,0.2,1.3,0.3C178.1,211.1,178.3,210.3,177.8,210.2z"/>
			</g>
			<path opacity="0.2" fill="#C3C3C3" d="M191.5,253.2c0,0-5.2,21.3,11.7,58.6c0,0,4.5,12.1,4.5,26.4c0,0-3.7-18.2-8.5-28.7
				C194.5,299,187.3,265,191.5,253.2z"/>
			<path opacity="0.2" fill="#C3C3C3" d="M143.4,348.8c-4.4-25.2,0.5-38.3,0.5-38.3c-3.6,7.4-3.5,24.8-2,39
				C142.4,349.2,142.9,349,143.4,348.8z"/>
		</g>
	</g>
</g>
<g id="Designed_by_freepik">
</g>
</svg>
