<?xml version="1.0" encoding="utf-8"?>
<!-- Generator: Adobe Illustrator 18.0.0, SVG Export Plug-In . SVG Version: 6.00 Build 0)  -->
<!DOCTYPE svg PUBLIC "-//W3C//DTD SVG 1.1//EN" "http://www.w3.org/Graphics/SVG/1.1/DTD/svg11.dtd">
<svg version="1.1" xmlns="http://www.w3.org/2000/svg" xmlns:xlink="http://www.w3.org/1999/xlink" x="0px" y="0px"
	 viewBox="0 0 800 800" enable-background="new 0 0 800 800" xml:space="preserve">
<g id="BACKGROUND">
</g>
<g id="OBJECTS">
	<g opacity="0.1">
		<g>
			<path opacity="0.2" fill="#474747" d="M616.3,91.3l-15.8-4.6c-0.7-0.2-1.4,0.2-1.6,0.8l0.1-0.3c0.6-2.2-4.1-10.1-6.5-10.9
				l-0.6-0.2L487.4,41.7c-4.4-1.4-8.7-0.1-9.5,3l-6.4,24.2l6.8-25.7c0.6-2.3-1.6-5-5-6.1c-3.4-1.1-6.7-0.2-7.4,2.2l-11.7,44
				c-0.6,2.3,1.8,4.8,5.3,5.6c3.5,0.7,6.7-0.6,7.3-2.9l0.4-1.5c-0.8,3.1,2.2,6.4,6.7,7.3l108.2,21.9l0.2,0c2.5,0.5,10.4-4,11-6.2
				l3.6-13.6l-3.5,13.1c-0.2,0.7,0.2,1.3,0.9,1.5l16.1,3.8c0.6,0.1,1.3-0.2,1.5-0.9l4.9-18.7C617.3,92.2,617,91.5,616.3,91.3z"/>
			<g>
				<path fill="#DFDFDF" d="M590.1,70.9L485.7,36.5c-4.4-1.4-8.7-0.1-9.5,3l-10.5,39.8c-0.8,3.1,2.2,6.4,6.7,7.3l108.2,21.9
					C584,96.1,587,83.5,590.1,70.9z"/>
				<path fill="#CECECE" d="M580.6,108.5l0.2,0c2.5,0.5,10.4-4,11-6.2l5.4-20.3c0.6-2.2-4.1-10.1-6.5-10.9l-0.6-0.2
					C587,83.5,584,96.1,580.6,108.5z"/>
				<path fill="#CECECE" d="M457.9,83.7c-3.5-0.7-5.9-3.2-5.3-5.6l11.7-44c0.6-2.3,3.9-3.3,7.4-2.2l0,0c3.4,1.1,5.6,3.8,5,6.1
					l-11.3,42.8C464.6,83.1,461.4,84.4,457.9,83.7L457.9,83.7z"/>
				<path fill="#717171" d="M500.7,83.8c-3.9-0.9-6.4-3.9-5.7-6.8l5.6-21.2c0.8-2.9,4.5-4.3,8.3-3.1l55.1,17
					c2.7,0.8,4.4,3.5,3.8,5.9l-4.7,17.6c-0.6,2.4-3.4,3.8-6.2,3.2L500.7,83.8z"/>
				<path fill="#DFDFDF" d="M592.9,103.3c-0.7-0.2-1.1-0.8-0.9-1.5l5.2-19.6c0.2-0.7,0.9-1,1.6-0.8l15.8,4.6c0.6,0.2,1,0.9,0.8,1.5
					l-4.9,18.7c-0.2,0.6-0.8,1-1.5,0.9L592.9,103.3z"/>
			</g>
			<path opacity="0.2" fill="#474747" d="M539,93l-15.8-4.6c-0.7-0.2-1.4,0.2-1.6,0.8l0.1-0.3c0.6-2.2-4.1-10.1-6.5-10.9l-0.6-0.2
				L410,43.5c-4.4-1.4-8.7-0.1-9.5,3l-6.4,24.2L401,45c0.6-2.3-1.6-5-5-6.1c-3.4-1.1-6.7-0.2-7.4,2.2l-11.7,44
				c-0.6,2.3,1.8,4.8,5.3,5.6c3.5,0.7,6.7-0.6,7.3-2.9l0.4-1.5c-0.8,3.1,2.2,6.4,6.7,7.3L505,115.5l0.2,0c2.5,0.5,10.4-4,11-6.2
				l3.6-13.6l-3.5,13.1c-0.2,0.7,0.2,1.3,0.9,1.5l16.1,3.8c0.6,0.1,1.3-0.2,1.5-0.9l4.9-18.7C540,93.9,539.6,93.2,539,93z"/>
			<g>
				<path fill="#DFDFDF" d="M512.8,72.7L408.3,38.2c-4.4-1.4-8.7-0.1-9.5,3L388.3,81c-0.8,3.1,2.2,6.4,6.7,7.3l108.2,21.9
					C506.6,97.8,509.7,85.2,512.8,72.7z"/>
				<path fill="#CECECE" d="M503.2,110.3l0.2,0c2.5,0.5,10.4-4,11-6.2l5.4-20.3c0.6-2.2-4.1-10.1-6.5-10.9l-0.6-0.2
					C509.7,85.2,506.6,97.8,503.2,110.3z"/>
				<path fill="#CECECE" d="M380.5,85.4c-3.5-0.7-5.9-3.2-5.3-5.6l11.7-44c0.6-2.3,3.9-3.3,7.4-2.2l0,0c3.4,1.1,5.6,3.8,5,6.1
					l-11.3,42.8C387.3,84.8,384,86.1,380.5,85.4L380.5,85.4z"/>
				<path fill="#8D8D8D" d="M423.3,85.5c-3.9-0.9-6.4-3.9-5.7-6.8l5.6-21.2c0.8-2.9,4.5-4.3,8.3-3.1l55.1,17
					c2.7,0.8,4.4,3.5,3.8,5.9l-4.7,17.6c-0.6,2.4-3.4,3.8-6.2,3.2L423.3,85.5z"/>
				<path fill="#DFDFDF" d="M515.6,105c-0.7-0.2-1.1-0.8-0.9-1.5l5.2-19.6c0.2-0.7,0.9-1,1.6-0.8l15.8,4.6c0.6,0.2,1,0.9,0.8,1.5
					l-4.9,18.7c-0.2,0.6-0.8,1-1.5,0.9L515.6,105z"/>
			</g>
			<path opacity="0.2" fill="#474747" d="M459.9,93L444,88.4c-0.7-0.2-1.4,0.2-1.6,0.8l0.1-0.3c0.6-2.2-4.1-10.1-6.5-10.9l-0.6-0.2
				L331,43.5c-4.4-1.4-8.7-0.1-9.5,3l-6.4,24.2l6.8-25.7c0.6-2.3-1.6-5-5-6.1c-3.4-1.1-6.7-0.2-7.4,2.2l-11.7,44
				c-0.6,2.3,1.8,4.8,5.3,5.6c3.5,0.7,6.7-0.6,7.3-2.9l0.4-1.5c-0.8,3.1,2.2,6.4,6.7,7.3l108.2,21.9l0.2,0c2.5,0.5,10.4-4,11-6.2
				l3.6-13.6l-3.5,13.1c-0.2,0.7,0.2,1.3,0.9,1.5l16.1,3.8c0.6,0.1,1.3-0.2,1.5-0.9l4.9-18.7C460.9,93.9,460.5,93.2,459.9,93z"/>
			<g>
				<path fill="#DFDFDF" d="M433.7,72.7L329.2,38.2c-4.4-1.4-8.7-0.1-9.5,3L309.2,81c-0.8,3.1,2.2,6.4,6.7,7.3l108.2,21.9
					C427.6,97.8,430.6,85.2,433.7,72.7z"/>
				<path fill="#CECECE" d="M424.2,110.3l0.2,0c2.5,0.5,10.4-4,11-6.2l5.4-20.3c0.6-2.2-4.1-10.1-6.5-10.9l-0.6-0.2
					C430.6,85.2,427.6,97.8,424.2,110.3z"/>
				<path fill="#CECECE" d="M301.5,85.4c-3.5-0.7-5.9-3.2-5.3-5.6l11.7-44c0.6-2.3,3.9-3.3,7.4-2.2l0,0c3.4,1.1,5.6,3.8,5,6.1
					l-11.3,42.8C308.2,84.8,304.9,86.1,301.5,85.4L301.5,85.4z"/>
				<path fill="#9F9F9F" d="M344.3,85.5c-3.9-0.9-6.4-3.9-5.7-6.8l5.6-21.2c0.8-2.9,4.5-4.3,8.3-3.1l55.1,17
					c2.7,0.8,4.4,3.5,3.8,5.9l-4.7,17.6c-0.6,2.4-3.4,3.8-6.2,3.2L344.3,85.5z"/>
				<path fill="#DFDFDF" d="M436.5,105c-0.7-0.2-1.1-0.8-0.9-1.5l5.2-19.6c0.2-0.7,0.9-1,1.6-0.8l15.8,4.6c0.6,0.2,1,0.9,0.8,1.5
					L454,108c-0.2,0.6-0.8,1-1.5,0.9L436.5,105z"/>
			</g>
		</g>
		<g>
			<path opacity="0.2" fill="#474747" d="M641.9,671.5c-160.6-16.7-323.2-16.7-483.8,0c0-140.4,0-280.8,0-421.2
				c160.6-16.7,323.2-16.7,483.8,0C641.9,390.7,641.9,531.1,641.9,671.5z"/>
			<path opacity="0.2" fill="#474747" d="M641.9,575.5c-160.6-16.7-323.2-16.7-483.8,0c0-140.4,0-280.8,0-421.2
				c160.6-16.7,323.2-16.7,483.8,0C641.9,294.7,641.9,435.1,641.9,575.5z"/>
			<rect x="158.1" y="145.6" fill="#DFDFDF" width="483.8" height="512.9"/>
		</g>
		<path opacity="0.2" fill="#474747" d="M284,123.6C284,123.6,284,123.6,284,123.6c0.3-1.8,0-3.8-0.9-5.6l-43.9-84.2
			c-2.3-4.5-7.8-6.2-12.3-3.9L32.5,131.2c-2.5,1.3-4.2,3.7-4.7,6.3h0l-1.1,6.1c0,0.1,0,0.2,0,0.3l0,0.2h0c-0.3,1.9,0,3.8,0.9,5.6
			l43.9,84.2c2.3,4.5,7.8,6.2,12.3,3.9l194.4-101.3c2.4-1.2,4-3.4,4.6-5.8l0,0l0-0.1c0.1-0.4,0.2-0.8,0.2-1.3l1-5.3c0,0,0,0,0,0
			L284,123.6z"/>
		<g>
			<path opacity="0.2" fill="#474747" d="M212.6,218.8c0,0-32.7,14.1-33.7,35.2c-2,0-4,0.9-5.4,2.6l-4.5,5.4
				c-1.4,1.6-1.8,3.7-1.5,5.7l-7.2,8.9L43.5,421.5c-1,1.2-0.8,2.9,0.4,3.8c1.2,1,2.9,0.8,3.9-0.4l119.4-142.5l7.5-8.9
				c2,0,3.9-0.9,5.3-2.6l4.5-5.4c1.3-1.6,1.8-3.5,1.5-5.4C193.6,258.1,206.3,249.9,212.6,218.8z"/>
			<g>
				<path fill="#BBBBBB" d="M179.8,254.6c0,0,23.6,4.3,32.9-41.8C212.7,212.7,173.1,229.8,179.8,254.6z"/>
				<path fill="#6D6D6D" d="M176.8,257.7c-2-1.6-5.8-0.2-8.5,3.2l-7.8,9.7c1.1,3,3.3,5.3,6.8,5.8l8.1-9.7
					C178.1,263.4,178.8,259.3,176.8,257.7z"/>
				<path fill="#787878" d="M160.5,270.5L43.6,415.4c-1,1.2-0.8,2.9,0.4,3.8c1.2,1,2.9,0.8,3.9-0.4l119.4-142.5
					C163.8,275.8,161.6,273.5,160.5,270.5z"/>
				<path fill="#474747" d="M180,264.9c-2.5,3-6.9,3.4-9.9,1l0,0c-3-2.5-3.4-6.9-1-9.9l4.5-5.4c2.5-3,6.9-3.4,9.9-1l0,0
					c3,2.5,3.4,6.9,1,9.9L180,264.9z"/>
			</g>
		</g>
		<g>
			<path opacity="0.2" fill="#474747" d="M536.8,724.4c0-3.3-2.7-5.9-5.9-5.9l-9.1,0c-0.1-0.5-0.5-0.9-1-0.9c-0.5,0-0.9,0.4-1,0.9
				l-13.7,0c-0.1-0.5-0.5-0.9-1-0.9c-0.5,0-0.9,0.4-1,0.9l-184.4,0.4h-0.1l0,0c-2.8,0-24,2-29.6,4.7c0,0,0,0,0,0l-11.3-0.4
				c0,0-1,1.6,0,3.7l11.3-0.7l0,0c5.3,2.5,24,4.3,28.9,4.5c0.3,0,0.6,0,0.8,0l0.7,0l183.8-0.4c0.1,0.5,0.5,0.9,1,0.9
				c0.5,0,0.9-0.4,1-0.9l13.7,0c0.1,0.5,0.5,0.9,1,0.9c0.5,0,0.9-0.4,1-0.9l9.1,0C534.2,730.3,536.8,727.6,536.8,724.4z"/>
			<g>
				<path fill="#CECECE" d="M315.7,714.5L315.7,714.5L315.7,714.5c-3.3,0-31.1,2.7-31.1,6c0,3.1,24.7,5.6,30.3,5.8
					C316.5,722.4,317,718.4,315.7,714.5z"/>
				<path fill="#767676" d="M315.7,714.5c1.3,3.9,0.7,8-0.9,11.8c0.3,0,0.6,0,0.8,0l0.7,0l185-0.4c0-4,0.2-8,0.2-11.8L315.7,714.5z"
					/>
				<path fill="#CCCCCC" d="M501.4,725.9l15.6,0c-0.2-3.9-0.2-7.9,0.3-11.8l-15.8,0C501.5,717.9,501.4,721.9,501.4,725.9z"/>
				<path fill="#969696" d="M517,725.9l10,0c3.3,0,5.9-2.7,5.9-5.9c0-3.3-2.7-5.9-5.9-5.9l-9.7,0C516.8,718,516.9,721.9,517,725.9z"
					/>
				<path fill="#474747" d="M286,719.1l-11.3-0.4c0,0-1,1.6,0,3.7l11.3-0.7C286,721.7,288.1,721.3,286,719.1z"/>
				<path fill="#BEBEBE" d="M501.2,713.2c0.6,0,1,0.5,1,1l0,11.5c0,0.6-0.5,1-1,1l0,0c-0.6,0-1-0.5-1-1l0-11.5
					C500.2,713.6,500.6,713.2,501.2,713.2L501.2,713.2z"/>
				<path fill="#BEBEBE" d="M516.9,713.1c0.6,0,1,0.5,1,1l0,11.5c0,0.6-0.5,1-1,1l0,0c-0.6,0-1-0.5-1-1l0-11.5
					C515.9,713.6,516.3,713.1,516.9,713.1L516.9,713.1z"/>
			</g>
			<g>
				<path opacity="0.2" fill="#474747" d="M278.9,623.9l-192.3-90c-3.2-1.5-7-0.5-9.1,2.2l-2.1-1c-1-0.5-2.2-0.1-2.7,0.8
					c-0.1,0.1-0.1,0.3-0.1,0.5l-0.2-0.1c-1-0.5-2.2-0.1-2.7,0.8c-0.4,0.9,0.1,2.1,1.1,2.5l3.9,1.8l-1,2.1c0,0,0,0,0,0l-2.7,5.7
					l-1.9-0.9c-1-0.5-2.2-0.1-2.7,0.8c-0.1,0.1-0.1,0.3-0.1,0.5l-0.2-0.1c-1-0.5-2.2-0.1-2.7,0.8c-0.4,0.9,0.1,2.1,1.1,2.5l3.9,1.8
					l-3.6,7.8l-1.9-0.9c-1-0.5-2.2-0.1-2.7,0.8c-0.1,0.1-0.1,0.3-0.1,0.5l-0.2-0.1c-1-0.5-2.2-0.1-2.7,0.8c-0.4,0.9,0.1,2.1,1.1,2.5
					l3.9,1.8l-2.4,5.1l-1.2,2.6l-1.9-0.9c-1-0.5-2.2-0.1-2.7,0.8c-0.1,0.1-0.1,0.3-0.1,0.5l-0.2-0.1c-1-0.5-2.2-0.1-2.7,0.8
					c-0.4,0.9,0.1,2.1,1.1,2.5l3.9,1.8l-3.6,7.8l-1.9-0.9c-1-0.5-2.2-0.1-2.7,0.8c-0.1,0.1-0.1,0.3-0.1,0.5l-0.2-0.1
					c-1-0.5-2.2-0.1-2.7,0.8c-0.4,0.9,0.1,2.1,1.1,2.5l3.9,1.8l-3.6,7.8l-1.9-0.9c-1-0.5-2.2-0.1-2.7,0.8c-0.1,0.1-0.1,0.3-0.1,0.5
					l-0.2-0.1c-1-0.5-2.2-0.1-2.7,0.8c-0.4,0.9,0.1,2,1.1,2.5l3.9,1.8l-3.6,7.8l-1.9-0.9c-1-0.5-2.2-0.1-2.7,0.8
					c-0.1,0.1-0.1,0.3-0.1,0.5l-0.2-0.1c-1-0.5-2.2-0.1-2.7,0.8c-0.4,0.9,0.1,2.1,1.1,2.5l3.9,1.8l-3.6,7.8l-1.9-0.9
					c-1-0.5-2.2-0.1-2.7,0.8c-0.1,0.1-0.1,0.3-0.1,0.5l-0.2-0.1c-1-0.5-2.2-0.1-2.7,0.8c-0.4,0.9,0.1,2,1.1,2.5l3.9,1.8l-3.6,7.8
					l-1.9-0.9c-1-0.5-2.2-0.1-2.7,0.8c-0.1,0.1-0.1,0.3-0.1,0.5l-0.2-0.1c-1-0.5-2.2-0.1-2.7,0.8c-0.4,0.9,0.1,2.1,1.1,2.5l3.9,1.8
					l-1.5,3.3c0,0,0,0,0,0l-2.8,6c-1.8,3.7-0.1,8.2,3.6,10l192.3,90c3.7,1.8,8.2,0.1,10-3.6l51.3-109.6c0,0,0,0,0,0l4.2-9.1
					C284.3,630.1,282.7,625.6,278.9,623.9z"/>
				<g>
					<g>
						<g>
							<path fill="#474747" d="M87.7,534.8c-0.4,0.9-1.6,1.3-2.7,0.8l-13-6.1c-1-0.5-1.5-1.6-1.1-2.5l0,0c0.4-0.9,1.6-1.3,2.7-0.8
								l13,6.1C87.7,532.8,88.2,533.9,87.7,534.8L87.7,534.8z"/>
							<path fill="#474747" d="M81.6,548c-0.4,0.9-1.6,1.3-2.7,0.8l-13-6.1c-1-0.5-1.5-1.6-1.1-2.5l0,0c0.4-0.9,1.6-1.3,2.7-0.8
								l13,6.1C81.5,546,82,547.1,81.6,548L81.6,548z"/>
							<path fill="#474747" d="M75.4,561.2c-0.4,0.9-1.6,1.3-2.7,0.8l-13-6.1c-1-0.5-1.5-1.6-1.1-2.5l0,0c0.4-0.9,1.6-1.3,2.7-0.8
								l13,6.1C75.4,559.1,75.8,560.3,75.4,561.2L75.4,561.2z"/>
							<path fill="#474747" d="M69.3,574.4c-0.4,0.9-1.6,1.3-2.7,0.8l-13-6.1c-1-0.5-1.5-1.6-1.1-2.5l0,0c0.4-0.9,1.6-1.3,2.7-0.8
								l13,6.1C69.2,572.3,69.7,573.4,69.3,574.4L69.3,574.4z"/>
							<path fill="#474747" d="M63.1,587.5c-0.4,0.9-1.6,1.3-2.7,0.8l-13-6.1c-1-0.5-1.5-1.6-1.1-2.5l0,0c0.4-0.9,1.6-1.3,2.7-0.8
								l13,6.1C63,585.5,63.5,586.6,63.1,587.5L63.1,587.5z"/>
							<path fill="#474747" d="M56.9,600.7c-0.4,0.9-1.6,1.3-2.7,0.8l-13-6.1c-1-0.5-1.5-1.6-1.1-2.5l0,0c0.4-0.9,1.6-1.3,2.7-0.8
								l13,6.1C56.9,598.7,57.4,599.8,56.9,600.7L56.9,600.7z"/>
							<path fill="#474747" d="M50.8,613.9c-0.4,0.9-1.6,1.3-2.7,0.8l-13-6.1c-1-0.5-1.5-1.6-1.1-2.5l0,0c0.4-0.9,1.6-1.3,2.7-0.8
								l13,6.1C50.7,611.8,51.2,613,50.8,613.9L50.8,613.9z"/>
							<path fill="#474747" d="M44.6,627.1c-0.4,0.9-1.6,1.3-2.7,0.8l-13-6.1c-1-0.5-1.5-1.6-1.1-2.5l0,0c0.4-0.9,1.6-1.3,2.7-0.8
								l13,6.1C44.5,625,45,626.1,44.6,627.1L44.6,627.1z"/>
							<path fill="#474747" d="M38.4,640.2c-0.4,0.9-1.6,1.3-2.7,0.8l-13-6.1c-1-0.5-1.5-1.6-1.1-2.5l0,0c0.4-0.9,1.6-1.3,2.7-0.8
								l13,6.1C38.4,638.2,38.9,639.3,38.4,640.2L38.4,640.2z"/>
						</g>
						<g>
							<path fill="#C5C5C5" d="M225.2,743.6c-1.8,3.7-6.2,5.4-10,3.6l-192.3-90c-3.7-1.8-5.4-6.2-3.6-10l51.3-109.6
								c1.8-3.7,6.2-5.4,10-3.6l192.3,90c3.7,1.8,5.4,6.2,3.6,10L225.2,743.6z"/>
							<path fill="#D0D0D0" d="M226.6,740.6c-1.8,3.7-6.2,5.4-10,3.6l-192.3-90c-3.7-1.8-5.4-6.2-3.6-10L72,534.6
								c1.8-3.7,6.2-5.4,10-3.6l192.3,90c3.7,1.8,5.4,6.2,3.6,10L226.6,740.6z"/>
							<path fill="#C5C5C5" d="M228,737.5c-1.8,3.8-6.2,5.4-8.8,4.1l-192.3-90c-4.9-2.3-6.5-6.7-4.8-10.5l51.3-109.6
								c1.8-3.7,6.2-5.4,10-3.6l192.3,90c3.7,1.8,5.4,6.2,3.6,10L228,737.5z"/>
							<path fill="#D0D0D0" d="M229.4,734.5c-1.8,3.7-6.2,5.4-10,3.6l-192.3-90c-3.7-1.8-5.4-6.2-3.6-10l51.3-109.6
								c1.8-3.7,6.2-5.4,10-3.6l192.3,90c3.7,1.8,5.4,6.2,3.6,10L229.4,734.5z"/>
						</g>
						<path fill="#CECECE" d="M86.8,536.9c-1,2-3.4,2.9-5.4,2l0,0c-2-1-2.9-3.4-2-5.4l0,0c1-2,3.4-2.9,5.4-2l0,0
							C86.8,532.4,87.7,534.9,86.8,536.9L86.8,536.9z"/>
						<path fill="#CECECE" d="M80.6,550.1c-1,2-3.4,2.9-5.4,2l0,0c-2-1-2.9-3.4-2-5.4l0,0c1-2,3.4-2.9,5.4-2l0,0
							C80.7,545.6,81.6,548.1,80.6,550.1L80.6,550.1z"/>
						<path fill="#CECECE" d="M74.4,563.3c-1,2-3.4,2.9-5.4,2l0,0c-2-1-2.9-3.4-2-5.4l0,0c1-2,3.4-2.9,5.4-2l0,0
							C74.5,558.8,75.4,561.2,74.4,563.3L74.4,563.3z"/>
						<path fill="#CECECE" d="M68.3,576.4c-1,2-3.4,2.9-5.4,2l0,0c-2-1-2.9-3.4-2-5.4l0,0c1-2,3.4-2.9,5.4-2l0,0
							C68.4,572,69.2,574.4,68.3,576.4L68.3,576.4z"/>
						<path fill="#CECECE" d="M62.1,589.6c-1,2-3.4,2.9-5.4,2l0,0c-2-1-2.9-3.4-2-5.4l0,0c1-2,3.4-2.9,5.4-2l0,0
							C62.2,585.2,63.1,587.6,62.1,589.6L62.1,589.6z"/>
						<path fill="#CECECE" d="M55.9,602.8c-1,2-3.4,2.9-5.4,2l0,0c-2-1-2.9-3.4-2-5.4l0,0c1-2,3.4-2.9,5.4-2l0,0
							C56,598.3,56.9,600.8,55.9,602.8L55.9,602.8z"/>
						<path fill="#CECECE" d="M49.8,616c-1,2-3.4,2.9-5.4,2l0,0c-2-1-2.9-3.4-2-5.4l0,0c1-2,3.4-2.9,5.4-2l0,0
							C49.9,611.5,50.7,613.9,49.8,616L49.8,616z"/>
						<path fill="#CECECE" d="M43.6,629.2c-1,2-3.4,2.9-5.4,2l0,0c-2-1-2.9-3.4-2-5.4l0,0c1-2,3.4-2.9,5.4-2l0,0
							C43.7,624.7,44.6,627.1,43.6,629.2L43.6,629.2z"/>
						<path fill="#CECECE" d="M37.4,642.3c-1,2-3.4,2.9-5.4,2l0,0c-2-1-2.9-3.4-2-5.4l0,0c1-2,3.4-2.9,5.4-2l0,0
							C37.5,637.9,38.4,640.3,37.4,642.3L37.4,642.3z"/>
						<g>
							<path fill="#474747" d="M84.8,536c-0.4,0.9-1.6,1.3-2.7,0.8l-13-6.1c-1-0.5-1.5-1.6-1.1-2.5l0,0c0.4-0.9,1.6-1.3,2.7-0.8
								l13,6.1C84.7,533.9,85.2,535.1,84.8,536L84.8,536z"/>
							<path fill="#474747" d="M78.6,549.2c-0.4,0.9-1.6,1.3-2.7,0.8l-13-6.1c-1-0.5-1.5-1.6-1.1-2.5l0,0c0.4-0.9,1.6-1.3,2.7-0.8
								l13,6.1C78.6,547.1,79.1,548.3,78.6,549.2L78.6,549.2z"/>
							<path fill="#474747" d="M72.5,562.3c-0.4,0.9-1.6,1.3-2.7,0.8l-13-6.1c-1-0.5-1.5-1.6-1.1-2.5l0,0c0.4-0.9,1.6-1.3,2.7-0.8
								l13,6.1C72.4,560.3,72.9,561.4,72.5,562.3L72.5,562.3z"/>
							<path fill="#474747" d="M66.3,575.5c-0.4,0.9-1.6,1.3-2.7,0.8l-13-6.1c-1-0.5-1.5-1.6-1.1-2.5l0,0c0.4-0.9,1.6-1.3,2.7-0.8
								l13,6.1C66.2,573.5,66.7,574.6,66.3,575.5L66.3,575.5z"/>
							<path fill="#474747" d="M60.1,588.7c-0.4,0.9-1.6,1.3-2.7,0.8l-13-6.1c-1-0.5-1.5-1.6-1.1-2.5l0,0c0.4-0.9,1.6-1.3,2.7-0.8
								l13,6.1C60.1,586.6,60.6,587.8,60.1,588.7L60.1,588.7z"/>
							<path fill="#474747" d="M54,601.9c-0.4,0.9-1.6,1.3-2.7,0.8l-13-6.1c-1-0.5-1.5-1.6-1.1-2.5l0,0c0.4-0.9,1.6-1.3,2.7-0.8
								l13,6.1C53.9,599.8,54.4,601,54,601.9L54,601.9z"/>
							<path fill="#474747" d="M47.8,615c-0.4,0.9-1.6,1.3-2.7,0.8l-13-6.1c-1-0.5-1.5-1.6-1.1-2.5l0,0c0.4-0.9,1.6-1.3,2.7-0.8
								l13,6.1C47.7,613,48.2,614.1,47.8,615L47.8,615z"/>
							<path fill="#474747" d="M41.6,628.2c-0.4,0.9-1.6,1.3-2.7,0.8l-13-6.1c-1-0.5-1.5-1.6-1.1-2.5l0,0c0.4-0.9,1.6-1.3,2.7-0.8
								l13,6.1C41.6,626.2,42.1,627.3,41.6,628.2L41.6,628.2z"/>
							<path fill="#474747" d="M35.5,641.4c-0.4,0.9-1.6,1.3-2.7,0.8l-13-6.1c-1-0.5-1.5-1.6-1.1-2.5l0,0c0.4-0.9,1.6-1.3,2.7-0.8
								l13,6.1C35.4,639.3,35.9,640.5,35.5,641.4L35.5,641.4z"/>
						</g>
					</g>
					<g>
						<g>
							<path fill="#8D8D8D" d="M137.2,673.2c-1.2-0.6-2.2-1.6-2.6-3l-11.8-37.8l-4.6,19.1c-0.5,2.2-2.6,3.8-4.9,3.8
								c-2.3,0-4.3-1.7-4.7-4l-4.6-22.9c-0.5-2.7,1.2-5.3,3.9-5.8c2.7-0.5,5.3,1.2,5.8,3.9l0.2,1l3.5-14.7c0.5-2.2,2.4-3.7,4.6-3.8
								c2.2-0.1,4.2,1.3,4.9,3.5l9.8,31.4l5.1-54.7c0.2-2.4,2.1-4.3,4.5-4.4c2.4-0.2,4.6,1.3,5.2,3.6l12.8,48.4l-0.3-18
								c0-2.5,1.8-4.6,4.3-5c2.5-0.3,4.8,1.3,5.4,3.7l16.2,65.2c0.7,2.6-0.9,5.3-3.6,6c-2.6,0.7-5.3-0.9-6-3.6l-5.8-23.2l0.3,15.3
								c0,2.5-1.8,4.6-4.2,5c-2.5,0.3-4.8-1.2-5.4-3.6L149,617.6l-4.8,51.5c-0.2,2.3-2.1,4.2-4.4,4.4
								C138.9,673.7,138,673.5,137.2,673.2z"/>
						</g>
						<g>
							<circle fill="#8D8D8D" cx="106" cy="611.8" r="5.9"/>
						</g>
						<g>
							<circle fill="#8D8D8D" cx="103.7" cy="603" r="3.7"/>
						</g>
						<g>
							<path fill="#969696" d="M109,591.7c-0.9,1.8-3,2.6-4.9,1.8c-1.8-0.9-2.6-3-1.8-4.9c0.9-1.8,3-2.6,4.9-1.8
								C109,587.7,109.8,589.8,109,591.7z"/>
						</g>
						<g>
							<circle fill="#969696" cx="186" cy="634.3" r="5"/>
						</g>
						<g>
							<circle fill="#969696" cx="186.6" cy="643.6" r="3.2"/>
						</g>
						<g>
							<circle fill="#969696" cx="201.9" cy="641.7" r="4.5"/>
						</g>
						<g>
							<circle fill="#8D8D8D" cx="142.2" cy="681.3" r="5"/>
						</g>
						<g>
							<circle fill="#8D8D8D" cx="188.1" cy="695.4" r="5.3"/>
						</g>
						<g>
							<circle fill="#8D8D8D" cx="190.4" cy="702.9" r="3.6"/>
						</g>
						<g>
							<circle fill="#969696" cx="142" cy="576.4" r="5.3"/>
						</g>
						<g>
							<path fill="#969696" d="M142.7,568.3c-0.6,1.2-2,1.8-3.3,1.2c-1.2-0.6-1.8-2-1.2-3.3c0.6-1.2,2-1.8,3.3-1.2
								C142.8,565.6,143.3,567,142.7,568.3z"/>
						</g>
						<g>
							<path fill="#969696" d="M130.1,667.5c-1-0.5-1.7-1.5-1.6-2.7l3.9-57.4c0.1-1.4,1.1-2.4,2.5-2.6c1.3-0.2,2.6,0.7,3,2
								l16.9,53.7l9.4-32.7c0.3-1.1,1.3-1.9,2.4-2c1.2-0.1,2.3,0.5,2.8,1.5l18.8,37.3l1.1-8.7c0.2-1.2,1.1-2.2,2.4-2.4
								c1.2-0.2,2.5,0.5,3,1.6l10.8,23.5c0.6,1.4,0,3.1-1.4,3.7c-1.4,0.7-3.1,0-3.7-1.4l-6.7-14.6l-1,8.1c-0.2,1.2-1.1,2.2-2.3,2.4
								c-1.2,0.2-2.4-0.4-3-1.5l-19.6-39.1l-10,34.8c-0.3,1.2-1.4,2-2.7,2c-1.2,0-2.3-0.8-2.7-2L137,622.6l-2.9,42.5
								c-0.1,1.6-1.5,2.7-3,2.6C130.7,667.7,130.4,667.6,130.1,667.5z"/>
						</g>
					</g>
				</g>
			</g>
		</g>
		<g>
			<defs>
				<rect id="SVGID_1_" x="616.8" width="183.2" height="117.5"/>
			</defs>
			<clipPath id="SVGID_2_">
				<use xlink:href="#SVGID_1_"  overflow="visible"/>
			</clipPath>
			<g clip-path="url(#SVGID_2_)">
				<path opacity="0.2" fill="#474747" d="M984.5-82.9C904.7-52,734.3,13.9,654.5,44.7c4.4,0,8.4,0.9,12,2.3
					c-7.1,2.7-14.1,5.5-21.2,8.2c-21.4,10.6-7.8,58.8,19.4,50.2c3.9-1.5,7.7-3,11.6-4.5v0c79.8-30.8,250.2-96.8,330-127.6
					C1027.8-46.6,1013.9-82.6,984.5-82.9z"/>
				<g>
					<path fill="#CECECE" d="M665.7,98.8c71.2-27.5,142.3-55,213.5-82.6C853,16,840.5-16.2,859.8-34c-71.2,27.5-142.3,55-213.5,82.6
						C624.9,59.2,638.4,107.4,665.7,98.8z"/>
					<path fill="#BCBCBC" d="M798.8-10.4C748,9.3,697.2,28.9,646.3,48.6c15.5-6,34.8,21.4,13.9,35.8c50.8-19.7,101.7-39.3,152.5-59
						C826.5,12.7,817.6-10.2,798.8-10.4z"/>
					<path fill="#DFDFDF" d="M985.5-89.5c-79.8,30.8-250.2,96.8-330,127.6c29.4,0.2,43.3,36.3,21.8,56.2
						c79.8-30.8,250.2-96.8,330-127.6C1028.8-53.2,1014.8-89.3,985.5-89.5z"/>
				</g>
			</g>
		</g>
		<g opacity="0.2">
			<path fill="#474747" d="M775.4,728.4L643.6,614.5l-14.2-12.3c0,0-7-18.4-19.1-32.5c0,0-8-1.1-18.6,11.4l7.7,7.9l-9.3-6l-2.4,2.8
				l8.9,6.5l-10.5-4.6c0,0-3.8,6.8-2.5,13.7c0.7,0.5,15,10.1,33.7,15l14.5,11.9L766,739.5c2.5,2.1,6.2,1.8,8.3-0.6l2-2.3
				C778.3,734.2,777.9,730.5,775.4,728.4z"/>
			<path fill="#474747" d="M635.4,656.7l-7.5-7.5c0.1-1.8-0.5-3.6-1.9-5l-4.6-4.5c-1.3-1.3-3.1-1.9-4.8-1.8
				c-1.2-7.1-7.6-19.4-35.4-27.7c0,0,10.1,30.9,29.3,33.5c-0.2,1.8,0.5,3.7,1.9,5.1l4.6,4.5c1.4,1.4,3.2,2,5,1.8l7.5,7.3
				l122.2,118.3c1,1,2.6,0.9,3.5,0c1-1,1-2.6,0-3.5L635.4,656.7z"/>
		</g>
		<g>
			<path fill="#656565" d="M632.9,623.4L767,734.5c2.5,2.1,6.2,1.8,8.3-0.6l2-2.3c2-2.4,1.7-6.1-0.8-8.2L644.6,609.5
				C640.7,614.1,636.8,618.7,632.9,623.4z"/>
			<path fill="#474747" d="M630.5,597.2l-12.1,14.2l14.5,11.9c3.9-4.6,7.9-9.3,11.8-13.9L630.5,597.2z"/>
			<path fill="#BBBBBB" d="M630.5,597.2c0,0-7-18.4-19.1-32.5c0,0-8-1.1-18.6,11.4l7.7,7.9l-9.3-6l-2.4,2.8l8.9,6.5l-10.5-4.6
				c0,0-3.8,6.8-2.5,13.7c0.7,0.5,15,10.1,33.7,15L630.5,597.2z"/>
		</g>
		<g>
			<path fill="#BBBBBB" d="M617.6,638.5c0,0,5.8-21.1-35.4-33.4C582.2,605.1,594.5,642.6,617.6,638.5z"/>
			<path fill="#474747" d="M620.2,641.5c-1.6,1.7-0.7,5.3,2.2,8l8.1,7.9c2.8-0.8,5.1-2.6,5.9-5.7l-8.1-8.2
				C625.5,640.7,621.8,639.8,620.2,641.5z"/>
			<path fill="#676767" d="M630.5,657.4l122.2,118.3c1,1,2.6,0.9,3.5,0c1-1,1-2.6,0-3.5L636.4,651.7
				C635.6,654.8,633.3,656.6,630.5,657.4z"/>
			<path fill="#474747" d="M627,639.1c2.5,2.5,2.6,6.6,0.1,9.1l0,0c-2.5,2.5-6.6,2.6-9.1,0.1l-4.6-4.5c-2.5-2.5-2.6-6.6-0.1-9.1l0,0
				c2.5-2.5,6.6-2.6,9.1-0.1L627,639.1z"/>
		</g>
		<path opacity="0.2" fill="#474747" d="M771.3,606.3l-2.9-3.1c0.4-1.7,0-3.5-1.3-4.9l-3.8-4c-1.3-1.4-3.1-1.9-4.8-1.6l-2.9-3.1
			c-3.1-3.3-8.3-3.4-11.6-0.3l-30.1,28.5c-3.3,3.1-3.4,8.3-0.3,11.6l2.9,3.1c-0.3,1.3-0.1,2.8,0.6,4c-1.4,0.6-3.1,0.4-4.2-0.8
			l-8.1-8.6c-1.9-2-2.8-6.1-2-8.7l8.5-26.7c1.6-5.1,0-12.1-3.7-16l-6.3-6.7l4.6-4.3c2.1-2,2.2-5.2,0.2-7.3c-2-2.1-5.2-2.2-7.3-0.2
			l-0.9,0.8c1-2.6,0.5-5.6-1.5-7.7l-60.8-64.2c-2.8-3-7.5-3.1-10.4-0.3l-8.1,7.7c-3,2.8-3.1,7.5-0.3,10.4l60.8,64.2
			c2,2.1,5,2.8,7.6,1.9l-0.9,0.8c-2.1,2-2.2,5.2-0.2,7.3c2,2.1,5.2,2.2,7.3,0.2l4.6-4.3l6.3,6.7c1.9,2,2.8,6.1,2,8.7l-8.5,26.7
			c-1.6,5.1,0,12.1,3.7,16l8.1,8.6c3.9,4.1,10.2,4.6,14.7,1.2c1.2,1,2.8,1.3,4.2,1.1l2.9,3.1c3.1,3.3,8.3,3.4,11.6,0.3l30.1-28.5
			C774.3,614.8,774.5,609.6,771.3,606.3z"/>
		<g>
			<g>
				<path fill="#BEBEBE" d="M754.4,596.6c-2-2.2-1.9-5.6,0.2-7.6l0,0c2.2-2,5.6-1.9,7.6,0.2l3.8,4c2,2.2,1.9,5.6-0.2,7.6l0,0
					c-2.2,2-5.6,1.9-7.6-0.2L754.4,596.6z"/>
				<path fill="#BEBEBE" d="M716.7,632.4c-2-2.2-1.9-5.6,0.2-7.6l0,0c2.2-2,5.6-1.9,7.6,0.2l3.8,4c2,2.2,1.9,5.6-0.2,7.6l0,0
					c-2.2,2-5.6,1.9-7.6-0.2L716.7,632.4z"/>
			</g>
			<g>
				<path fill="#BEBEBE" d="M691.4,560.1c1.5-1.4,3.8-1.3,5.2,0.1l9.9,10.4c3.7,3.9,5.3,10.9,3.7,16l-8.5,26.7
					c-0.8,2.6,0.1,6.7,2,8.7l8.1,8.6c1.4,1.5,3.7,1.5,5.2,0.1l35.9-34c1.5-1.4,3.8-1.3,5.2,0.1c1.4,1.5,1.3,3.8-0.1,5.2l-35.9,34
					c-4.4,4.2-11.4,4-15.6-0.4l-8.1-8.6c-3.7-3.9-5.3-10.9-3.7-16l8.5-26.7c0.8-2.6-0.1-6.7-2-8.7l-9.9-10.4
					C689.9,563.9,690,561.5,691.4,560.1z"/>
			</g>
			<g>
				<path fill="#787878" d="M615.7,499c-2.8-3-2.7-7.6,0.3-10.4l8.1-7.7c3-2.8,7.6-2.7,10.4,0.3l60.8,64.2c2.8,3,2.7,7.6-0.3,10.4
					l-8.1,7.7c-3,2.8-7.6,2.7-10.4-0.3L615.7,499z"/>
				<path fill="#6D6D6D" d="M683,573.2c-2-2.1-1.9-5.3,0.2-7.3l14.5-13.7c2.1-2,5.3-1.9,7.3,0.2l0,0c2,2.1,1.9,5.3-0.2,7.3
					l-14.5,13.7C688.2,575.4,684.9,575.3,683,573.2L683,573.2z"/>
			</g>
			<path fill="#474747" d="M712.4,624.4c-3.1-3.3-3-8.5,0.3-11.6l30.1-28.5c3.3-3.1,8.5-3,11.6,0.3l15.8,16.7
				c3.1,3.3,3,8.5-0.3,11.6l-30.1,28.5c-3.3,3.1-8.5,3-11.6-0.3L712.4,624.4z"/>
		</g>
		<path opacity="0.2" fill="#474747" d="M789,95.1c-15.5-28.3-109.9,105.7-109.9,105.7s-23.4-7.3-30.7-3.6c-2.7,1.4-5.9,4.5-8.6,7.7
			c-3.6,4.1-6.7,8.5-7.8,10.2c-0.8,0-1.7,0.3-2.3,1c-0.8,0.8-1,2-0.6,3c-19.7,6.2-32.4,30.1-32.4,30.1c4.7-8,15.9-14.6,15.9-14.6
			c-9.2,8.5-20.6,22.5-20.6,22.5l9.6,8.8l9.5-7.3l-6.1,9.7l5.4,4.9l26.6-19.8l-22,24.1c11.3,9.3,26.5,24.2,26.5,24.2
			s8.7-9.4,15.7-15.6c6.1-5.4,16.1-20.2,18.6-23.9c1.2,0.7,2.7,0.4,3.7-0.6c0.8-0.8,1-2,0.7-3c1.7-1.3,5.5-4.1,9.1-7.6
			c3.3-3.2,6.3-7,7.1-10.4c2.1-8.5-5-28.6-5-28.6S804.5,123.5,789,95.1z M771.7,106.9l4.3-4.7c1.3-1.5,3.6-1.6,5-0.2
			c1.5,1.3,1.6,3.6,0.2,5l-4.3,4.7c-1.3,1.5-3.6,1.6-5,0.2C770.5,110.6,770.4,108.4,771.7,106.9z"/>
		<g>
			<path fill="#787878" d="M696.4,233.7c2.1-8.5-5-28.6-5-28.6s113.1-88.6,97.6-117c-15.5-28.3-109.9,105.7-109.9,105.7
				s-23.4-7.3-30.7-3.6c-2.7,1.4-5.9,4.5-8.6,7.7c16.6,15.3,33,30.9,49.5,46.1C692.5,240.8,695.5,237.1,696.4,233.7z M777,104.7
				c-1.3,1.5-3.6,1.6-5,0.2s-1.6-3.6-0.2-5l4.3-4.7c1.3-1.5,3.6-1.6,5-0.2c1.5,1.3,1.6,3.6,0.2,5L777,104.7z"/>
			<path fill="#BBBBBB" d="M676.5,254.4c0,0-12.2,18.6-19.2,24.8c-7,6.2-15.7,15.6-15.7,15.6s-15.2-14.9-26.5-24.2l22-24.1
				l-26.6,19.8l-5.4-4.9l6.1-9.7l-9.5,7.3l-9.6-8.8c0,0,11.4-14,20.6-22.5c0,0-11.3,6.6-15.9,14.6c0,0,13.1-24.6,33.2-30.4
				L676.5,254.4z"/>
			<path fill="#474747" d="M639.8,198c-4.5,5.2-8.2,10.8-8.2,10.8l47.7,43.6c0,0,5.3-3.6,10-8.3C672.8,228.9,656.5,213.2,639.8,198z
				"/>
			<path fill="#474747" d="M679.6,254.7c-1.1,1.3-3.1,1.3-4.3,0.2l-45.3-41.4c-1.3-1.1-1.3-3.1-0.2-4.3l0,0c1.1-1.3,3.1-1.3,4.3-0.2
				l45.3,41.4C680.6,251.5,680.7,253.4,679.6,254.7L679.6,254.7z"/>
		</g>
		<g>
			<defs>
				<rect id="SVGID_3_" y="297.4" width="118.1" height="176.1"/>
			</defs>
			<clipPath id="SVGID_4_">
				<use xlink:href="#SVGID_3_"  overflow="visible"/>
			</clipPath>
			<g clip-path="url(#SVGID_4_)">
				<path opacity="0.2" fill="#474747" d="M87.6,318.4l-5.8,7.6l3.9-8.7l-2.7-1.7l-4.3,8.4l2.5-9.6c0,0-6.3-2.4-12-0.3
					c-0.4,0.6-6.7,14.2-8.4,30.8l-8.3,13.9l-77.4,129.2c-1.5,2.4-0.8,5.6,1.6,7l2.2,1.4c2.3,1.4,5.4,0.6,6.9-1.8l80.1-127.6
					l8.6-13.7c0,0,14.8-8.4,25.3-20.6C99.8,332.8,99.7,325.8,87.6,318.4z"/>
				<g>
					<path fill="#787878" d="M49.2,355.1l-77.4,129.2c-1.5,2.4-0.8,5.6,1.6,7l2.2,1.4c2.3,1.4,5.4,0.6,6.9-1.8l80.1-127.6
						C58.2,360.6,53.7,357.8,49.2,355.1z"/>
					<path fill="#474747" d="M71.3,349.6l-13.8-8.5l-8.3,13.9c4.5,2.8,9,5.5,13.4,8.3L71.3,349.6z"/>
					<path fill="#BBBBBB" d="M71.3,349.6c0,0,14.8-8.4,25.2-20.6c0,0-0.1-7-12.2-14.4l-5.8,7.6l3.9-8.7l-2.7-1.7l-4.3,8.4l2.5-9.6
						c0,0-6.3-2.4-12-0.3c-0.4,0.6-6.7,14.2-8.4,30.8L71.3,349.6z"/>
				</g>
			</g>
		</g>
		<g>
			<g>
				<circle fill="#CCCCCC" cx="160.1" cy="413.4" r="26.7"/>
				<circle fill="#CCCCCC" cx="128.3" cy="433.8" r="12.1"/>
				<circle fill="#CCCCCC" cx="126.8" cy="445.8" r="6.4"/>
				<circle fill="#CCCCCC" cx="106.7" cy="449.6" r="5.3"/>
				<circle fill="#CCCCCC" cx="156.5" cy="448.4" r="10.2"/>
			</g>
		</g>
		<g>
			<g>
				<circle fill="#C7C7C7" cx="84.9" cy="102.2" r="30.6"/>
				<circle fill="#C7C7C7" cx="117.8" cy="74.1" r="13.8"/>
				<circle fill="#C7C7C7" cx="117.6" cy="60.3" r="7.3"/>
				<circle fill="#C7C7C7" cx="139.9" cy="52.8" r="6"/>
				<circle fill="#C7C7C7" cx="83.5" cy="62" r="11.7"/>
			</g>
		</g>
		<g>
			<circle fill="#CCCCCC" cx="756.3" cy="325.9" r="26.7"/>
			<circle fill="#CCCCCC" cx="726.9" cy="302.3" r="12.1"/>
			<circle fill="#CCCCCC" cx="715.1" cy="304.6" r="6.4"/>
			<circle fill="#CCCCCC" cx="705.1" cy="286.8" r="5.3"/>
			<circle fill="#CCCCCC" cx="722" cy="333.7" r="10.2"/>
		</g>
		<g>
			<g>
				<circle fill="#9B9B9B" cx="747.6" cy="519" r="26.7"/>
				<circle fill="#9B9B9B" cx="757.8" cy="555.4" r="12.1"/>
				<circle fill="#9B9B9B" cx="768.7" cy="560.3" r="6.4"/>
				<circle fill="#9B9B9B" cx="766.5" cy="580.7" r="5.3"/>
				<circle fill="#9B9B9B" cx="780" cy="532.7" r="10.2"/>
			</g>
		</g>
		<g>
			<path fill="#6D6D6D" d="M283.5,123.5c0.1-0.4,0.2-0.8,0.2-1.3l1-5.8c0,0-1.1,0.2-2.1,0.4l-43.8-84c-2.3-4.5-7.8-6.2-12.3-3.9
				L32.2,130.3c-0.2,0.1-0.4,0.2-0.6,0.4l-3-0.3l-1.1,6.1c0,0.1,0,0.2,0,0.3l0,0.2h0c-0.3,1.9,0,3.8,0.9,5.6l43.9,84.2
				c2.3,4.5,7.8,6.2,12.3,3.9l194.4-101.3c2.4-1.2,4-3.4,4.6-5.8l0,0L283.5,123.5z"/>
			<path fill="#787878" d="M85.6,224.5c-4.5,2.3-10,0.6-12.3-3.9l-43.9-84.2c-2.3-4.5-0.6-10,3.9-12.3L227.6,22.8
				c4.5-2.3,10-0.6,12.3,3.9l43.9,84.2c2.3,4.5,0.6,10-3.9,12.3L85.6,224.5z"/>
			<path fill="#6D6D6D" d="M67.2,172.4c-0.9,0.5-2.1,0.1-2.6-0.8l0,0c-0.5-0.9-0.1-2.1,0.8-2.6L246,74.9c0.9-0.5,2.1-0.1,2.6,0.8
				l0,0c0.5,0.9,0.1,2.1-0.8,2.6L67.2,172.4z"/>
			<g>
				<g>
					<g>
						<circle fill="#9F9F9F" cx="218.1" cy="57.8" r="16.4"/>
						<path fill="#DEDEDE" d="M228.6,52.3c3.8,7.4,1.5,16.3-5,21c0.7-0.3,1.4-0.5,2.1-0.9c8.1-4.2,11.2-14.1,7-22.2
							c-4.2-8-14.1-11.2-22.2-7c-0.7,0.4-1.3,0.8-1.9,1.2C216.1,41.7,224.8,44.9,228.6,52.3z"/>
					</g>
					<g>
						<circle fill="#CCCCCC" cx="167.9" cy="84" r="16.4"/>
						<path fill="#DEDEDE" d="M178.4,78.5c3.8,7.4,1.5,16.3-5,21c0.7-0.3,1.4-0.5,2.1-0.9c8.1-4.2,11.2-14.1,7-22.2
							c-4.2-8-14.1-11.2-22.2-7c-0.7,0.4-1.3,0.8-1.9,1.2C165.9,67.9,174.6,71.1,178.4,78.5z"/>
					</g>
					<g>
						<circle fill="#8D8D8D" cx="117.7" cy="110.2" r="16.4"/>
						<path fill="#DEDEDE" d="M128.2,104.7c3.8,7.4,1.5,16.3-5,21c0.7-0.3,1.4-0.5,2.1-0.9c8.1-4.2,11.2-14.1,7-22.2
							c-4.2-8-14.1-11.2-22.2-7c-0.7,0.4-1.3,0.8-1.9,1.2C115.7,94.1,124.4,97.3,128.2,104.7z"/>
					</g>
					<g>
						<circle fill="#656565" cx="67.4" cy="136.3" r="16.4"/>
						<path fill="#DEDEDE" d="M78,130.8c3.8,7.4,1.5,16.3-5,21c0.7-0.2,1.4-0.5,2.1-0.9c8-4.2,11.2-14.1,7-22.2
							c-4.2-8-14.1-11.2-22.2-7c-0.7,0.4-1.3,0.8-1.9,1.2C65.5,120.2,74.2,123.5,78,130.8z"/>
					</g>
				</g>
				<g>
					<g>
						<circle fill="#717171" cx="245.8" cy="111" r="16.4"/>
						<path fill="#DEDEDE" d="M256.3,105.5c3.8,7.4,1.5,16.3-5,21c0.7-0.3,1.4-0.5,2.1-0.9c8.1-4.2,11.2-14.1,7-22.2
							c-4.2-8.1-14.1-11.2-22.2-7c-0.7,0.4-1.3,0.8-1.9,1.2C243.9,94.9,252.5,98.1,256.3,105.5z"/>
					</g>
					<g>
						<circle fill="#969696" cx="195.6" cy="137.2" r="16.4"/>
						<path fill="#DEDEDE" d="M206.1,131.7c3.8,7.4,1.5,16.3-5,21c0.7-0.3,1.4-0.5,2.1-0.9c8.1-4.2,11.2-14.1,7-22.2
							c-4.2-8.1-14.1-11.2-22.2-7c-0.7,0.4-1.3,0.8-1.9,1.2C193.7,121.1,202.3,124.3,206.1,131.7z"/>
					</g>
					<g>
						<circle fill="#9B9B9B" cx="145.4" cy="163.3" r="16.4"/>
						<path fill="#DEDEDE" d="M155.9,157.8c3.8,7.4,1.5,16.3-5.1,21c0.7-0.3,1.4-0.5,2.1-0.9c8-4.2,11.2-14.1,7-22.2
							c-4.2-8.1-14.1-11.2-22.2-7c-0.7,0.4-1.3,0.8-1.9,1.2C143.4,147.2,152.1,150.5,155.9,157.8z"/>
					</g>
					<g>
						<circle fill="#C7C7C7" cx="95.2" cy="189.5" r="16.4"/>
						<path fill="#DEDEDE" d="M105.7,184c3.8,7.4,1.5,16.3-5,21c0.7-0.3,1.4-0.5,2.1-0.9c8.1-4.2,11.2-14.1,7-22.2
							c-4.2-8.1-14.1-11.2-22.2-7c-0.7,0.4-1.3,0.8-1.9,1.2C93.2,173.4,101.9,176.6,105.7,184z"/>
					</g>
				</g>
			</g>
		</g>
		<g>
			<defs>
				<rect id="SVGID_5_" x="669.9" y="310.5" width="130.1" height="208"/>
			</defs>
			<clipPath id="SVGID_6_">
				<use xlink:href="#SVGID_5_"  overflow="visible"/>
			</clipPath>
			<g clip-path="url(#SVGID_6_)">
				<path opacity="0.2" fill="#474747" d="M768.3,325.5c-56.6,15.9-108.1,77.3-84.5,118.6c23.6,41.3,71.8-1.5,91.3,34.6
					c10.2,18.9,33.4,36.3,58.7,24.4c19.5-9.2,60.5-42.9,55.8-101.6C885,342.7,825.4,309.5,768.3,325.5z M824.8,488.7
					c-14.2,6.5-30.4-7-29.6-14.4c1.1-10.1,8.6-19.4,24.5-14.1C835.6,465.4,839,482.2,824.8,488.7z"/>
				<path fill="#787878" d="M764.3,318.4c-56.6,15.9-108.1,77.3-84.5,118.6c23.6,41.3,71.9-1.5,91.3,34.6
					c10.2,18.9,33.4,36.3,58.8,24.4c19.5-9.2,60.5-42.9,55.8-101.6C880.9,335.6,821.4,302.4,764.3,318.4z M820.8,481.5
					c-14.2,6.5-30.4-7-29.6-14.4c1.1-10.1,8.6-19.4,24.5-14.1C831.6,458.3,835,475,820.8,481.5z"/>
				<g>
					<path fill="#717171" d="M714.5,414.3c3.9,6.9,1.4,15.7-5.5,19.6c-6.9,3.9-15.7,1.4-19.6-5.5c-3.9-6.9-1.4-15.7,5.5-19.6
						C701.9,404.9,710.6,407.4,714.5,414.3z"/>
					<path fill="#DEDEDE" d="M696.9,412.3c6.3-3.6,14.2-1.8,18.5,3.8c-0.2-0.6-0.5-1.2-0.8-1.8c-3.9-6.9-12.6-9.4-19.6-5.5
						c-6.9,3.9-9.4,12.6-5.5,19.6c0.3,0.6,0.7,1.1,1.1,1.7C688,423.5,690.5,415.8,696.9,412.3z"/>
				</g>
				<g>
					<path fill="#9B9B9B" d="M726.6,372.8c3.9,6.9,1.4,15.7-5.5,19.6c-6.9,3.9-15.7,1.4-19.6-5.5c-3.9-6.9-1.4-15.7,5.5-19.6
						C714,363.4,722.7,365.9,726.6,372.8z"/>
					<path fill="#DEDEDE" d="M709,370.7c6.3-3.6,14.2-1.8,18.5,3.8c-0.2-0.6-0.5-1.2-0.8-1.8c-3.9-6.9-12.6-9.4-19.6-5.5
						c-6.9,3.9-9.4,12.6-5.5,19.6c0.3,0.6,0.7,1.1,1.1,1.7C700.1,381.9,702.7,374.3,709,370.7z"/>
				</g>
				<g>
					<path fill="#C7C7C7" d="M763,343.7c3.9,6.9,1.4,15.7-5.5,19.6c-6.9,3.9-15.7,1.4-19.6-5.5c-3.9-6.9-1.4-15.7,5.5-19.6
						C750.4,334.3,759.1,336.8,763,343.7z"/>
					<path fill="#DEDEDE" d="M745.4,341.6c6.3-3.6,14.2-1.8,18.5,3.8c-0.2-0.6-0.5-1.2-0.8-1.8c-3.9-6.9-12.6-9.4-19.6-5.5
						c-6.9,3.9-9.4,12.6-5.5,19.6c0.3,0.6,0.7,1.1,1.1,1.7C736.5,352.8,739.1,345.2,745.4,341.6z"/>
				</g>
				<g>
					<path fill="#8D8D8D" d="M809.8,332.5c3.9,6.9,1.4,15.7-5.5,19.6c-6.9,3.9-15.7,1.4-19.6-5.5c-3.9-6.9-1.4-15.7,5.5-19.6
						C797.2,323.1,806,325.6,809.8,332.5z"/>
					<path fill="#DEDEDE" d="M792.2,330.4c6.3-3.6,14.2-1.8,18.5,3.8c-0.2-0.6-0.5-1.2-0.8-1.8c-3.9-6.9-12.6-9.4-19.6-5.5
						c-6.9,3.9-9.4,12.6-5.5,19.6c0.3,0.6,0.7,1.1,1.1,1.7C783.3,341.6,785.9,334,792.2,330.4z"/>
				</g>
				<g>
					<circle fill="#656565" cx="837.1" cy="357.2" r="14.4"/>
					<path fill="#DEDEDE" d="M832,348.2c6.3-3.6,14.2-1.8,18.5,3.8c-0.2-0.6-0.5-1.2-0.8-1.8c-3.9-6.9-12.6-9.4-19.6-5.5
						c-6.9,3.9-9.4,12.6-5.5,19.6c0.3,0.6,0.7,1.1,1.1,1.7C823.1,359.3,825.7,351.7,832,348.2z"/>
				</g>
				<g>
					<path fill="#9F9F9F" d="M874.5,387.4c3.9,6.9,1.4,15.7-5.5,19.6c-6.9,3.9-15.7,1.4-19.6-5.5c-3.9-6.9-1.4-15.7,5.5-19.6
						C861.8,378,870.6,380.5,874.5,387.4z"/>
					<path fill="#DEDEDE" d="M856.8,385.4c6.3-3.6,14.2-1.8,18.5,3.8c-0.2-0.6-0.5-1.2-0.8-1.8c-3.9-6.9-12.6-9.4-19.6-5.5
						c-6.9,3.9-9.4,12.6-5.5,19.6c0.3,0.6,0.7,1.1,1.1,1.7C847.9,396.5,850.5,388.9,856.8,385.4z"/>
				</g>
				<path fill="#717171" d="M728.7,420.4c2,3.5,0.7,7.9-2.8,9.9c-3.5,2-7.9,0.7-9.9-2.8c-2-3.5-0.7-7.9,2.8-9.8
					C722.3,415.6,726.7,416.9,728.7,420.4z"/>
				<path fill="#8D8D8D" d="M797.1,353.6c2,3.5,0.7,7.9-2.8,9.9c-3.5,2-7.9,0.7-9.9-2.8c-2-3.5-0.7-7.9,2.8-9.9
					C790.7,348.9,795.1,350.2,797.1,353.6z"/>
				<path fill="#717171" d="M722.3,438.2c1,1.8,0.4,4.1-1.4,5.1c-1.8,1-4.1,0.4-5.1-1.4c-1-1.8-0.4-4.1,1.4-5.1
					C719,435.7,721.3,436.4,722.3,438.2z"/>
				<circle fill="#8D8D8D" cx="797.8" cy="369.8" r="3.8"/>
				<circle fill="#C7C7C7" cx="752.1" cy="366.7" r="7.2"/>
				<circle fill="#C7C7C7" cx="770.6" cy="368.5" r="3.9"/>
				<path fill="#C7C7C7" d="M767.4,379.9c1.9,3.3,0.7,7.5-2.6,9.3c-3.3,1.9-7.5,0.7-9.3-2.6c-1.9-3.3-0.7-7.5,2.6-9.3
					C761.4,375.4,765.5,376.6,767.4,379.9z"/>
				<path fill="#9F9F9F" d="M857.2,413.5c1.2,2.1,0.4,4.8-1.7,5.9c-2.1,1.2-4.8,0.4-5.9-1.7c-1.2-2.1-0.4-4.8,1.7-5.9
					C853.4,410.7,856,411.4,857.2,413.5z"/>
				<path fill="#9F9F9F" d="M874.2,409c1.9,3.4,0.7,7.7-2.7,9.6c-3.4,1.9-7.7,0.7-9.6-2.7c-1.9-3.4-0.7-7.7,2.7-9.6
					C868,404.4,872.3,405.6,874.2,409z"/>
			</g>
		</g>
	</g>
</g>
<g id="DESIGNED_BY_FREEPIK">
</g>
</svg>
