<?xml version="1.0" encoding="utf-8"?>
<!-- Generator: Adobe Illustrator 18.0.0, SVG Export Plug-In . SVG Version: 6.00 Build 0)  -->
<!DOCTYPE svg PUBLIC "-//W3C//DTD SVG 1.1//EN" "http://www.w3.org/Graphics/SVG/1.1/DTD/svg11.dtd">
<svg version="1.1" xmlns="http://www.w3.org/2000/svg" xmlns:xlink="http://www.w3.org/1999/xlink" x="0px" y="0px"
	 viewBox="0 0 500 500" enable-background="new 0 0 500 500" xml:space="preserve">
<g id="BACKGROUND">
</g>
<g id="OBJECTS">
	<g opacity="0.1">
		<g>
			
				<line fill="none" stroke="#DBDBDB" stroke-width="0.9984" stroke-linecap="round" stroke-miterlimit="10" x1="200.3" y1="384.8" x2="200.3" y2="74.3"/>
			
				<line fill="none" stroke="#DBDBDB" stroke-width="0.9984" stroke-linecap="round" stroke-miterlimit="10" x1="122.8" y1="303.9" x2="122.8" y2="137.8"/>
			
				<line fill="none" stroke="#DBDBDB" stroke-width="0.9984" stroke-linecap="round" stroke-miterlimit="10" x1="217.8" y1="343.3" x2="217.8" y2="96.8"/>
			
				<line fill="none" stroke="#DBDBDB" stroke-width="0.9984" stroke-linecap="round" stroke-miterlimit="10" x1="291.8" y1="343.3" x2="291.8" y2="99.5"/>
			
				<line fill="none" stroke="#DBDBDB" stroke-width="0.9984" stroke-linecap="round" stroke-miterlimit="10" x1="363.9" y1="390.6" x2="363.9" y2="105.3"/>
			
				<circle fill="none" stroke="#DBDBDB" stroke-width="0.9984" stroke-linecap="round" stroke-miterlimit="10" cx="122.8" cy="135.2" r="2.6"/>
			
				<circle fill="none" stroke="#DBDBDB" stroke-width="0.9984" stroke-linecap="round" stroke-miterlimit="10" cx="200.3" cy="71.6" r="2.6"/>
			
				<circle fill="none" stroke="#DBDBDB" stroke-width="0.9984" stroke-linecap="round" stroke-miterlimit="10" cx="217.8" cy="94.2" r="2.6"/>
			
				<circle fill="none" stroke="#DBDBDB" stroke-width="0.9984" stroke-linecap="round" stroke-miterlimit="10" cx="363.9" cy="102.1" r="2.6"/>
			<g>
				
					<line fill="none" stroke="#DBDBDB" stroke-width="0.9984" stroke-linecap="round" stroke-miterlimit="10" x1="397.9" y1="231.7" x2="397.9" y2="124.3"/>
				
					<circle fill="none" stroke="#DBDBDB" stroke-width="0.9984" stroke-linecap="round" stroke-miterlimit="10" cx="397.9" cy="121.3" r="2.6"/>
			</g>
			<g>
				
					<line fill="none" stroke="#DBDBDB" stroke-width="0.9984" stroke-linecap="round" stroke-miterlimit="10" x1="439.2" y1="343.2" x2="439.2" y2="194.1"/>
				
					<circle fill="none" stroke="#DBDBDB" stroke-width="0.9984" stroke-linecap="round" stroke-miterlimit="10" cx="439.2" cy="191.1" r="2.6"/>
			</g>
			<g>
				
					<line fill="none" stroke="#DBDBDB" stroke-width="0.9984" stroke-linecap="round" stroke-miterlimit="10" x1="84.6" y1="336.1" x2="84.6" y2="187"/>
				
					<circle fill="none" stroke="#DBDBDB" stroke-width="0.9984" stroke-linecap="round" stroke-miterlimit="10" cx="84.6" cy="184" r="2.6"/>
			</g>
			
				<circle fill="none" stroke="#DBDBDB" stroke-width="0.9984" stroke-linecap="round" stroke-miterlimit="10" cx="291.8" cy="96.8" r="2.6"/>
		</g>
		<g>
			<path fill="none" stroke="#ACACAC" stroke-width="0.9984" stroke-miterlimit="10" d="M423.4,241.6v-30.4c0-2.7-2.1-5-4.9-5.2
				l-13.5-0.9c-1.8-6.7-4.5-13.1-7.9-19l8.9-10.2c1.8-2.1,1.7-5.2-0.2-7.1l-21.5-21.5c-1.9-1.9-5.1-2-7.1-0.2l-10.2,8.9
				c-5.9-3.4-12.3-6.1-19-7.9l-0.9-13.5c-0.2-2.7-2.5-4.9-5.2-4.9h-30.4c-2.7,0-5,2.1-5.2,4.9l-0.9,13.5c-6.7,1.8-13.1,4.5-19,7.9
				l-10.2-8.9c-2.1-1.8-5.2-1.7-7.1,0.2l-21.5,21.5c-1.9,1.9-2,5.1-0.2,7.1l8.9,10.2c-3.4,5.9-6.1,12.3-7.9,19l-13.5,0.9
				c-2.7,0.2-4.9,2.5-4.9,5.2v30.4c0,2.7,2.1,5,4.9,5.2l13.5,0.9c1.8,6.7,4.5,13.1,7.9,19l-8.9,10.2c-1.8,2.1-1.7,5.2,0.2,7.1
				l21.5,21.5c1.9,1.9,5.1,2,7.1,0.2l10.2-8.9c5.9,3.4,12.3,6.1,19,7.9l0.9,13.5c0.2,2.7,2.5,4.9,5.2,4.9H342c2.7,0,5-2.1,5.2-4.9
				l0.9-13.5c6.7-1.8,13.1-4.5,19-7.9l10.2,8.9c2.1,1.8,5.2,1.7,7.1-0.2l21.5-21.5c1.9-1.9,2-5.1,0.2-7.1l-8.9-10.2
				c3.4-5.9,6.1-12.3,7.9-19l13.5-0.9C421.3,246.6,423.4,244.3,423.4,241.6z M331.7,274.1c-30.4,3-55.7-22.3-52.7-52.7
				c2.2-22.5,20.4-40.6,42.9-42.9c30.4-3,55.7,22.3,52.7,52.7C372.3,253.7,354.1,271.9,331.7,274.1z"/>
			<path fill="none" stroke="#ACACAC" stroke-width="0.9984" stroke-miterlimit="10" d="M226.4,279.6v-20.8c0-1.9-1.5-3.4-3.3-3.6
				l-9.2-0.6c-1.2-4.6-3.1-8.9-5.4-13l6.1-6.9c1.2-1.4,1.2-3.5-0.2-4.9l-14.7-14.7c-1.3-1.3-3.5-1.4-4.9-0.2l-6.9,6.1
				c-4-2.3-8.4-4.1-13-5.4l-0.6-9.2c-0.1-1.9-1.7-3.3-3.6-3.3H150c-1.9,0-3.4,1.5-3.6,3.3l-0.6,9.2c-4.6,1.2-8.9,3.1-13,5.4
				l-6.9-6.1c-1.4-1.2-3.5-1.2-4.9,0.2l-14.7,14.7c-1.3,1.3-1.4,3.5-0.2,4.9l6.1,6.9c-2.3,4-4.1,8.4-5.4,13l-9.2,0.6
				c-1.9,0.1-3.3,1.7-3.3,3.6v20.8c0,1.9,1.5,3.4,3.3,3.6l9.2,0.6c1.2,4.6,3.1,8.9,5.4,13l-6.1,6.9c-1.2,1.4-1.2,3.5,0.2,4.9
				l14.7,14.7c1.3,1.3,3.5,1.4,4.9,0.2l6.9-6.1c4,2.3,8.4,4.1,13,5.4l0.6,9.2c0.1,1.9,1.7,3.3,3.6,3.3h20.8c1.9,0,3.4-1.5,3.6-3.3
				l0.6-9.2c4.6-1.2,8.9-3.1,13-5.4l6.9,6.1c1.4,1.2,3.5,1.2,4.9-0.2l14.7-14.7c1.3-1.3,1.4-3.5,0.2-4.9l-6.1-6.9
				c2.3-4,4.1-8.4,5.4-13l9.2-0.6C225,283,226.4,281.4,226.4,279.6z M163.8,301.8c-20.7,2.1-38-15.2-36-36
				c1.5-15.3,13.9-27.8,29.3-29.3c20.7-2.1,38,15.2,36,36C191.5,287.9,179.1,300.3,163.8,301.8z"/>
		</g>
		<polygon fill="#E4E4E4" points="429.9,438.5 84.6,438.5 151.9,386.1 362.6,386.1 		"/>
		<g>
			<rect x="151.9" y="231.7" fill="#C2C2C2" width="210.8" height="122.5"/>
			<g>
				<g>
					<rect x="158.1" y="235.3" fill="#666666" width="198.4" height="115.3"/>
					<g>
						<g>
							<path fill="#B5B5B5" d="M214.8,260.4h-44.5c-0.9,0-1.7-0.7-1.7-1.7l0,0c0-0.9,0.7-1.7,1.7-1.7h44.5c0.9,0,1.7,0.7,1.7,1.7
								l0,0C216.5,259.6,215.7,260.4,214.8,260.4z"/>
							<path fill="#B5B5B5" d="M267.1,260.4h-44.5c-0.9,0-1.7-0.7-1.7-1.7l0,0c0-0.9,0.7-1.7,1.7-1.7h44.5c0.9,0,1.7,0.7,1.7,1.7
								l0,0C268.8,259.6,268.1,260.4,267.1,260.4z"/>
							<path fill="#A9A9A9" d="M288.2,260.4H276c-0.9,0-1.7-0.7-1.7-1.7l0,0c0-0.9,0.7-1.7,1.7-1.7h12.2c0.9,0,1.7,0.7,1.7,1.7l0,0
								C289.8,259.6,289.1,260.4,288.2,260.4z"/>
						</g>
						<g>
							<path fill="#B5B5B5" d="M229.1,291.7h-58.8c-0.9,0-1.7-0.7-1.7-1.7l0,0c0-0.9,0.7-1.7,1.7-1.7h58.8c0.9,0,1.7,0.7,1.7,1.7
								l0,0C230.7,290.9,230,291.7,229.1,291.7z"/>
							<path fill="#A9A9A9" d="M273.1,291.7h-35c-0.9,0-1.7-0.7-1.7-1.7l0,0c0-0.9,0.7-1.7,1.7-1.7h35c0.9,0,1.7,0.7,1.7,1.7l0,0
								C274.8,290.9,274,291.7,273.1,291.7z"/>
						</g>
						<g>
							<path fill="#A9A9A9" d="M191.8,270.8h-21.5c-0.9,0-1.7-0.7-1.7-1.7l0,0c0-0.9,0.7-1.7,1.7-1.7h21.5c0.9,0,1.7,0.7,1.7,1.7
								l0,0C193.5,270.1,192.7,270.8,191.8,270.8z"/>
							<path fill="#B5B5B5" d="M235.9,270.8h-38c-0.9,0-1.7-0.7-1.7-1.7l0,0c0-0.9,0.7-1.7,1.7-1.7h38c0.9,0,1.7,0.7,1.7,1.7l0,0
								C237.5,270.1,236.8,270.8,235.9,270.8z"/>
						</g>
						<g>
							<path fill="#B5B5B5" d="M209.5,250h-39.2c-0.9,0-1.7-0.7-1.7-1.7l0,0c0-0.9,0.7-1.7,1.7-1.7h39.2c0.9,0,1.7,0.7,1.7,1.7l0,0
								C211.2,249.2,210.4,250,209.5,250z"/>
							<path fill="#A9A9A9" d="M309.1,250h-91.3c-0.9,0-1.7-0.7-1.7-1.7l0,0c0-0.9,0.7-1.7,1.7-1.7h91.3c0.9,0,1.7,0.7,1.7,1.7l0,0
								C310.7,249.2,310,250,309.1,250z"/>
						</g>
						<g>
							<path fill="#A9A9A9" d="M288.2,281.3h-19.5c-0.9,0-1.7-0.7-1.7-1.7l0,0c0-0.9,0.7-1.7,1.7-1.7h19.5c0.9,0,1.7,0.7,1.7,1.7
								l0,0C289.8,280.5,289.1,281.3,288.2,281.3z"/>
							<path fill="#B5B5B5" d="M261.6,281.3h-91.3c-0.9,0-1.7-0.7-1.7-1.7l0,0c0-0.9,0.7-1.7,1.7-1.7h91.3c0.9,0,1.7,0.7,1.7,1.7
								l0,0C263.3,280.5,262.6,281.3,261.6,281.3z"/>
						</g>
						<g>
							<path fill="#B5B5B5" d="M214.8,312.6h-44.5c-0.9,0-1.7-0.7-1.7-1.7l0,0c0-0.9,0.7-1.7,1.7-1.7h44.5c0.9,0,1.7,0.7,1.7,1.7
								l0,0C216.5,311.8,215.7,312.6,214.8,312.6z"/>
							<path fill="#B5B5B5" d="M267.1,312.6h-44.5c-0.9,0-1.7-0.7-1.7-1.7l0,0c0-0.9,0.7-1.7,1.7-1.7h44.5c0.9,0,1.7,0.7,1.7,1.7
								l0,0C268.8,311.8,268.1,312.6,267.1,312.6z"/>
							<path fill="#A9A9A9" d="M288.2,312.6H276c-0.9,0-1.7-0.7-1.7-1.7l0,0c0-0.9,0.7-1.7,1.7-1.7h12.2c0.9,0,1.7,0.7,1.7,1.7l0,0
								C289.8,311.8,289.1,312.6,288.2,312.6z"/>
						</g>
						<g>
							<path fill="#B5B5B5" d="M229.1,343.9h-58.8c-0.9,0-1.7-0.7-1.7-1.7l0,0c0-0.9,0.7-1.7,1.7-1.7h58.8c0.9,0,1.7,0.7,1.7,1.7
								l0,0C230.7,343.1,230,343.9,229.1,343.9z"/>
							<path fill="#A9A9A9" d="M273.1,343.9h-35c-0.9,0-1.7-0.7-1.7-1.7l0,0c0-0.9,0.7-1.7,1.7-1.7h35c0.9,0,1.7,0.7,1.7,1.7l0,0
								C274.8,343.1,274,343.9,273.1,343.9z"/>
						</g>
						<g>
							<path fill="#A9A9A9" d="M191.8,323h-21.5c-0.9,0-1.7-0.7-1.7-1.7l0,0c0-0.9,0.7-1.7,1.7-1.7h21.5c0.9,0,1.7,0.7,1.7,1.7l0,0
								C193.5,322.3,192.7,323,191.8,323z"/>
							<path fill="#B5B5B5" d="M235.9,323h-38c-0.9,0-1.7-0.7-1.7-1.7l0,0c0-0.9,0.7-1.7,1.7-1.7h38c0.9,0,1.7,0.7,1.7,1.7l0,0
								C237.5,322.3,236.8,323,235.9,323z"/>
						</g>
						<g>
							<path fill="#B5B5B5" d="M209.5,302.1h-39.2c-0.9,0-1.7-0.7-1.7-1.7l0,0c0-0.9,0.7-1.7,1.7-1.7h39.2c0.9,0,1.7,0.7,1.7,1.7
								l0,0C211.2,301.4,210.4,302.1,209.5,302.1z"/>
							<path fill="#A9A9A9" d="M300,302.1h-82.3c-0.9,0-1.6-0.7-1.6-1.6v-0.2c0-0.9,0.7-1.6,1.6-1.6H300c0.9,0,1.6,0.7,1.6,1.6v0.2
								C301.5,301.4,300.8,302.1,300,302.1z"/>
						</g>
						<g>
							<path fill="#A9A9A9" d="M288.2,333.4h-19.5c-0.9,0-1.7-0.7-1.7-1.7l0,0c0-0.9,0.7-1.7,1.7-1.7h19.5c0.9,0,1.7,0.7,1.7,1.7
								l0,0C289.8,332.7,289.1,333.4,288.2,333.4z"/>
							<path fill="#B5B5B5" d="M261.6,333.4h-91.3c-0.9,0-1.7-0.7-1.7-1.7l0,0c0-0.9,0.7-1.7,1.7-1.7h91.3c0.9,0,1.7,0.7,1.7,1.7
								l0,0C263.3,332.7,262.6,333.4,261.6,333.4z"/>
						</g>
					</g>
				</g>
				<polygon fill="#D0D0D0" points="429.9,406.5 84.6,406.5 151.9,354.2 362.6,354.2 				"/>
				<g>
					
						<line fill="none" stroke="#ACACAC" stroke-width="0.9984" stroke-linecap="round" stroke-miterlimit="10" x1="136.7" y1="357.5" x2="146" y2="350.5"/>
					
						<line fill="none" stroke="#ACACAC" stroke-width="0.9984" stroke-linecap="round" stroke-miterlimit="10" x1="103.3" y1="382.6" x2="133.3" y2="360"/>
					<path fill="none" stroke="#ACACAC" stroke-width="0.9984" stroke-linecap="round" stroke-miterlimit="10" d="M120.2,417.9H76.4
						c-6.4,0-9.1-8.1-4-12l9.6-7.2"/>
					
						<line fill="none" stroke="#ACACAC" stroke-width="0.9984" stroke-linecap="round" stroke-miterlimit="10" x1="305" y1="417.9" x2="151.9" y2="417.9"/>
					
						<line fill="none" stroke="#ACACAC" stroke-width="0.9984" stroke-linecap="round" stroke-miterlimit="10" x1="406.7" y1="417.9" x2="332.7" y2="417.9"/>
					
						<line fill="none" stroke="#ACACAC" stroke-width="0.9984" stroke-linecap="round" stroke-miterlimit="10" x1="404.1" y1="378.2" x2="417.3" y2="388.2"/>
					
						<line fill="none" stroke="#ACACAC" stroke-width="0.9984" stroke-linecap="round" stroke-miterlimit="10" x1="376.1" y1="357.1" x2="401.4" y2="376.2"/>
				</g>
				<g>
					<polygon fill="#838383" points="173.4,359.1 161.9,359.1 166.1,355.8 177.1,355.8 					"/>
					<polygon fill="#838383" points="166.8,365.2 154.1,365.2 159,361.4 171.1,361.4 					"/>
					<polygon fill="#838383" points="186.2,365.2 173.5,365.2 177.4,361.4 189.5,361.4 					"/>
					<polygon fill="#838383" points="205.5,365.2 192.8,365.2 195.9,361.4 208,361.4 					"/>
					<polygon fill="#838383" points="224.9,365.2 212.2,365.2 214.3,361.4 226.4,361.4 					"/>
					<polygon fill="#838383" points="244.3,365.2 231.5,365.2 232.8,361.4 244.9,361.4 					"/>
					<polygon fill="#838383" points="263.6,365.2 250.9,365.2 251.2,361.4 263.3,361.4 					"/>
					<polygon fill="#838383" points="283,365.2 270.3,365.2 269.6,361.4 281.7,361.4 					"/>
					<polygon fill="#838383" points="302.3,365.2 289.6,365.2 288.1,361.4 300.2,361.4 					"/>
					<polygon fill="#838383" points="321.7,365.2 309,365.2 306.5,361.4 318.6,361.4 					"/>
					<polygon fill="#838383" points="341,365.2 328.3,365.2 325,361.4 337.1,361.4 					"/>
					<polygon fill="#838383" points="360.4,365.2 347.7,365.2 343.4,361.4 355.5,361.4 					"/>
					<polygon fill="#838383" points="159.7,371.6 146,371.6 151.6,367.2 164.6,367.2 					"/>
					<polygon fill="#838383" points="180.6,371.6 166.8,371.6 171.4,367.2 184.5,367.2 					"/>
					<polygon fill="#838383" points="201.4,371.6 187.7,371.6 191.3,367.2 204.3,367.2 					"/>
					<polygon fill="#838383" points="222.3,371.6 208.6,371.6 211.1,367.2 224.1,367.2 					"/>
					<polygon fill="#838383" points="243.2,371.6 229.5,371.6 230.9,367.2 243.9,367.2 					"/>
					<polygon fill="#838383" points="264.1,371.6 250.4,371.6 250.8,367.2 263.8,367.2 					"/>
					<polygon fill="#838383" points="285,371.6 271.3,371.6 270.6,367.2 283.6,367.2 					"/>
					<polygon fill="#838383" points="305.9,371.6 292.2,371.6 290.4,367.2 303.4,367.2 					"/>
					<polygon fill="#838383" points="326.8,371.6 313.1,371.6 310.2,367.2 323.2,367.2 					"/>
					<polygon fill="#838383" points="347.7,371.6 334,371.6 330.1,367.2 343.1,367.2 					"/>
					<polygon fill="#838383" points="368.6,371.6 354.8,371.6 349.9,367.2 362.9,367.2 					"/>
					<polygon fill="#838383" points="150.8,379.5 135.9,379.5 142.6,374.3 156.7,374.3 					"/>
					<polygon fill="#838383" points="173.6,379.5 158.7,379.5 164.1,374.3 178.2,374.3 					"/>
					<polygon fill="#838383" points="309.9,379.5 181.4,379.5 185.6,374.3 307,374.3 					"/>
					<polygon fill="#838383" points="333.1,379.5 318.1,379.5 314.8,374.3 328.9,374.3 					"/>
					<polygon fill="#838383" points="355.8,379.5 340.9,379.5 336.3,374.3 350.4,374.3 					"/>
					<polygon fill="#838383" points="378.6,379.5 363.7,379.5 357.8,374.3 371.9,374.3 					"/>
					<polygon fill="#838383" points="196.6,359.1 185.1,359.1 188.3,355.8 199.3,355.8 					"/>
					<polygon fill="#838383" points="213,359.1 201.5,359.1 204,355.8 214.9,355.8 					"/>
					<polygon fill="#838383" points="229.4,359.1 217.9,359.1 219.6,355.8 230.6,355.8 					"/>
					<polygon fill="#838383" points="245.8,359.1 234.3,359.1 235.3,355.8 246.3,355.8 					"/>
					<polygon fill="#838383" points="262.2,359.1 250.7,359.1 251,355.8 262,355.8 					"/>
					<polygon fill="#838383" points="278.6,359.1 267.1,359.1 266.7,355.8 277.6,355.8 					"/>
					<polygon fill="#838383" points="295.5,359.1 284,359.1 282.9,355.8 293.8,355.8 					"/>
					<polygon fill="#838383" points="321.5,359.1 310,359.1 307.7,355.8 318.6,355.8 					"/>
					<polygon fill="#838383" points="337,359.1 325.6,359.1 322.6,355.8 333.5,355.8 					"/>
					<polygon fill="#838383" points="352.6,359.1 341.1,359.1 337.5,355.8 348.4,355.8 					"/>
					<polygon fill="#A6A6A6" points="296.6,399.4 217.9,399.4 224.1,384.8 290.4,384.8 					"/>
				</g>
				<path fill="#B9B9B9" d="M424.8,412.3h-335c-2.8,0-5.1-2.3-5.1-5.1v-0.7h345.2v0.7C429.9,410,427.6,412.3,424.8,412.3z"/>
			</g>
		</g>
		<g opacity="0.85">
			<path fill="#AAAAAA" d="M302.3,319.7H217c-1.5,0-2.7-1.2-2.7-2.7V168.6c0-1.5,1.2-2.7,2.7-2.7h85.4c1.5,0,2.7,1.2,2.7,2.7V317
				C305,318.5,303.8,319.7,302.3,319.7z"/>
			<rect x="217.8" y="171.8" fill="#D9D9D9" width="83.8" height="128.6"/>
			<circle fill="#D9D9D9" cx="259.6" cy="310.4" r="5.1"/>
		</g>
		<g>
			<path fill="#989898" d="M151.8,250.2h-36.2c-6.3,0-11.4-5.1-11.4-11.4v-36.2c0-6.3,5.1-11.4,11.4-11.4h36.2
				c6.3,0,11.4,5.1,11.4,11.4v36.2C163.2,245.1,158.1,250.2,151.8,250.2z"/>
			<path fill="none" stroke="#989898" stroke-width="0.9984" stroke-miterlimit="10" d="M153.9,253.7h-40.4
				c-7.1,0-12.8-5.7-12.8-12.8v-40.4c0-7.1,5.7-12.8,12.8-12.8h40.4c7.1,0,12.8,5.7,12.8,12.8V241C166.7,248,161,253.7,153.9,253.7z
				"/>
			
				<text transform="matrix(1 0 0 1 122.1291 227.1826)" fill="#FFFFFF" font-family="'HurmeGeometricSans2-Black'" font-size="23.2685">JS</text>
		</g>
		<g>
			<path fill="#959595" d="M392.6,328.3h-36.2c-6.3,0-11.4-5.1-11.4-11.4v-36.2c0-6.3,5.1-11.4,11.4-11.4h36.2
				c6.3,0,11.4,5.1,11.4,11.4v36.2C404.1,323.2,398.9,328.3,392.6,328.3z"/>
			<path fill="none" stroke="#A9A9A9" stroke-width="0.9984" stroke-miterlimit="10" d="M394.8,331.8h-40.4
				c-7.1,0-12.8-5.7-12.8-12.8v-40.4c0-7.1,5.7-12.8,12.8-12.8h40.4c7.1,0,12.8,5.7,12.8,12.8V319
				C407.6,326.1,401.8,331.8,394.8,331.8z"/>
			<text transform="matrix(1 0 0 1 355.6044 302.6665)" fill="#FFFFFF" font-family="'HurmeGeometricSans2-Black'" font-size="12">REACT</text>
		</g>
		<g>
			<path fill="#ADADAD" d="M361.2,247.5h-25.6c-4.5,0-8.1-3.6-8.1-8.1v-25.6c0-4.5,3.6-8.1,8.1-8.1h25.6c4.5,0,8.1,3.6,8.1,8.1v25.6
				C369.3,243.9,365.6,247.5,361.2,247.5z"/>
			<path fill="none" stroke="#ADADAD" stroke-width="0.9984" stroke-miterlimit="10" d="M362.7,250H334c-5,0-9.1-4.1-9.1-9.1v-28.7
				c0-5,4.1-9.1,9.1-9.1h28.7c5,0,9.1,4.1,9.1,9.1v28.7C371.7,245.9,367.7,250,362.7,250z"/>
			<text transform="matrix(1 0 0 1 334.3893 230.6665)" fill="#FFFFFF" font-family="'HurmeGeometricSans2-Black'" font-size="12">LESS</text>
		</g>
		<g>
			<path fill="#A6A6A6" d="M221.2,184.6h-36.2c-6.3,0-11.4-5.1-11.4-11.4V137c0-6.3,5.1-11.4,11.4-11.4h36.2
				c6.3,0,11.4,5.1,11.4,11.4v36.2C232.7,179.4,227.5,184.6,221.2,184.6z"/>
			<path fill="none" stroke="#A6A6A6" stroke-width="0.9984" stroke-miterlimit="10" d="M223.4,188h-40.4c-7.1,0-12.8-5.7-12.8-12.8
				v-40.4c0-7.1,5.7-12.8,12.8-12.8h40.4c7.1,0,12.8,5.7,12.8,12.8v40.4C236.2,182.3,230.4,188,223.4,188z"/>
			<text transform="matrix(1 0 0 1 185.7226 157.6665)" fill="#FFFFFF" font-family="'HurmeGeometricSans2-Black'" font-size="12">HTML</text>
		</g>
		<g>
			<path fill="#C2C2C2" d="M180.1,325.7h-26.7c-4.7,0-8.4-3.8-8.4-8.4v-26.7c0-4.7,3.8-8.4,8.4-8.4h26.7c4.7,0,8.4,3.8,8.4,8.4v26.7
				C188.5,322,184.7,325.7,180.1,325.7z"/>
			<path fill="none" stroke="#C2C2C2" stroke-width="0.9984" stroke-miterlimit="10" d="M181.6,328.3h-29.9c-5.2,0-9.4-4.2-9.4-9.4
				V289c0-5.2,4.2-9.4,9.4-9.4h29.9c5.2,0,9.4,4.2,9.4,9.4v29.9C191.1,324.1,186.9,328.3,181.6,328.3z"/>
			<text transform="matrix(1 0 0 1 151.7226 308.3332)" fill="#FFFFFF" font-family="'HurmeGeometricSans2-Black'" font-size="12">SASS</text>
		</g>
		<circle fill="none" stroke="#B9B9B9" stroke-width="1.3313" stroke-miterlimit="10" cx="406.7" cy="343.2" r="2.6"/>
		<circle fill="none" stroke="#B9B9B9" stroke-width="1.3313" stroke-miterlimit="10" cx="368.6" cy="171.8" r="2.6"/>
		<circle fill="#A6A6A6" cx="390" cy="236.2" r="1.7"/>
		<circle fill="#A6A6A6" cx="128.4" cy="335.2" r="1.7"/>
		<circle fill="#A6A6A6" cx="149.8" cy="171.8" r="1.7"/>
		<circle fill="#A6A6A6" cx="378.6" cy="349.1" r="1.7"/>
		<circle fill="none" stroke="#B9B9B9" stroke-width="1.3313" stroke-miterlimit="10" cx="193.5" cy="200.5" r="2.6"/>
		<circle fill="none" stroke="#B9B9B9" stroke-width="1.3313" stroke-miterlimit="10" cx="100.7" cy="342.2" r="2.6"/>
		<circle fill="none" stroke="#B9B9B9" stroke-width="1.3313" stroke-miterlimit="10" cx="131.1" cy="171.8" r="2.6"/>
	</g>
</g>
<g id="DESIGNED_BY_FREEPIK">
</g>
</svg>
