<?xml version="1.0" encoding="utf-8"?>
<!-- Generator: Adobe Illustrator 18.0.0, SVG Export Plug-In . SVG Version: 6.00 Build 0)  -->
<!DOCTYPE svg PUBLIC "-//W3C//DTD SVG 1.1//EN" "http://www.w3.org/Graphics/SVG/1.1/DTD/svg11.dtd">
<svg version="1.1" xmlns="http://www.w3.org/2000/svg" xmlns:xlink="http://www.w3.org/1999/xlink" x="0px" y="0px"
	 viewBox="0 0 500 500" enable-background="new 0 0 500 500" xml:space="preserve">
<g id="BACKGROUND">
</g>
<g id="OBJECTS">
	<g opacity="0.1">
		<text transform="matrix(1 0 0 1 163.0295 63.8842)"><tspan x="0" y="0" fill="#F5F5F5" font-family="'Montserrat-Bold'" font-size="17">APP DEVELOPMENT</tspan><tspan x="42.9" y="19" fill="#F5F5F5" font-family="'Montserrat-Regular'" font-size="17">CONCEPT</tspan></text>
	</g>
	<g opacity="0.1">
		<g>
			<polygon fill="#F4F4F4" points="94.6,332 93.5,341.3 87,358.2 93,360 97.6,342.4 98.2,332.4 			"/>
			
				<linearGradient id="SVGID_1_" gradientUnits="userSpaceOnUse" x1="97.1176" y1="385.8202" x2="95.5789" y2="412.6372" gradientTransform="matrix(-1 0 0 1 183.987 0)">
				<stop  offset="3.252340e-03" style="stop-color:#232323"/>
				<stop  offset="0.9896" style="stop-color:#535353"/>
			</linearGradient>
			<polygon fill="url(#SVGID_1_)" points="80.7,376.8 83.6,406.3 82.6,432.2 92.7,432.2 93.2,430.3 86.3,429.3 90,406.4 93.3,377.9 
							"/>
			<polygon fill="#747474" points="77.4,376.5 75.1,401.6 59.7,422 61.5,431.6 66.1,431.6 63.4,429.6 62.9,423.4 77.6,406.9 
				90.9,377.3 			"/>
			<polygon fill="#949494" points="98.2,332.4 98,323.1 96.1,322.8 94.6,332 			"/>
			<g>
				<path fill="#949494" d="M79.9,345.4c-0.7,3.4-0.7,8.6,4.4,9.4c5.1,0.8,8.1-2.4,8.8-5.8c0.7-3.4-0.5-7.7-5.7-8.4
					C83.9,340.1,80.5,342.6,79.9,345.4z"/>
				<path fill="#2B2B2B" d="M83.6,354.5c-3.6-1-5-4.5-4.5-8c0.6-4.3,4.9-6.7,8.3-5.9c0.2,0,0.4,0.1,0.6,0.2c0.1,0.5,0,1.1-0.1,1.5
					c-0.6,1.7-2.1,3.1-3.8,3.6C84.1,345.8,83,353.4,83.6,354.5z"/>
				<path fill="#949494" d="M83.2,346.4c-0.5-0.1-1,0.1-1.5,0.3c-1.5,0.8-1,3,0.3,3.7c0.4,0.2,0.9,0.3,1.4,0.4c0.4,0,0.8,0,1.2-0.2
					c0.3-0.2,0.6-0.6,0.6-1c0.1-0.4,0-0.8-0.1-1.2C84.9,347.6,84.1,346.6,83.2,346.4z"/>
				
					<ellipse transform="matrix(-0.9369 0.3496 -0.3496 -0.9369 295.3407 634.1478)" fill="#F5F5F5" cx="90.4" cy="343.7" rx="1.8" ry="2.4"/>
			</g>
			<circle fill="#666666" cx="97.2" cy="321.8" r="2.1"/>
			<path fill="#F5F5F5" d="M105,336l-3.2,1.1c-1.3,3.8-3.5,7.2-6.3,10l-6,5.8l-7.4,5l-5.5,20.4l17.2,1.6l0.6-22.4l6.4-8
				c2.6-3.3,4.4-7.1,5.2-11.3L105,336z"/>
			<path fill="#F5F5F5" d="M113.1,285.2H89.2c-4.1,0-7.4,3.3-7.4,7.4v23.9c0,4.1,3.3,7.4,7.4,7.4h23.9c4.1,0,7.4-3.3,7.4-7.4v-23.9
				C120.5,288.5,117.2,285.2,113.1,285.2z"/>
			<circle fill="#949494" cx="107.7" cy="323.2" r="2.1"/>
			<polygon fill="#949494" points="101.4,338.1 105.7,339.6 109.1,324.2 106.6,323.6 			"/>
			<path fill="#949494" d="M110.5,299.7c0,5.4-9.8,19.8-9.8,19.8s-9.8-14.4-9.8-19.8c0-5.4,4.4-9.8,9.8-9.8
				C106.1,289.9,110.5,294.3,110.5,299.7z"/>
			<circle fill="#F5F5F5" cx="100.7" cy="298.9" r="4.7"/>
			
				<line opacity="0.5" fill="none" stroke="#535353" stroke-width="2" stroke-linecap="round" stroke-miterlimit="10" x1="51.4" y1="432" x2="127.4" y2="432"/>
		</g>
		<g>
			<path fill="#F5F5F5" d="M289.4,145h-84c-4.7,0-8.6,3.8-8.6,8.6v200.8c0,4.7,3.8,8.6,8.6,8.6h84c4.7,0,8.6-3.8,8.6-8.6V153.6
				C298,148.8,294.2,145,289.4,145z"/>
			<path fill="#2B2B2B" d="M289.4,145h-84c-4.7,0-8.6,3.8-8.6,8.6v8.7H298v-8.7C298,148.8,294.2,145,289.4,145z"/>
			<path fill="#2B2B2B" d="M196.9,343.5v11c0,4.7,3.8,8.6,8.6,8.6h84c4.7,0,8.6-3.8,8.6-8.6v-11H196.9z"/>
			<path fill="#949494" d="M282.1,168.2h-23.9c-4.1,0-7.4,3.3-7.4,7.4v23.9c0,4.1,3.3,7.4,7.4,7.4h23.9c4.1,0,7.4-3.3,7.4-7.4v-23.9
				C289.5,171.5,286.2,168.2,282.1,168.2z"/>
			<path fill="#C4C4C4" d="M282.1,285.7h-23.9c-4.1,0-7.4,3.3-7.4,7.4v23.9c0,4.1,3.3,7.4,7.4,7.4h23.9c4.1,0,7.4-3.3,7.4-7.4v-23.9
				C289.5,289,286.2,285.7,282.1,285.7z"/>
			<path fill="#949494" d="M236.4,285.7h-23.9c-4.1,0-7.4,3.3-7.4,7.4v23.9c0,4.1,3.3,7.4,7.4,7.4h23.9c4.1,0,7.4-3.3,7.4-7.4v-23.9
				C243.8,289,240.5,285.7,236.4,285.7z"/>
			
				<line opacity="0.5" fill="none" stroke="#535353" stroke-width="2" stroke-linecap="round" stroke-miterlimit="10" x1="196.4" y1="364" x2="305.5" y2="364"/>
		</g>
		<g>
			<g>
				<g>
					
						<rect x="289.4" y="327.8" transform="matrix(0.164 0.9865 -0.9865 0.164 599.622 -50.9949)" fill="#2B2B2B" width="81" height="1"/>
				</g>
				<g>
					
						<rect x="265" y="327.8" transform="matrix(0.164 0.9865 -0.9865 0.164 579.2343 -26.9482)" fill="#2B2B2B" width="81" height="1"/>
				</g>
				<g>
					<rect x="301.7" y="304.8" fill="#2B2B2B" width="24.6" height="1"/>
				</g>
				<g>
					<rect x="303.4" y="315.5" fill="#2B2B2B" width="24.6" height="1"/>
				</g>
				<g>
					<rect x="305.2" y="326.1" fill="#2B2B2B" width="24.6" height="1"/>
				</g>
				<g>
					<rect x="306.9" y="336.8" fill="#2B2B2B" width="24.6" height="1"/>
				</g>
				<g>
					<rect x="308.7" y="347.5" fill="#2B2B2B" width="24.6" height="1"/>
				</g>
				<g>
					<rect x="310.4" y="358.1" fill="#2B2B2B" width="24.6" height="1"/>
				</g>
			</g>
			<g>
				<g>
					
						<rect x="291" y="287.8" transform="matrix(0.9864 0.1641 -0.1641 0.9864 57.8148 -43.3851)" fill="#747474" width="1" height="81"/>
				</g>
				<g>
					
						<rect x="315.4" y="287.8" transform="matrix(0.9864 0.1641 -0.1641 0.9864 58.1652 -47.3993)" fill="#747474" width="1" height="81"/>
				</g>
				<g>
					<rect x="295.1" y="304.8" fill="#747474" width="24.6" height="1"/>
				</g>
				<g>
					<rect x="293.4" y="315.5" fill="#747474" width="24.6" height="1"/>
				</g>
				<g>
					<rect x="291.6" y="326.1" fill="#747474" width="24.6" height="1"/>
				</g>
				<g>
					<rect x="289.9" y="336.8" fill="#747474" width="24.6" height="1"/>
				</g>
				<g>
					<rect x="288.1" y="347.5" fill="#747474" width="24.6" height="1"/>
				</g>
				<g>
					<rect x="286.4" y="358.1" fill="#747474" width="24.6" height="1"/>
				</g>
			</g>
			<g>
				<rect x="296.2" y="287.1" fill="#535353" width="30" height="3"/>
			</g>
		</g>
		<g>
			<polygon fill="#F5F5F5" points="352.4,273.6 349.4,243.4 345.6,211.1 348.6,210.7 355.3,241.3 365.8,242.1 376.7,211.1 
				379.6,211.5 371.7,244.6 372.1,272.8 			"/>
			<path fill="#949494" d="M356.1,232.3c-0.8,2.9,0.5,7.5,3.4,8.3c2.9,0.8,6.3-2.6,7.1-5.5c0.8-2.9-0.9-5.9-3.8-6.7
				C359.9,227.7,356.9,229.4,356.1,232.3z"/>
			<path fill="#2A2A2A" d="M360,230.7c-0.6-0.2-1.4-0.6-1.7-1.1c0-0.1,0-0.1-0.1-0.2c1.3-0.9,3-1.3,4.6-0.9c2.9,0.8,4.6,3.8,3.8,6.7
				c-0.6,2.1-2.5,4.4-4.6,5.2c0-0.6,0.2-1.2,0.3-1.7c0.6-2.3,1.3-4.6,2-6.8C362.8,231.6,361.4,231.2,360,230.7z"/>
			<path fill="#949494" d="M363.3,235.1c0.4-0.3,0.9-0.4,1.4-0.2c0.1,0,0.2,0.1,0.3,0.2c0.2,0.2,0.3,0.5,0.3,0.8
				c-0.1,0.8-0.8,1.5-1.6,1.8c-0.2,0.1-0.5,0.1-0.7,0.1c-0.2,0-0.5-0.2-0.6-0.3C361.9,236.7,362.8,235.5,363.3,235.1z"/>
			<polygon fill="#747474" points="372.1,272.8 369.2,319.1 366,319.1 363.2,273.1 360.4,273.3 358.6,320.2 356.1,320.2 
				352.4,273.6 351.8,267.9 372,268.1 			"/>
			<polygon fill="#747474" points="369.2,319.1 376.2,319.9 376,321 365.6,321 366,319.1 			"/>
			<polygon fill="#747474" points="358.6,320.2 358.6,321.5 348.9,321.9 348.9,320.7 356.1,320.2 			"/>
			<path fill="#2A2A2A" d="M361.3,236.3c-1.8,0.2-3.2-1.6-4.9-1.8c-0.1,0-0.2,0-0.3,0c-0.1,0.1-0.2,0.2-0.3,0.3
				c-0.2,0.4-0.4,0.9-0.7,1.3c-0.2,0.4-0.5,0.9-0.6,1.4c-0.1,0.6,0,1.2,0.1,1.8c0.1,0.5,0.2,0.9,0.4,1.4c0.4,0.8,1.1,1.3,1.9,1.6
				c0.8,0.3,1.7,0.3,2.5,0.3c0.6-0.1,1.2-0.2,1.7-0.4c1.1-0.6,1.8-1.9,1.6-3.2c0-0.3-0.1-0.6-0.1-0.9c0-0.3,0.2-0.6,0.3-0.9
				c0.2-0.3,1.3-1.8,0.4-1.8c-0.3,0-0.7,0.5-0.9,0.6C362.1,236.1,361.7,236.2,361.3,236.3z"/>
			<g opacity="0.4">
				<polygon fill="#C4C4C4" points="372.9,221.8 377.2,221.8 379.6,211.5 376.7,211.1 				"/>
				<polygon fill="#C4C4C4" points="348.6,210.7 345.6,211.1 346.9,221.8 351,221.8 				"/>
			</g>
			<path fill="#747474" d="M420.3,178h-97.8c-4.8,0-8.7,3.9-8.7,8.7v14.6c0,4.8,3.9,8.7,8.7,8.7h97.8c4.8,0,8.7-3.9,8.7-8.7v-14.6
				C429,181.9,425.1,178,420.3,178z"/>
			<path fill="#F5F5F5" d="M417.4,178h-97.8c-4.8,0-8.7,3.9-8.7,8.7v14.6c0,4.8,3.9,8.7,8.7,8.7h97.8c4.8,0,8.7-3.9,8.7-8.7v-14.6
				C426.1,181.9,422.2,178,417.4,178z"/>
			<path fill="#C4C4C4" d="M418.8,202.6l-4.7-4.9c1.2-1.4,1.9-3.2,1.9-5.1c0-4.4-3.6-8-8-8c-4.4,0-8,3.6-8,8c0,4.4,3.6,8,8,8
				c1.6,0,3.2-0.5,4.6-1.4l4.7,4.9c0.2,0.2,0.5,0.3,0.7,0.3c0.3,0,0.5-0.1,0.7-0.3C419.2,203.6,419.2,203,418.8,202.6L418.8,202.6z
				 M408,186.7c3.2,0,5.9,2.6,5.9,5.9c0,3.2-2.6,5.9-5.9,5.9c-3.2,0-5.9-2.6-5.9-5.9C402.2,189.3,404.8,186.7,408,186.7L408,186.7z
				 M408,186.7"/>
			
				<line opacity="0.5" fill="none" stroke="#535353" stroke-width="2" stroke-linecap="round" stroke-miterlimit="10" x1="320.4" y1="322" x2="424.4" y2="322"/>
			<circle fill="#949494" cx="346.7" cy="209.4" r="2.5"/>
			<circle fill="#949494" cx="377.1" cy="210.1" r="2.5"/>
		</g>
		<g>
			<circle fill="#C4C4C4" cx="254.3" cy="218.5" r="2.8"/>
			<path fill="#747474" d="M248.6,205.5l-23.6-4.1c-4-0.7-7.9,2-8.6,6l-4.1,23.6c-0.7,4,2,7.9,6,8.6l23.6,4.1c4,0.7,7.9-2,8.6-6
				l4.1-23.6C255.3,210.1,252.6,206.2,248.6,205.5z"/>
			<g>
				<path fill="#747474" d="M134.5,339.2h17.3c0.4,0,0.8-0.2,0.9-0.6c0.2-0.4,0.1-0.8-0.2-1.1l-16.7-18l-1.5,1.4l15.1,16.3h-15
					V339.2z"/>
			</g>
			<g>
				<polygon fill="#6F6F6F" points="256.3,217.8 263.7,220.7 285.4,222.8 278.1,227.9 262.9,224.2 255.2,220.7 				"/>
				<circle fill="#C4C4C4" cx="276.8" cy="216.7" r="6.1"/>
				<linearGradient id="SVGID_2_" gradientUnits="userSpaceOnUse" x1="300.5927" y1="253.3708" x2="296.2225" y2="280.2647">
					<stop  offset="3.252340e-03" style="stop-color:#232323"/>
					<stop  offset="0.9896" style="stop-color:#535353"/>
				</linearGradient>
				<polygon fill="url(#SVGID_2_)" points="305.1,239.6 302.6,264.9 303.5,287.1 294.9,287.1 294.4,285.4 300.3,284.6 297.2,265 
					294.3,240.5 				"/>
				<path fill="#949494" d="M252.8,220.4c3.2,1.3,13.8,4.1,17.2,3.8l7.1-0.6l7.4-1.9l16.2,7.9l-8.6,12l-14.8-12.3l-8.7-0.4
					c-3.6-0.2-13.8-4-16.9-5.9L252.8,220.4z"/>
				<path fill="#2B2B2B" d="M283.4,213c-1.3-2.9-6.3-3.6-9.2-2.2c-0.2,0.1-0.3,0.2-0.5,0.3c0,0.5,0.2,0.9,0.4,1.3
					c0.8,1.4,2.4,2.3,4,2.4c0,0,0.1,0.3,0.3,0.8c0.2-0.2,0.4-0.4,0.6-0.5c0.4-0.2,0.9-0.2,1.4,0c1.5,0.4,1.4,2.5,0.4,3.3
					c-0.3,0.3-0.7,0.5-1.1,0.6c0,0-0.1,0-0.2,0c-0.1,2,0,2.2,0.4,2.8C282.4,220.1,285,216.7,283.4,213z"/>
				<polygon fill="#747474" points="331.6,236.3 317.1,242.6 300.4,229.7 291.8,241.5 317.1,249.3 332,239.2 335.2,242.8 
					336.3,241.7 				"/>
				<circle fill="#C4C4C4" cx="251.1" cy="221.3" r="2.8"/>
			</g>
			<g>
				<path fill="#747474" d="M133.6,150.6h19.6v196.7h-19.6V150.6z M151.2,152.6h-15.6v192.7h15.6V152.6z"/>
			</g>
			<rect x="130.9" y="336.7" fill="#F5F5F5" width="24.9" height="17.9"/>
			<g>
				<path fill="#747474" d="M134.5,265.3h17.3c0.4,0,0.8-0.2,0.9-0.6s0.1-0.8-0.2-1.1l-16.7-18l-1.5,1.4l15.1,16.3h-15V265.3z"/>
			</g>
			<g>
				<path fill="#747474" d="M134.5,283.7h17.3c0.4,0,0.8-0.2,0.9-0.6c0.2-0.4,0.1-0.8-0.2-1.1l-16.7-18l-1.5,1.4l15.1,16.3h-15
					V283.7z"/>
			</g>
			<g>
				<path fill="#747474" d="M134.5,302.2h17.3c0.4,0,0.8-0.2,0.9-0.6c0.2-0.4,0.1-0.8-0.2-1.1l-16.7-18l-1.5,1.4l15.1,16.3h-15
					V302.2z"/>
			</g>
			<g>
				<path fill="#747474" d="M134.5,320.7h17.3c0.4,0,0.8-0.2,0.9-0.6s0.1-0.8-0.2-1.1l-16.7-18l-1.5,1.4l15.1,16.3h-15V320.7z"/>
			</g>
			<g>
				<path fill="#747474" d="M134.5,247.2h17.3c0.4,0,0.8-0.2,0.9-0.6c0.2-0.4,0.1-0.8-0.2-1.1l-16.7-18l-1.5,1.4l15.1,16.3h-15
					V247.2z"/>
			</g>
			<g>
				<path fill="#747474" d="M134.5,229.2h17.3c0.4,0,0.8-0.2,0.9-0.6c0.2-0.4,0.1-0.8-0.2-1.1l-16.7-18l-1.5,1.4l15.1,16.3h-15
					V229.2z"/>
			</g>
			<g>
				<path fill="#747474" d="M134.5,211.1h17.3c0.4,0,0.8-0.2,0.9-0.6c0.2-0.4,0.1-0.8-0.2-1.1l-16.7-18l-1.5,1.4l15.1,16.3h-15
					V211.1z"/>
			</g>
			<g>
				<path fill="#747474" d="M134.5,193.1h17.3c0.4,0,0.8-0.2,0.9-0.6c0.2-0.4,0.1-0.8-0.2-1.1l-16.7-18l-1.5,1.4l15.1,16.3h-15
					V193.1z"/>
			</g>
			<g>
				<path fill="#747474" d="M134.5,175h17.3c0.4,0,0.8-0.2,0.9-0.6s0.1-0.8-0.2-1.1l-16.7-18l-1.5,1.4l15.1,16.3h-15V175z"/>
			</g>
			<g>
				<path fill="#747474" d="M134.5,157h17.3c0.4,0,0.8-0.2,0.9-0.6c0.2-0.4,0.1-0.8-0.2-1.1l-16.7-18l-1.5,1.4l15.1,16.3h-15V157z"
					/>
			</g>
			<rect x="133.7" y="130.6" fill="#2B2B2B" width="31.7" height="26.7"/>
			<rect x="86" y="130.6" fill="#2B2B2B" width="31.7" height="15.4"/>
			<g>
				<path fill="#747474" d="M86.5,132.6h156.7c0.6,0,1-0.4,1-1s-0.4-1-1-1H86.5c-0.6,0-1,0.4-1,1S86,132.6,86.5,132.6z"/>
			</g>
			<g>
				<rect x="234.9" y="136.3" fill="#747474" width="1" height="65"/>
			</g>
			<path fill="#D0D0D0" d="M142.5,130.9"/>
			<rect x="122.4" y="351.4" fill="#747474" width="41.9" height="7.9"/>
			<g>
				<path fill="#747474" d="M149.4,132.3c0.1,0,0.3,0,0.4-0.1l8.4-8.4h76.6l7.9,7.9c0.2,0.2,0.5,0.2,0.7,0c0.2-0.2,0.2-0.5,0-0.7
					l-8.1-8.1h-77.4l-8.6,8.6c-0.2,0.2-0.2,0.5,0,0.7C149.1,132.3,149.3,132.3,149.4,132.3z"/>
			</g>
			<g>
				<path fill="#747474" d="M85.9,132.3c0.2,0,0.4-0.1,0.4-0.3l8.4-16h20.3l7.9,15.5c0.1,0.2,0.4,0.3,0.7,0.2
					c0.2-0.1,0.3-0.4,0.2-0.7l-8.1-16H94.1l-8.6,16.5c-0.1,0.2,0,0.5,0.2,0.7C85.7,132.3,85.8,132.3,85.9,132.3z"/>
			</g>
			<circle fill="#F5F5F5" cx="235.4" cy="136.3" r="3.7"/>
			<g>
				<path fill="#747474" d="M213.7,123.8c0.2,0,0.4-0.1,0.5-0.4c0.1-0.3-0.1-0.5-0.3-0.6l-74-22.6c-0.1,0-0.2,0-0.3,0l-35.1,14.8
					c-0.3,0.1-0.4,0.4-0.3,0.7c0.1,0.3,0.4,0.4,0.7,0.3l34.9-14.7l73.9,22.5C213.6,123.8,213.7,123.8,213.7,123.8z"/>
			</g>
			<g>
				<path fill="#747474" d="M151.3,132.4c0.1,0,0.2,0,0.4-0.1c0.5-0.2,0.8-0.8,0.6-1.3l-11.7-30.7c-0.2-0.4-0.6-0.7-1-0.6
					c-0.4,0-0.8,0.4-0.9,0.8l-6,29.9c-0.1,0.5,0.2,1.1,0.8,1.2c0.5,0.1,1.1-0.2,1.2-0.8l5.3-26.5l10.4,27.4
					C150.6,132.1,150.9,132.4,151.3,132.4z"/>
			</g>
			<circle fill="#CDCDCD" cx="139.7" cy="100.7" r="2"/>
			<g>
				<path fill="#747474" d="M224.3,132.4c0.1,0,0.2,0,0.3-0.1l9.8-7.9v7.4c0,0.3,0.2,0.5,0.5,0.5c0.3,0,0.5-0.2,0.5-0.5v-8.5
					c0-0.2-0.1-0.4-0.3-0.5c-0.2-0.1-0.4-0.1-0.5,0.1l-10.6,8.6c-0.2,0.2-0.2,0.5-0.1,0.7C224,132.4,224.1,132.4,224.3,132.4z"/>
			</g>
			<g>
				<path fill="#747474" d="M214.8,132.4c0.1,0,0.2,0,0.3-0.1l9.8-7.9v7.4c0,0.3,0.2,0.5,0.5,0.5c0.3,0,0.5-0.2,0.5-0.5v-8.5
					c0-0.2-0.1-0.4-0.3-0.5c-0.2-0.1-0.4-0.1-0.5,0.1l-10.6,8.6c-0.2,0.2-0.2,0.5-0.1,0.7C214.5,132.4,214.6,132.4,214.8,132.4z"/>
			</g>
			<g>
				<path fill="#747474" d="M205.3,132.4c0.1,0,0.2,0,0.3-0.1l9.8-7.9v7.4c0,0.3,0.2,0.5,0.5,0.5c0.3,0,0.5-0.2,0.5-0.5v-8.5
					c0-0.2-0.1-0.4-0.3-0.5c-0.2-0.1-0.4-0.1-0.5,0.1l-10.6,8.6c-0.2,0.2-0.2,0.5-0.1,0.7C205,132.4,205.1,132.4,205.3,132.4z"/>
			</g>
			<g>
				<path fill="#747474" d="M195.8,132.4c0.1,0,0.2,0,0.3-0.1l9.8-7.9v7.4c0,0.3,0.2,0.5,0.5,0.5c0.3,0,0.5-0.2,0.5-0.5v-8.5
					c0-0.2-0.1-0.4-0.3-0.5c-0.2-0.1-0.4-0.1-0.5,0.1l-10.6,8.6c-0.2,0.2-0.2,0.5-0.1,0.7C195.5,132.4,195.6,132.4,195.8,132.4z"/>
			</g>
			<g>
				<path fill="#747474" d="M186.3,132.4c0.1,0,0.2,0,0.3-0.1l9.8-7.9v7.4c0,0.3,0.2,0.5,0.5,0.5s0.5-0.2,0.5-0.5v-8.5
					c0-0.2-0.1-0.4-0.3-0.5c-0.2-0.1-0.4-0.1-0.5,0.1l-10.6,8.6c-0.2,0.2-0.2,0.5-0.1,0.7C186,132.4,186.1,132.4,186.3,132.4z"/>
			</g>
			<g>
				<path fill="#747474" d="M176.8,132.4c0.1,0,0.2,0,0.3-0.1l9.8-7.9v7.4c0,0.3,0.2,0.5,0.5,0.5s0.5-0.2,0.5-0.5v-8.5
					c0-0.2-0.1-0.4-0.3-0.5c-0.2-0.1-0.4-0.1-0.5,0.1l-10.6,8.6c-0.2,0.2-0.2,0.5-0.1,0.7C176.5,132.4,176.6,132.4,176.8,132.4z"/>
			</g>
			<g>
				<path fill="#747474" d="M167.3,132.4c0.1,0,0.2,0,0.3-0.1l9.8-7.9v7.4c0,0.3,0.2,0.5,0.5,0.5c0.3,0,0.5-0.2,0.5-0.5v-8.5
					c0-0.2-0.1-0.4-0.3-0.5c-0.2-0.1-0.4-0.1-0.5,0.1l-10.6,8.6c-0.2,0.2-0.2,0.5-0.1,0.7C167,132.4,167.2,132.4,167.3,132.4z"/>
			</g>
			<g>
				<path fill="#747474" d="M157.8,132.4c0.1,0,0.2,0,0.3-0.1l9.8-7.9v7.4c0,0.3,0.2,0.5,0.5,0.5c0.3,0,0.5-0.2,0.5-0.5v-8.5
					c0-0.2-0.1-0.4-0.3-0.5c-0.2-0.1-0.4-0.1-0.5,0.1l-10.6,8.6c-0.2,0.2-0.2,0.5-0.1,0.7C157.5,132.4,157.7,132.4,157.8,132.4z"/>
			</g>
			<g>
				<path fill="#747474" d="M101.7,132.4c0.1,0,0.3-0.1,0.4-0.2l12.8-15.1v14.6c0,0.3,0.2,0.5,0.5,0.5c0.3,0,0.5-0.2,0.5-0.5v-16
					c0-0.2-0.1-0.4-0.3-0.5c-0.2-0.1-0.4,0-0.6,0.1l-13.6,16.1c-0.2,0.2-0.2,0.5,0.1,0.7C101.4,132.4,101.6,132.4,101.7,132.4z"/>
			</g>
			<g>
				<path fill="#747474" d="M91.9,132.4c0.2,0,0.3-0.1,0.4-0.2l9.7-14.7v14.3c0,0.3,0.2,0.5,0.5,0.5c0.3,0,0.5-0.2,0.5-0.5v-16
					c0-0.2-0.1-0.4-0.4-0.5c-0.2-0.1-0.4,0-0.6,0.2l-10.6,16.1c-0.2,0.2-0.1,0.5,0.1,0.7C91.7,132.4,91.8,132.4,91.9,132.4z"/>
			</g>
			<circle fill="#2B2B2B" cx="235.4" cy="202.6" r="3.1"/>
			
				<line opacity="0.5" fill="none" stroke="#535353" stroke-width="2" stroke-linecap="round" stroke-miterlimit="10" x1="104.4" y1="360" x2="180.4" y2="360"/>
		</g>
		<g>
			<polygon fill="#949494" points="420.8,392.3 419.7,376.7 421.4,365.1 427.4,331.1 424.5,330.7 417.9,360.7 407.6,361.5 
				397,331.1 394.1,331.5 401.9,364 404.6,376.4 404.3,391.5 			"/>
			<polygon fill="#2B2B2B" points="406.6,350.4 405.6,359.4 411.7,359.9 415.5,350.4 			"/>
			<circle fill="#F5F5F5" cx="411.7" cy="353.7" r="6.2"/>
			<path fill="#535353" d="M423.1,293.2h-23.9c-4.1,0-7.4,3.3-7.4,7.4v23.9c0,4.1,3.3,7.4,7.4,7.4h23.9c4.1,0,7.4-3.3,7.4-7.4v-23.9
				C430.5,296.5,427.2,293.2,423.1,293.2z"/>
			<path fill="#2B2B2B" d="M414,353.3c0.1,0.1,0.3,0.1,0.4,0.1c0.1,0,0.2-0.2,0.3-0.3c0.3-0.4,1-0.4,1.4,0c0.4,0.4,0.4,1,0.2,1.5
				c-0.3,0.5-0.8,0.7-1.3,0.8c-0.3,1.2-0.5,2.5-0.4,3.8c0.8,0.1,1.7,0.1,2.5,0.2c0.2,0,0.3,0,0.5-0.1c0.1-0.1,0.2-0.3,0.2-0.4
				c0.3-1.5,0.5-2.9,0.5-4.4c0-1.4-0.2-2.9-0.9-4.2c-0.9-1.5-4.6-3.9-6.4-2.6C408.9,349.1,412.6,352.6,414,353.3z"/>
			<path fill="#2B2B2B" d="M408.9,351.2c-1,1-2.4,1.8-3.9,1.9c-0.1-1.6,0.6-3.3,1.9-4.3c0.7-0.6,3-1.9,4-1.3
				C411.9,348.1,409.6,350.5,408.9,351.2z"/>
			<polygon fill="#535353" points="420.2,381.2 404.5,380.5 392.4,434.6 386.8,431.2 393.6,439.5 409.7,394.9 409.5,415.1 
				420.4,429.6 421.1,434.8 421.4,437 423.3,436.8 423.7,428.8 415.2,415.1 421.2,392.3 			"/>
			<polygon fill="#F5F5F5" points="421.2,345.8 424.6,347 427.4,331.1 424.5,330.7 			"/>
			<polygon fill="#F5F5F5" points="401.4,343.7 397.4,345.2 394.1,331.5 397,331.1 			"/>
			<polygon fill="#F5F5F5" points="414.7,361 411.8,366.2 410.3,361.3 			"/>
			<circle fill="#F5F5F5" cx="395.3" cy="329.5" r="2.5"/>
			<circle fill="#F5F5F5" cx="426.2" cy="329.9" r="2.5"/>
			<linearGradient id="SVGID_3_" gradientUnits="userSpaceOnUse" x1="406.5065" y1="389.7447" x2="397.9261" y2="411.1955">
				<stop  offset="0" style="stop-color:#232323;stop-opacity:0.8"/>
				<stop  offset="0.9896" style="stop-color:#535353;stop-opacity:0"/>
			</linearGradient>
			<path fill="url(#SVGID_3_)" d="M405.3,407.1l3.8-10.5l0.4-3.3l-5-12.8l-5.3,23.5C401.5,405.2,403.7,406.3,405.3,407.1z"/>
			<g>
				<g>
					<circle fill="#F5F5F5" cx="411.1" cy="306" r="5.1"/>
					<path fill="#F5F5F5" d="M421,321.4c-0.1-5.3-4.4-9.5-9.7-9.5s-9.6,4.3-9.7,9.5H421z"/>
				</g>
			</g>
			
				<line opacity="0.5" fill="none" stroke="#535353" stroke-width="2" stroke-linecap="round" stroke-miterlimit="10" x1="372.6" y1="438.5" x2="448.6" y2="438.5"/>
		</g>
		
			<line opacity="0.5" fill="none" stroke="#535353" stroke-width="2" stroke-linecap="round" stroke-miterlimit="10" x1="270.6" y1="368" x2="346.6" y2="368"/>
		<g>
			<path fill="#535353" d="M192.1,244.2h-23.9c-4.1,0-7.4,3.3-7.4,7.4v23.9c0,4.1,3.3,7.4,7.4,7.4h23.9c4.1,0,7.4-3.3,7.4-7.4v-23.9
				C199.5,247.5,196.2,244.2,192.1,244.2z"/>
			<polygon fill="#F5F5F5" points="170.1,345.8 167.1,315.8 163.4,283.7 166.3,283.3 173,313.7 183.4,314.6 194.2,283.7 
				197.1,284.1 189.2,317.1 189.6,345 			"/>
			<circle fill="#949494" cx="165.5" cy="282.1" r="2.5"/>
			<circle fill="#949494" cx="194.6" cy="282.9" r="2.5"/>
			<circle fill="#949494" cx="178.4" cy="304.6" r="6.4"/>
			<circle fill="#2B2B2B" cx="178.4" cy="305.6" r="6.4"/>
			<polygon fill="#747474" points="189.6,345 186.8,391 183.6,391 180.9,345.3 178,345.5 176.3,392.1 173.8,392 170.1,345.8 
				169.5,340.1 189.6,340.4 			"/>
			<polygon fill="#747474" points="186.8,391 193.8,391.8 193.5,392.8 183.3,392.8 183.6,391 			"/>
			<polygon fill="#747474" points="176.3,392.1 176.3,393.4 166.7,393.8 166.7,392.6 173.8,392 			"/>
			
				<line opacity="0.5" fill="none" stroke="#535353" stroke-width="2" stroke-linecap="round" stroke-miterlimit="10" x1="155.6" y1="393.5" x2="211.6" y2="393.5"/>
		</g>
		<g>
			<path fill="#4D4D4D" d="M264.9,404.5c0,0.1,0,0.2,0,0.2c0,0,0,0,0,0.1c0,0.1,0,0.1-0.1,0.2c0,0,0,0,0,0c0,0.1-0.1,0.1-0.2,0.2
				c0,0,0,0,0,0c-0.1,0.1-0.1,0.1-0.2,0.2c0,0,0,0,0,0c-0.1,0.1-0.2,0.1-0.3,0.2c0,0-0.1,0-0.1,0.1c-0.1,0.1-0.2,0.1-0.3,0.2
				c0,0-0.1,0-0.1,0.1c-0.1,0-0.2,0.1-0.3,0.1c0,0-0.1,0-0.1,0.1c-0.2,0.1-0.3,0.1-0.5,0.2l-17.1,5.9c-0.2,0.1-0.3,0.1-0.5,0.1
				c-0.3,0.1-0.5,0.1-0.8,0.2c-0.3,0.1-0.7,0.1-1,0.2c-0.2,0-0.4,0.1-0.6,0.1c-0.3,0-0.5,0.1-0.8,0.1c-0.1,0-0.1,0-0.2,0
				c-0.4,0-0.9,0-1.3,0c0,0,0,0,0,0c-0.5,0-0.9,0-1.4,0c0,0,0,0,0,0c-0.5,0-0.9-0.1-1.3-0.1c0,0,0,0,0,0c-0.4-0.1-0.8-0.1-1.2-0.2
				c0,0,0,0,0,0c-0.4-0.1-0.8-0.2-1.1-0.3l-16.8-5.8c-0.1,0-0.2-0.1-0.3-0.1c-0.1,0-0.2-0.1-0.2-0.1c-0.1,0-0.1-0.1-0.2-0.1
				c-0.1,0-0.1-0.1-0.2-0.1c-0.1,0-0.1-0.1-0.2-0.1c-0.1,0-0.1-0.1-0.2-0.1c-0.1,0-0.1-0.1-0.1-0.1c-0.1,0-0.1-0.1-0.2-0.1
				c0,0-0.1-0.1-0.1-0.1c0,0-0.1-0.1-0.1-0.1c0,0-0.1-0.1-0.1-0.1c0,0,0-0.1-0.1-0.1c0,0,0-0.1-0.1-0.1c-0.1-0.1-0.1-0.2-0.1-0.4
				l0.1,7.5c0,0.1,0,0.2,0.1,0.4c0,0,0,0.1,0.1,0.1c0,0,0,0.1,0.1,0.1c0,0,0.1,0.1,0.1,0.1c0,0,0.1,0.1,0.1,0.1c0,0,0.1,0.1,0.1,0.1
				c0,0,0.1,0.1,0.1,0.1c0.1,0,0.1,0.1,0.2,0.1c0,0,0.1,0.1,0.1,0.1c0.1,0,0.1,0.1,0.2,0.1c0,0,0.1,0,0.2,0.1c0.1,0,0.2,0.1,0.3,0.1
				c0.1,0,0.1,0,0.2,0.1c0.1,0,0.2,0.1,0.3,0.1c0,0,0,0,0,0l16.8,5.8c0.2,0.1,0.4,0.1,0.6,0.2c0.2,0,0.3,0.1,0.5,0.1c0,0,0,0,0,0
				c0,0,0,0,0,0c0.1,0,0.3,0.1,0.4,0.1c0.1,0,0.3,0.1,0.5,0.1c0.1,0,0.3,0,0.4,0.1c0,0,0,0,0,0c0,0,0,0,0,0c0.1,0,0.3,0,0.4,0.1
				c0.1,0,0.3,0,0.4,0c0.1,0,0.3,0,0.4,0c0,0,0,0,0,0c0,0,0,0,0,0c0.2,0,0.3,0,0.5,0c0.2,0,0.3,0,0.5,0c0.1,0,0.3,0,0.4,0
				c0,0,0,0,0,0c0,0,0,0,0,0c0.2,0,0.3,0,0.5,0c0.2,0,0.4,0,0.6,0c0.1,0,0.1,0,0.2,0c0.1,0,0.1,0,0.2,0c0.1,0,0.2,0,0.3,0
				c0.2,0,0.3,0,0.5-0.1c0.2,0,0.4,0,0.6-0.1c0.1,0,0.1,0,0.2,0c0.2,0,0.5-0.1,0.7-0.1c0,0,0.1,0,0.1,0c0.3-0.1,0.5-0.1,0.8-0.2
				c0.1,0,0.3-0.1,0.4-0.1c0,0,0.1,0,0.1,0l17.1-5.9c0.2-0.1,0.3-0.1,0.5-0.2c0,0,0,0,0,0c0,0,0.1,0,0.1-0.1c0.1,0,0.2-0.1,0.3-0.1
				c0,0,0,0,0.1,0c0,0,0.1,0,0.1-0.1c0,0,0.1-0.1,0.1-0.1c0,0,0.1,0,0.1-0.1c0,0,0.1,0,0.1-0.1c0,0,0,0,0.1,0
				c0.1-0.1,0.1-0.1,0.2-0.2c0,0,0,0,0,0c0,0,0,0,0,0c0,0,0.1-0.1,0.1-0.1c0,0,0,0,0.1-0.1c0,0,0,0,0,0c0,0,0,0,0,0
				c0-0.1,0.1-0.1,0.1-0.2c0,0,0,0,0,0c0,0,0,0,0,0c0,0,0-0.1,0.1-0.1c0,0,0-0.1,0-0.1c0,0,0,0,0-0.1c0,0,0,0,0,0c0-0.1,0-0.1,0-0.2
				c0,0,0,0,0,0L264.9,404.5z"/>
			<g>
				<path fill="#949494" d="M262.7,402.8c2.9,1,2.8,2.6-0.1,3.6l-17.1,5.9c-2.9,1-7.6,1-10.5,0l-16.8-5.8c-2.9-1-2.8-2.6,0.1-3.6
					l17.1-5.9c2.9-1,7.6-1,10.5,0L262.7,402.8z"/>
			</g>
		</g>
		<g>
			<path fill="#2B2B2B" d="M331,398.1c0,0.1,0,0.2,0,0.2c0,0,0,0,0,0.1c0,0.1,0,0.1-0.1,0.2c0,0,0,0,0,0c0,0.1-0.1,0.1-0.2,0.2
				c0,0,0,0,0,0c-0.1,0.1-0.1,0.1-0.2,0.2c0,0,0,0,0,0c-0.1,0.1-0.2,0.1-0.3,0.2c0,0-0.1,0-0.1,0.1c-0.1,0.1-0.2,0.1-0.3,0.2
				c0,0-0.1,0-0.1,0.1c-0.1,0-0.2,0.1-0.3,0.1c0,0-0.1,0-0.1,0.1c-0.2,0.1-0.3,0.1-0.5,0.2l-17.1,5.9c-0.2,0.1-0.3,0.1-0.5,0.1
				c-0.3,0.1-0.5,0.1-0.8,0.2c-0.3,0.1-0.7,0.1-1,0.2c-0.2,0-0.4,0.1-0.6,0.1c-0.3,0-0.5,0.1-0.8,0.1c-0.1,0-0.1,0-0.2,0
				c-0.4,0-0.9,0-1.3,0c0,0,0,0,0,0c-0.5,0-0.9,0-1.4,0c0,0,0,0,0,0c-0.5,0-0.9-0.1-1.3-0.1c0,0,0,0,0,0c-0.4-0.1-0.8-0.1-1.2-0.2
				c0,0,0,0,0,0c-0.4-0.1-0.8-0.2-1.1-0.3l-16.8-5.8c-0.1,0-0.2-0.1-0.3-0.1c-0.1,0-0.2-0.1-0.2-0.1c-0.1,0-0.1-0.1-0.2-0.1
				c-0.1,0-0.1-0.1-0.2-0.1c-0.1,0-0.1-0.1-0.2-0.1c-0.1,0-0.1-0.1-0.2-0.1c-0.1,0-0.1-0.1-0.1-0.1c-0.1,0-0.1-0.1-0.2-0.1
				c0,0-0.1-0.1-0.1-0.1c0,0-0.1-0.1-0.1-0.1c0,0-0.1-0.1-0.1-0.1c0,0,0-0.1-0.1-0.1c0,0,0-0.1-0.1-0.1c-0.1-0.1-0.1-0.2-0.1-0.4
				l0.1,7.5c0,0.1,0,0.2,0.1,0.4c0,0,0,0.1,0.1,0.1c0,0,0,0.1,0.1,0.1c0,0,0.1,0.1,0.1,0.1c0,0,0.1,0.1,0.1,0.1c0,0,0.1,0.1,0.1,0.1
				c0,0,0.1,0.1,0.1,0.1c0.1,0,0.1,0.1,0.2,0.1c0,0,0.1,0.1,0.1,0.1c0.1,0,0.1,0.1,0.2,0.1c0,0,0.1,0,0.2,0.1c0.1,0,0.2,0.1,0.3,0.1
				c0.1,0,0.1,0,0.2,0.1c0.1,0,0.2,0.1,0.3,0.1c0,0,0,0,0,0l16.8,5.8c0.2,0.1,0.4,0.1,0.6,0.2c0.2,0,0.3,0.1,0.5,0.1c0,0,0,0,0,0
				c0,0,0,0,0,0c0.1,0,0.3,0.1,0.4,0.1c0.1,0,0.3,0.1,0.5,0.1c0.1,0,0.3,0,0.4,0.1c0,0,0,0,0,0c0,0,0,0,0,0c0.1,0,0.3,0,0.4,0.1
				c0.1,0,0.3,0,0.4,0c0.1,0,0.3,0,0.4,0c0,0,0,0,0,0c0,0,0,0,0,0c0.2,0,0.3,0,0.5,0c0.2,0,0.3,0,0.5,0c0.1,0,0.3,0,0.4,0
				c0,0,0,0,0,0c0,0,0,0,0,0c0.2,0,0.3,0,0.5,0c0.2,0,0.4,0,0.6,0c0.1,0,0.1,0,0.2,0c0.1,0,0.1,0,0.2,0c0.1,0,0.2,0,0.3,0
				c0.2,0,0.3,0,0.5-0.1c0.2,0,0.4,0,0.6-0.1c0.1,0,0.1,0,0.2,0c0.2,0,0.5-0.1,0.7-0.1c0,0,0.1,0,0.1,0c0.3-0.1,0.5-0.1,0.8-0.2
				c0.1,0,0.3-0.1,0.4-0.1c0,0,0.1,0,0.1,0l17.1-5.9c0.2-0.1,0.3-0.1,0.5-0.2c0,0,0,0,0,0c0,0,0.1,0,0.1-0.1c0.1,0,0.2-0.1,0.3-0.1
				c0,0,0,0,0.1,0c0,0,0.1,0,0.1-0.1c0,0,0.1-0.1,0.1-0.1c0,0,0.1,0,0.1-0.1c0,0,0.1,0,0.1-0.1c0,0,0,0,0.1,0
				c0.1-0.1,0.1-0.1,0.2-0.2c0,0,0,0,0,0c0,0,0,0,0,0c0,0,0.1-0.1,0.1-0.1c0,0,0,0,0.1-0.1c0,0,0,0,0,0c0,0,0,0,0,0
				c0-0.1,0.1-0.1,0.1-0.2c0,0,0,0,0,0c0,0,0,0,0,0c0,0,0-0.1,0.1-0.1c0,0,0-0.1,0-0.1c0,0,0,0,0-0.1c0,0,0,0,0,0c0-0.1,0-0.1,0-0.2
				c0,0,0,0,0,0L331,398.1z"/>
			<g>
				<path fill="#747474" d="M328.8,396.3c2.9,1,2.8,2.6-0.1,3.6l-17.1,5.9c-2.9,1-7.6,1-10.5,0l-16.8-5.8c-2.9-1-2.8-2.6,0.1-3.6
					l17.1-5.9c2.9-1,7.6-1,10.5,0L328.8,396.3z"/>
			</g>
		</g>
	</g>
</g>
<g id="DESIGNED_BY_FREEPIK" display="none">
</g>
</svg>
