<?xml version="1.0" encoding="utf-8"?>
<!-- Generator: Adobe Illustrator 18.0.0, SVG Export Plug-In . SVG Version: 6.00 Build 0)  -->
<!DOCTYPE svg PUBLIC "-//W3C//DTD SVG 1.1//EN" "http://www.w3.org/Graphics/SVG/1.1/DTD/svg11.dtd">
<svg version="1.1" id="Layer_1" xmlns="http://www.w3.org/2000/svg" xmlns:xlink="http://www.w3.org/1999/xlink" x="0px" y="0px"
	 viewBox="0 0 1200 1200" enable-background="new 0 0 1200 1200" xml:space="preserve">
<g opacity="0.1">
	<path fill="#FFFFFF" d="M906,601.6c0,168.3-136.4,304.7-304.7,304.7c-168.3,0-304.7-136.4-304.7-304.7
		c0-168.3,136.4-304.7,304.7-304.7C769.6,296.9,906,433.3,906,601.6z"/>
	<g>
		<g>
			<path fill="#FFFFFF" d="M206.2,606.3c-1.2-107.8,41.3-215.8,126.4-294.7c85.2-78.9,196.1-113,303.5-103.6l2.9-2.7
				c-7.5-0.7-15-1.2-22.6-1.5c-106.2-4.1-207.7,33.5-285.7,105.7c-78,72.2-123.2,170.5-127.2,276.8c-0.3,7.6-0.3,15.1-0.2,22.6
				L206.2,606.3z"/>
			<path fill="#FFFFFF" d="M942.5,402l2.1-2c-14.4-24.5-31.6-47.6-51.4-68.9c-28.1-30.4-60.2-55.7-95.1-75.6l-2.2,2.1
				c34.7,19.6,66.9,44.7,95.4,75.4C911.2,354.5,928.2,377.6,942.5,402z"/>
			<path fill="#FFFFFF" d="M993.3,552.3c15.2,122-26.5,249.4-123.4,339.2c-159.9,148.1-410.5,138.5-558.6-21.4
				c-28.5-30.7-51.1-64.8-67.9-100.8l-2.2,2.1c17.2,36.4,40,70.3,68.2,100.6c72.2,78,170.5,123.2,276.8,127.2
				c106.2,4.1,207.7-33.5,285.7-105.7c78-72.2,123.2-170.5,127.2-276.8c0.9-22.6-0.2-45-3-66.9L993.3,552.3z"/>
		</g>
		<g>
			<path fill="#FFFFFF" d="M314,444.1c12.1-22,26.9-43,44.5-62.4C477.2,250.5,678.8,238,812.9,351.5l1.8-1.9
				c-64.2-54.4-145.3-82-229.7-77.8c-88.1,4.4-169.2,42.8-228.4,108.2c-17.9,19.8-33.2,41.3-45.6,64.2H314z"/>
			<path fill="#FFFFFF" d="M274.4,582.7h-2.8c-0.6,11.7-0.7,23.4-0.1,35.2c4.2,84.4,39.6,162.4,100.1,220.9l1.8-1.9
				C302.6,768.3,269.1,674.8,274.4,582.7z"/>
			<path fill="#FFFFFF" d="M891.7,444.1c-3.3-6.1-6.8-12.1-10.6-18l-1.9,2.1c3.3,5.2,6.3,10.5,9.3,15.9H891.7z"/>
			<path fill="#FFFFFF" d="M931,582.7h-2.8c4.9,84.7-22.8,171.1-84.1,238.8c-100.4,110.9-260,136.9-387.9,73.8l-1.9,2.1
				c50.1,25,105.9,36.8,163.3,34c88.1-4.4,169.2-42.8,228.4-108.1c59.2-65.4,89.4-149.9,85.1-238C931.1,584.4,931,583.5,931,582.7z"
				/>
		</g>
		<g>
			<path fill="#FFFFFF" d="M735,929.8c4.8-2,9.7-4.2,14.4-6.4l-1.1-2.4c-4.7,2.2-9.5,4.3-14.3,6.3L735,929.8z"/>
			<path fill="#FFFFFF" d="M314.6,812.4l-2.1,1.6c3.1,4.2,6.4,8.4,9.7,12.4l2-1.7C320.9,820.7,317.7,816.5,314.6,812.4z"/>
			<path fill="#FFFFFF" d="M297.1,786.6l-2.2,1.4c2.7,4.4,5.6,8.9,8.5,13.2l2.2-1.5C302.7,795.4,299.8,791,297.1,786.6z"/>
			<path fill="#FFFFFF" d="M259.2,701.3l-2.5,0.7c1.5,5,3.1,10.1,4.8,15l2.5-0.8C262.2,711.3,260.7,706.3,259.2,701.3z"/>
			<path fill="#FFFFFF" d="M356.1,858.9l-1.8,1.9c3.8,3.6,7.7,7.1,11.7,10.5l1.7-2C363.8,865.9,359.9,862.4,356.1,858.9z"/>
			<path fill="#FFFFFF" d="M282,759.4l-2.3,1.2c2.3,4.7,4.8,9.3,7.3,13.9l2.3-1.3C286.7,768.7,284.3,764,282,759.4z"/>
			<path fill="#FFFFFF" d="M269.3,730.9l-2.4,1c1.9,4.9,3.9,9.7,6.1,14.5l2.4-1.1C273.2,740.5,271.2,735.7,269.3,730.9z"/>
			<path fill="#FFFFFF" d="M705.4,940.6c5-1.6,10-3.3,14.9-5.1l-0.9-2.5c-4.9,1.8-9.8,3.5-14.8,5L705.4,940.6z"/>
			<path fill="#FFFFFF" d="M643.8,951.6l0.3,2.6c5.2-0.7,10.4-1.5,15.5-2.4l-0.5-2.6C654.1,950.1,648.9,950.9,643.8,951.6z"/>
			<path fill="#FFFFFF" d="M674.5,946.2l0.6,2.6c5.1-1.1,10.2-2.4,15.3-3.7l-0.7-2.5C684.7,943.8,679.6,945,674.5,946.2z"/>
			<path fill="#FFFFFF" d="M379.8,879.2l-1.6,2.1c4.1,3.2,8.3,6.4,12.6,9.4l1.5-2.1C388,885.6,383.8,882.4,379.8,879.2z"/>
			<path fill="#FFFFFF" d="M405.1,897.4l-1.4,2.2c4.4,2.9,8.9,5.6,13.4,8.3l1.3-2.3C413.9,903,409.5,900.2,405.1,897.4z"/>
			<path fill="#FFFFFF" d="M470,930.7c-3.3-1.3-6.6-2.6-9.8-4l-1,2.4c3.7,1.6,7.4,3.1,11.2,4.5L470,930.7z"/>
			<path fill="#FFFFFF" d="M432,913.3l-1.2,2.3c4.6,2.5,9.3,4.8,14,7.1l1.1-2.4C441.3,918.1,436.6,915.7,432,913.3z"/>
			<path fill="#FFFFFF" d="M334.3,836.5l-2,1.7c3.5,3.9,7.1,7.8,10.7,11.5l1.9-1.8C341.3,844.2,337.8,840.4,334.3,836.5z"/>
			<path fill="#FFFFFF" d="M325.1,377.8l-2-1.7c-3.3,4-6.6,8.2-9.7,12.4l2.1,1.6C318.5,385.9,321.8,381.8,325.1,377.8z"/>
			<path fill="#FFFFFF" d="M367,331.3c-4,3.4-7.9,6.9-11.7,10.5l1.8,1.9c3.8-3.5,7.7-7,11.6-10.4L367,331.3z"/>
			<path fill="#FFFFFF" d="M344,352.8c-3.6,3.7-7.3,7.6-10.8,11.5l1.9,1.7c3.5-3.9,7.1-7.7,10.7-11.4L344,352.8z"/>
			<path fill="#FFFFFF" d="M389.5,313.6c-3.5,2.5-7,5.1-10.3,7.8l1.6,2.1c3-2.3,6-4.6,9.1-6.9L389.5,313.6z"/>
			<path fill="#FFFFFF" d="M535.9,254.3l-0.5-2.6c-4.6,0.8-9.3,1.8-13.9,2.8l0.3,2.6C526.5,256.1,531.3,255.2,535.9,254.3z"/>
			<path fill="#FFFFFF" d="M612.8,954.3l0.3,2.6c5.1-0.2,10.2-0.6,15.3-1l-0.2-2.6C623.2,953.7,618,954.1,612.8,954.3z"/>
			<path fill="#FFFFFF" d="M304.2,401.3c-2.9,4.3-5.8,8.7-8.6,13.2l2.2,1.4c2.7-4.4,5.6-8.8,8.5-13.1L304.2,401.3z"/>
			<path fill="#FFFFFF" d="M287.6,428c-2.6,4.5-5,9.2-7.4,13.9l2.3,1.2c2.3-4.6,4.8-9.3,7.3-13.8L287.6,428z"/>
			<path fill="#FFFFFF" d="M252.8,515.6c-1.3,5.1-2.4,10.2-3.5,15.4l2.6,0.5c1-5.1,2.2-10.2,3.5-15.3L252.8,515.6z"/>
			<path fill="#FFFFFF" d="M273.4,456.1c-2.1,4.8-4.2,9.6-6.1,14.5l2.4,1c1.9-4.8,4-9.7,6.1-14.4L273.4,456.1z"/>
			<path fill="#FFFFFF" d="M261.8,485.4c-1.7,4.9-3.3,10-4.8,15l2.5,0.7c1.5-5,3.1-10,4.8-14.9L261.8,485.4z"/>
			<path fill="#FFFFFF" d="M938.5,703.5c1.5-5,2.9-10.1,4.2-15.2l-2.5-0.6c-1.3,5-2.7,10.1-4.1,15.1L938.5,703.5z"/>
			<path fill="#FFFFFF" d="M920.4,458.6l2.4-1.1c-2.1-4.8-4.4-9.6-6.7-14.2l-2.3,1.2C916,449.1,918.3,453.8,920.4,458.6z"/>
			<path fill="#FFFFFF" d="M871.6,379.1l2-1.7c-3.3-4-6.7-8.1-10.2-12l-2,1.7C864.9,371.1,868.3,375.1,871.6,379.1z"/>
			<path fill="#FFFFFF" d="M763.4,916.4c4.6-2.4,9.2-5,13.7-7.6l-1.3-2.3c-4.5,2.6-9,5.2-13.6,7.6L763.4,916.4z"/>
			<path fill="#FFFFFF" d="M890.2,404.1l2.2-1.5c-2.9-4.3-6-8.6-9.1-12.8l-2.1,1.6C884.2,395.5,887.3,399.8,890.2,404.1z"/>
			<path fill="#FFFFFF" d="M598.8,248.8l0-2.6c-5.2,0-10.5,0.1-15.7,0.3l0.1,2.6C588.4,248.9,593.6,248.8,598.8,248.8z"/>
			<path fill="#FFFFFF" d="M551.4,251.9l0.8-0.1c5.2-0.7,10.4-1.2,15.5-1.7l-0.2-2.6c-5.2,0.4-10.4,1-15.6,1.7l-0.8,0.1L551.4,251.9
				z"/>
			<path fill="#FFFFFF" d="M630,250.3l0.2-2.6c-5.2-0.5-10.5-0.8-15.7-1.1l-0.1,2.6C619.6,249.5,624.8,249.8,630,250.3z"/>
			<path fill="#FFFFFF" d="M721.2,271.1l0.9-2.4c-4.9-1.8-9.9-3.6-14.9-5.2l-0.8,2.5C711.3,267.5,716.3,269.3,721.2,271.1z"/>
			<path fill="#FFFFFF" d="M691.4,261.4l0.7-2.5c-5-1.4-10.2-2.7-15.3-3.8l-0.6,2.6C681.3,258.8,686.4,260.1,691.4,261.4z"/>
			<path fill="#FFFFFF" d="M660.9,254.5l0.5-2.6c-5.1-0.9-10.4-1.8-15.5-2.5l-0.4,2.6C650.6,252.7,655.8,253.6,660.9,254.5z"/>
			<path fill="#FFFFFF" d="M906.5,430.6l2.3-1.3c-2.5-4.6-5.2-9.1-7.9-13.5l-2.2,1.4C901.3,421.6,903.9,426.1,906.5,430.6z"/>
			<path fill="#FFFFFF" d="M862,839.5c3.5-3.9,6.9-7.9,10.2-11.9l-2-1.7c-3.3,4-6.7,8-10.2,11.8L862,839.5z"/>
			<path fill="#FFFFFF" d="M882,815.3c3.1-4.2,6.2-8.5,9.2-12.8L889,801c-2.9,4.3-6,8.5-9.1,12.7L882,815.3z"/>
			<path fill="#FFFFFF" d="M899.7,789.3c2.8-4.4,5.5-9,8-13.5l-2.3-1.3c-2.5,4.5-5.2,9-8,13.4L899.7,789.3z"/>
			<path fill="#FFFFFF" d="M790.5,900.5c4.4-2.8,8.7-5.8,13-8.8l-1.5-2.1c-4.2,3-8.6,5.9-12.9,8.7L790.5,900.5z"/>
			<path fill="#FFFFFF" d="M915.1,761.9c2.4-4.7,4.6-9.4,6.8-14.2l-2.4-1.1c-2.1,4.7-4.4,9.5-6.7,14.1L915.1,761.9z"/>
			<path fill="#FFFFFF" d="M816.1,882.3c4.1-3.2,8.2-6.5,12.2-9.9l-1.7-2c-3.9,3.4-8,6.7-12.1,9.9L816.1,882.3z"/>
			<path fill="#FFFFFF" d="M840,862c3.8-3.6,7.6-7.3,11.3-11l-1.9-1.8c-3.6,3.7-7.4,7.4-11.2,10.9L840,862z"/>
			<path fill="#FFFFFF" d="M946.5,548.2l2.6-0.4c-0.8-5.2-1.7-10.4-2.7-15.5l-2.6,0.5C944.8,537.9,945.7,543,946.5,548.2z"/>
			<path fill="#FFFFFF" d="M928.1,733.2c1.9-4.9,3.8-9.8,5.5-14.8l-2.5-0.9c-1.7,4.9-3.5,9.8-5.5,14.6L928.1,733.2z"/>
			<path fill="#FFFFFF" d="M931.7,487.6l2.5-0.8c-1.7-4.9-3.5-9.9-5.4-14.8l-2.4,1C928.3,477.8,930.1,482.7,931.7,487.6z"/>
			<path fill="#FFFFFF" d="M940.5,517.6l2.5-0.6c-1.2-5.1-2.6-10.2-4.1-15.2l-2.5,0.7C937.9,507.5,939.2,512.6,940.5,517.6z"/>
			<path fill="#FFFFFF" d="M952.5,579.1c-0.3-5.2-0.8-10.5-1.4-15.7l-2.6,0.3c0.6,5.2,1,10.4,1.4,15.5L952.5,579.1z"/>
			<path fill="#FFFFFF" d="M946.1,672.9c1-5.1,2-10.3,2.8-15.5l-2.6-0.4c-0.8,5.1-1.7,10.3-2.8,15.4L946.1,672.9z"/>
			<path fill="#FFFFFF" d="M951,641.9c0.6-5.2,1.1-10.5,1.4-15.7l-2.6-0.2c-0.4,5.2-0.8,10.4-1.4,15.5L951,641.9z"/>
			<path fill="#FFFFFF" d="M953.2,610.5c0.1-5.2,0.1-10.5,0-15.7l-2.6,0.1c0.1,5.2,0.1,10.4,0,15.6L953.2,610.5z"/>
		</g>
	</g>
	<g>
		<circle fill="#FFFFFF" cx="936.3" cy="448.2" r="15.4"/>
		<g>
			<g>
				<path fill="#888888" d="M972.4,440.5c-1.1-5.2-3.2-9.9-6.2-14l4.4-4.6l-9.8-9.3l-4.4,4.6c-4.2-2.8-9.1-4.7-14.3-5.5l-0.2-6.4
					l-13.5,0.3l0.2,6.4c-1.4,0.3-2.7,0.6-4,1.1c-3.6,1.2-7,2.9-10,5.1l-4.6-4.4l-9.3,9.8l4.6,4.4c-2.8,4.2-4.7,9.1-5.5,14.3
					l-6.4,0.2l0.3,13.5l6.4-0.2c1.1,5.2,3.2,9.9,6.2,14l-4.4,4.6l9.8,9.3l4.4-4.6c4.2,2.8,9.1,4.7,14.3,5.5l0.2,6.4l13.5-0.3
					l-0.2-6.4c1.4-0.3,2.7-0.6,4-1.1c3.6-1.2,7-2.9,10-5.1l4.6,4.4l9.3-9.8l-4.6-4.4c2.8-4.3,4.7-9.1,5.5-14.3l6.4-0.2l-0.3-13.5
					L972.4,440.5z M949.7,447.8c0.1,6-3.7,11.3-9.2,13.1c-1.2,0.4-2.5,0.6-3.9,0.7c-7.4,0.2-13.6-5.7-13.7-13.1
					c-0.1-6,3.7-11.3,9.2-13.1c1.2-0.4,2.5-0.6,3.9-0.7C943.4,434.6,949.5,440.4,949.7,447.8z"/>
				<polygon fill="#1B1B1B" points="932.3,455.2 928.2,448.2 932.3,441.1 940.4,441.1 944.4,448.2 940.4,455.2 				"/>
			</g>
		</g>
	</g>
	<g>
		<g>
			<polygon fill-rule="evenodd" clip-rule="evenodd" fill="#CBCBCB" points="142.8,361.1 142.8,361.3 142.8,361.3 142.8,363.7 
				142.8,366.6 142.8,366.6 142.8,367.4 142.8,367.4 142.8,374.6 142.8,374.6 142.8,375.2 142.8,375.2 142.8,378.6 142.8,378.6 
				142.8,379.4 142.8,379.4 142.8,381.9 142.8,382.2 375.1,382.2 375.1,361.1 			"/>
			<path fill="#CBCBCB" d="M376.8,384H141.1v-24.6h235.7V384z M144.5,380.5h228.9v-17.7H144.5L144.5,380.5z"/>
		</g>
		<g>
			<rect x="345.5" y="361.1" fill-rule="evenodd" clip-rule="evenodd" fill="#FFFFFF" width="29.6" height="21.1"/>
			<path fill="#CBCBCB" d="M376.8,384h-33v-24.6h33V384z M347.2,380.5h26.2v-17.7h-26.2V380.5z"/>
		</g>
		<rect x="230.6" y="368.1" fill-rule="evenodd" clip-rule="evenodd" fill="#FFFFFF" width="30.6" height="7.1"/>
		<rect x="194" y="368.1" fill-rule="evenodd" clip-rule="evenodd" fill="#FFFFFF" width="30.6" height="7.1"/>
		<rect x="157.5" y="368.1" fill-rule="evenodd" clip-rule="evenodd" fill="#FFFFFF" width="30.6" height="7.1"/>
	</g>
	<g>
		<g>
			<path fill="#FFFFFF" d="M322.2,554h-181V437.8h181V554z"/>
		</g>
		<g>
			<rect x="147.7" y="444.8" fill="#888888" width="167.7" height="88.8"/>
		</g>
		<g>
			<rect x="147.7" y="541.1" fill="#1B1B1B" width="167.7" height="7.7"/>
		</g>
		<g>
			<g>
				<path fill="#FFFFFF" d="M231.8,516.3c-14,0-25.4-11.4-25.4-25.4c0-14,11.4-25.4,25.4-25.4c14,0,25.4,11.4,25.4,25.4
					C257.1,504.9,245.7,516.3,231.8,516.3z M231.8,467c-13.2,0-23.9,10.7-23.9,23.9c0,13.2,10.7,23.9,23.9,23.9
					c13.2,0,23.9-10.7,23.9-23.9C255.6,477.7,244.9,467,231.8,467z"/>
			</g>
			<polygon fill="#FFFFFF" stroke="#FFFFFF" stroke-miterlimit="10" points="249.3,490.9 235.9,498.6 222.5,506.3 222.5,490.9 
				222.5,475.5 235.9,483.2 			"/>
		</g>
		<path fill="#FFFFFF" d="M186.4,545c0,2.1-1.7,3.9-3.9,3.9h-13.2c-2.1,0-3.9-1.7-3.9-3.9l0,0c0-2.1,1.7-3.9,3.9-3.9h13.2
			C184.7,541.1,186.4,542.8,186.4,545L186.4,545z"/>
	</g>
	<g>
		<g>
			<g>
				<g>
					<path fill="#B0B0B0" d="M262.3,808c0,0-4.2,7.8,25.7,14.4h625.8c0,0,20.9-1.3,26.4-11.2l0-5.4L262.3,808z"/>
					<path fill="#FFFFFF" d="M262.5,792.1h678v17.4c0,0,1,2.3-7,1.7H268.9c0,0-6.2,1.8-6.8-2.3L262.5,792.1z"/>
					<path fill="#B0B0B0" d="M909,802.3c0,0.7-0.4,1.2-1,1.2h-23.1c-0.6,0-1-0.5-1-1.2l0,0c0-0.7,0.4-1.2,1-1.2H908
						C908.5,801.1,909,801.6,909,802.3L909,802.3z"/>
				</g>
				<path fill="#B0B0B0" d="M555.4,792.3c0,0-2.6,8.7,6.1,9.6h78.7c0,0,8.4,1.1,7.3-9.3L555.4,792.3z"/>
				<g>
					<linearGradient id="SVGID_1_" gradientUnits="userSpaceOnUse" x1="647.0278" y1="792.7617" x2="647.0278" y2="792.5557">
						<stop  offset="2.439020e-02" style="stop-color:#656565"/>
						<stop  offset="0.4756" style="stop-color:#6A6A6A"/>
						<stop  offset="0.5114" style="stop-color:#737373"/>
						<stop  offset="0.6178" style="stop-color:#898989"/>
						<stop  offset="0.7195" style="stop-color:#979797"/>
						<stop  offset="0.811" style="stop-color:#9B9B9B"/>
					</linearGradient>
					<path fill="url(#SVGID_1_)" d="M647,792.8v-0.2h0C647,792.6,647,792.7,647,792.8z"/>
				</g>
			</g>
		</g>
		<path fill="#1B1B1B" d="M873.8,792.1V483c0-14-11.5-25.5-25.5-25.5H354.3c-14,0-25.5,11.5-25.5,25.5v309H873.8z"/>
		<rect x="346.3" y="476.7" fill="#FFFFFF" width="510" height="296.4"/>
	</g>
	<g>
		<g>
			<rect x="559" y="848.9" fill="#CBCBCB" width="434.1" height="39.5"/>
			<path fill="#FFFFFF" d="M956.9,868.6c0-5.4,4.4-9.9,9.9-9.9c5.4,0,9.9,4.4,9.9,9.9c0,5.4-4.4,9.9-9.9,9.9
				C961.3,878.5,956.9,874,956.9,868.6z"/>
		</g>
		<g>
			<g>
				<g>
					<g>
						<rect x="768.4" y="852.7" fill="#FFFFFF" width="4.7" height="20.2"/>
						<rect x="783.5" y="852.7" fill="#FFFFFF" width="4.7" height="11.5"/>
						<rect x="798.6" y="852.7" fill="#FFFFFF" width="4.7" height="11.5"/>
						<rect x="813.7" y="852.7" fill="#FFFFFF" width="4.7" height="11.5"/>
					</g>
				</g>
				<g>
					<g>
						<polygon fill="#FFFFFF" points="827.9,872.9 827.9,852.7 832.7,852.7 832.7,872.9 						"/>
						<rect x="843.1" y="852.7" fill="#FFFFFF" width="4.7" height="11.5"/>
						<rect x="858.2" y="852.7" fill="#FFFFFF" width="4.7" height="11.5"/>
						<rect x="873.3" y="852.7" fill="#FFFFFF" width="4.7" height="11.5"/>
					</g>
				</g>
				<g>
					<g>
						<rect x="887.5" y="852.7" fill="#FFFFFF" width="4.7" height="20.2"/>
						<rect x="902.6" y="852.7" fill="#FFFFFF" width="4.7" height="11.5"/>
						<rect x="917.7" y="852.7" fill="#FFFFFF" width="4.7" height="11.5"/>
						<rect x="932.8" y="852.7" fill="#FFFFFF" width="4.7" height="11.5"/>
					</g>
				</g>
			</g>
			<g>
				<g>
					<g>
						<rect x="588.6" y="852.7" fill="#FFFFFF" width="4.7" height="20.2"/>
						<rect x="603.7" y="852.7" fill="#FFFFFF" width="4.7" height="11.5"/>
						<rect x="618.8" y="852.7" fill="#FFFFFF" width="4.7" height="11.5"/>
						<rect x="633.9" y="852.7" fill="#FFFFFF" width="4.7" height="11.5"/>
					</g>
				</g>
				<g>
					<g>
						<rect x="648.1" y="852.7" fill="#FFFFFF" width="4.7" height="20.2"/>
						<rect x="663.2" y="852.7" fill="#FFFFFF" width="4.7" height="11.5"/>
						<rect x="678.4" y="852.7" fill="#FFFFFF" width="4.7" height="11.5"/>
						<rect x="693.5" y="852.7" fill="#FFFFFF" width="4.7" height="11.5"/>
					</g>
				</g>
				<g>
					<g>
						<rect x="707.7" y="852.7" fill="#FFFFFF" width="4.7" height="20.2"/>
						<rect x="722.8" y="852.7" fill="#FFFFFF" width="4.7" height="11.5"/>
						<rect x="737.9" y="852.7" fill="#FFFFFF" width="4.7" height="11.5"/>
						<rect x="753" y="852.7" fill="#FFFFFF" width="4.7" height="11.5"/>
					</g>
				</g>
			</g>
		</g>
	</g>
	<g>
		<path fill="#888888" d="M401,943.4c0,0.6-0.4,1.1-1,1.1h-15.4c-0.5,0-1-0.5-1-1.1v-30.4c0-0.6,0.4-1.1,1-1.1H400
			c0.5,0,1,0.5,1,1.1V943.4z"/>
		<path fill="#FFFFFF" d="M405.6,912h-5.6v32.5h5.6c0.5,0,1-0.5,1-1.1v-30.4C406.6,912.5,406.2,912,405.6,912z"/>
		<polygon fill="#CBCBCB" points="649.4,912 637.1,912 475.1,912 448.4,912 406.1,912 406.1,944.5 448.4,944.5 475.1,944.5 
			637.1,944.5 649.4,944.5 703,944.5 703,912 		"/>
		<polygon fill="#1B1B1B" points="649.4,923.9 637.1,923.9 475.1,923.9 448.4,923.9 406.1,923.9 406.1,932.6 448.4,932.6 
			475.1,932.6 637.1,932.6 649.4,932.6 703,932.6 703,923.9 		"/>
		<polygon fill="#FFFFFF" points="702.9,944.6 694.5,928.2 702.9,911.9 740.9,928.2 		"/>
		<polygon fill="#1B1B1B" points="725,921.4 725,935.1 740.9,928.2 		"/>
	</g>
	<g>
		<rect x="453" y="351.4" fill="#1B1B1B" width="296.6" height="397.6"/>
		<rect x="453" y="369.2" fill="#FFFFFF" width="296.6" height="33.7"/>
		<rect x="453" y="351.4" fill="#1B1B1B" width="296.6" height="29.5"/>
		<rect x="479.4" y="449" fill="#FFFFFF" width="112.5" height="7"/>
		<rect x="527.9" y="471.3" fill="#FFFFFF" width="11.5" height="7"/>
		<rect x="549.1" y="471.3" fill="#FFFFFF" width="11.5" height="7"/>
		<rect x="571" y="471.3" fill="#FFFFFF" width="11.5" height="7"/>
		<rect x="500.7" y="493.7" fill="#CBCBCB" width="91.1" height="7"/>
		<rect x="527.9" y="516" fill="#FFFFFF" width="64" height="7"/>
		<rect x="607.1" y="516" fill="#888888" width="112.5" height="7"/>
		<rect x="607.1" y="493.7" fill="#FFFFFF" width="35.7" height="7"/>
		<rect x="672.4" y="493.7" fill="#FFFFFF" width="35.7" height="7"/>
		<rect x="607.1" y="471.3" fill="#FFFFFF" width="64" height="7"/>
		<g>
			<g>
				<rect x="524.3" y="363.3" fill="#FFFFFF" width="64" height="7"/>
			</g>
			<g>
				<rect x="603.6" y="363.3" fill="#FFFFFF" width="64" height="7"/>
			</g>
		</g>
		<g>
			<g>
				<rect x="524.3" y="389.2" fill="#1B1B1B" width="64" height="7"/>
			</g>
		</g>
		<rect x="479.4" y="545.5" fill="#FFFFFF" width="57.9" height="7"/>
		<rect x="518.6" y="567.8" fill="#FFFFFF" width="22.6" height="7"/>
		<rect x="500.2" y="590.2" fill="#CBCBCB" width="22.2" height="7"/>
		<rect x="504.3" y="612.5" fill="#FFFFFF" width="32.9" height="7"/>
		<rect x="545.1" y="612.5" fill="#FFFFFF" width="57.9" height="7"/>
		<rect x="545.1" y="590.2" fill="#CBCBCB" width="32.9" height="7"/>
		<rect x="554.8" y="567.8" fill="#FFFFFF" width="32.9" height="7"/>
		<g>
			<g>
				<rect x="643.4" y="612.5" fill="#FFFFFF" width="57.9" height="7"/>
				<rect x="643.4" y="590.2" fill="#FFFFFF" width="32.9" height="7"/>
				<rect x="643.4" y="567.8" fill="#FFFFFF" width="32.9" height="7"/>
				<rect x="643.4" y="545.5" fill="#FFFFFF" width="32.9" height="7"/>
			</g>
			<g>
				<rect x="577.7" y="545.5" fill="#FFFFFF" width="57.9" height="7"/>
				<rect x="602.7" y="567.8" fill="#888888" width="32.9" height="7"/>
				<rect x="602.7" y="590.2" fill="#FFFFFF" width="32.9" height="7"/>
			</g>
		</g>
		<rect x="479.4" y="642" fill="#FFFFFF" width="112.5" height="7"/>
		<rect x="527.9" y="664.3" fill="#FFFFFF" width="64" height="7"/>
		<rect x="507" y="686.6" fill="#FFFFFF" width="45.7" height="7"/>
		<rect x="527.9" y="709" fill="#FFFFFF" width="64" height="7"/>
		<rect x="607.1" y="709" fill="#FFFFFF" width="112.5" height="7"/>
		<rect x="570.7" y="686.6" fill="#FFFFFF" width="64" height="7"/>
		<rect x="607.1" y="664.3" fill="#CBCBCB" width="64" height="7"/>
	</g>
</g>
</svg>
