<?xml version="1.0" encoding="utf-8"?>
<!-- Generator: Adobe Illustrator 18.0.0, SVG Export Plug-In . SVG Version: 6.00 Build 0)  -->
<!DOCTYPE svg PUBLIC "-//W3C//DTD SVG 1.1//EN" "http://www.w3.org/Graphics/SVG/1.1/DTD/svg11.dtd">
<svg version="1.1" xmlns="http://www.w3.org/2000/svg" xmlns:xlink="http://www.w3.org/1999/xlink" x="0px" y="0px"
	 viewBox="0 0 500 500" enable-background="new 0 0 500 500" xml:space="preserve">
<pattern  x="-150" y="-150" width="83.6" height="83.6" patternUnits="userSpaceOnUse" id="New_Pattern_Swatch_2" viewBox="0 -83.6 83.6 83.6" overflow="visible">
	<g>
		<polygon fill="none" points="0,0 83.6,0 83.6,-83.6 0,-83.6 		"/>
		<polygon fill="#4B4B4B" points="83.6,0 0,0 0,-83.6 83.6,-83.6 		"/>
	</g>
</pattern>
<g id="BACKGROUND">
</g>
<g id="OBJECTS">
	<g opacity="0.1">
		<g>
			<g>
				<circle fill="none" cx="165" cy="431.6" r="5.1"/>
				
					<pattern  id="SVGID_1_" xlink:href="#New_Pattern_Swatch_2" patternTransform="matrix(7.6037 2.5155 1.4349 -4.3374 61357.0078 -18585.8848)">
				</pattern>
				<path fill="url(#SVGID_1_)" d="M434.2,376.7l-8.1-32.1l-284.5,72l8.1,32.1L434.2,376.7z M170,430.3c0.7,2.7-1,5.5-3.7,6.2
					c-2.7,0.7-5.5-1-6.2-3.7c-0.7-2.7,1-5.5,3.7-6.2C166.5,425.9,169.3,427.6,170,430.3z"/>
				
					<rect x="289.2" y="269.6" transform="matrix(0.2453 0.9694 -0.9694 0.2453 624.5957 30.1973)" fill="#676767" width="7.4" height="293.4"/>
			</g>
			<g>
				<path fill="#E5E5E5" d="M162.3,453.1l-2.6-10.1c-0.1-0.5-0.7-0.9-1.2-0.7c-0.5,0.1-0.9,0.7-0.7,1.2l2.6,10.1L162.3,453.1z"/>
			</g>
			<g>
				<path fill="#E5E5E5" d="M170.7,451l-1.2-4.8c-0.1-0.4-0.5-0.7-0.9-0.6c-0.4,0.1-0.7,0.5-0.6,0.9l1.2,4.8L170.7,451z"/>
			</g>
			<g>
				<path fill="#E5E5E5" d="M179.4,448.8l-1.2-4.8c-0.1-0.4-0.5-0.7-0.9-0.6c-0.4,0.1-0.7,0.5-0.6,0.9l1.2,4.8L179.4,448.8z"/>
			</g>
			<g>
				<path fill="#E5E5E5" d="M188.2,446.6l-2.6-10.1c-0.1-0.5-0.7-0.9-1.2-0.7c-0.5,0.1-0.9,0.7-0.7,1.2l2.6,10.1L188.2,446.6z"/>
			</g>
			<g>
				<path fill="#E5E5E5" d="M196.7,444.4l-1.2-4.8c-0.1-0.4-0.5-0.7-0.9-0.6c-0.4,0.1-0.7,0.5-0.6,0.9l1.2,4.8L196.7,444.4z"/>
			</g>
			<g>
				<path fill="#E5E5E5" d="M205.3,442.2l-1.2-4.8c-0.1-0.4-0.5-0.7-0.9-0.6c-0.4,0.1-0.7,0.5-0.6,0.9l1.2,4.8L205.3,442.2z"/>
			</g>
			<g>
				<path fill="#E5E5E5" d="M214.1,440l-2.6-10.1c-0.1-0.5-0.7-0.9-1.2-0.7c-0.5,0.1-0.9,0.7-0.7,1.2l2.6,10.1L214.1,440z"/>
			</g>
			<g>
				<path fill="#E5E5E5" d="M222.6,437.9l-1.2-4.8c-0.1-0.4-0.5-0.7-0.9-0.6c-0.4,0.1-0.7,0.5-0.6,0.9l1.2,4.8L222.6,437.9z"/>
			</g>
			<g>
				<path fill="#E5E5E5" d="M231.2,435.7l-1.2-4.8c-0.1-0.4-0.5-0.7-0.9-0.6c-0.4,0.1-0.7,0.5-0.6,0.9l1.2,4.8L231.2,435.7z"/>
			</g>
			<g>
				<path fill="#E5E5E5" d="M240.1,433.5l-2.6-10.1c-0.1-0.5-0.7-0.9-1.2-0.7c-0.5,0.1-0.9,0.7-0.7,1.2l2.6,10.1L240.1,433.5z"/>
			</g>
			<g>
				<path fill="#E5E5E5" d="M248.5,431.3l-1.2-4.8c-0.1-0.4-0.5-0.7-0.9-0.6c-0.4,0.1-0.7,0.5-0.6,0.9l1.2,4.8L248.5,431.3z"/>
			</g>
			<g>
				<path fill="#E5E5E5" d="M257.1,429.1l-1.2-4.8c-0.1-0.4-0.5-0.7-0.9-0.6c-0.4,0.1-0.7,0.5-0.6,0.9l1.2,4.8L257.1,429.1z"/>
			</g>
			<g>
				<path fill="#E5E5E5" d="M266,426.9l-2.6-10.1c-0.1-0.5-0.7-0.9-1.2-0.7c-0.5,0.1-0.9,0.7-0.7,1.2l2.6,10.1L266,426.9z"/>
			</g>
			<g>
				<path fill="#E5E5E5" d="M274.4,424.8l-1.2-4.8c-0.1-0.4-0.5-0.7-0.9-0.6c-0.4,0.1-0.7,0.5-0.6,0.9l1.2,4.8L274.4,424.8z"/>
			</g>
			<g>
				<path fill="#E5E5E5" d="M283,422.6l-1.2-4.8c-0.1-0.4-0.5-0.7-0.9-0.6c-0.4,0.1-0.7,0.5-0.6,0.9l1.2,4.8L283,422.6z"/>
			</g>
			<g>
				<path fill="#E5E5E5" d="M291.9,420.3l-2.6-10.1c-0.1-0.5-0.7-0.9-1.2-0.7c-0.5,0.1-0.9,0.7-0.7,1.2l2.6,10.1L291.9,420.3z"/>
			</g>
			<g>
				<path fill="#E5E5E5" d="M300.3,418.2l-1.2-4.8c-0.1-0.4-0.5-0.7-0.9-0.6c-0.4,0.1-0.7,0.5-0.6,0.9l1.2,4.8L300.3,418.2z"/>
			</g>
			<g>
				<path fill="#E5E5E5" d="M308.9,416l-1.2-4.8c-0.1-0.4-0.5-0.7-0.9-0.6c-0.4,0.1-0.7,0.5-0.6,0.9l1.2,4.8L308.9,416z"/>
			</g>
			<g>
				<path fill="#E5E5E5" d="M317.8,413.8l-2.6-10.1c-0.1-0.5-0.7-0.9-1.2-0.7c-0.5,0.1-0.9,0.7-0.7,1.2l2.6,10.1L317.8,413.8z"/>
			</g>
			<g>
				<path fill="#E5E5E5" d="M326.2,411.7l-1.2-4.8c-0.1-0.4-0.5-0.7-0.9-0.6c-0.4,0.1-0.7,0.5-0.6,0.9l1.2,4.8L326.2,411.7z"/>
			</g>
			<g>
				<path fill="#E5E5E5" d="M334.8,409.5l-1.2-4.8c-0.1-0.4-0.5-0.7-0.9-0.6c-0.4,0.1-0.7,0.5-0.6,0.9l1.2,4.8L334.8,409.5z"/>
			</g>
			<g>
				<path fill="#E5E5E5" d="M343.7,407.2l-2.6-10.1c-0.1-0.5-0.7-0.9-1.2-0.7c-0.5,0.1-0.9,0.7-0.7,1.2l2.6,10.1L343.7,407.2z"/>
			</g>
			<g>
				<path fill="#E5E5E5" d="M352.1,405.1l-1.2-4.8c-0.1-0.4-0.5-0.7-0.9-0.6c-0.4,0.1-0.7,0.5-0.6,0.9l1.2,4.8L352.1,405.1z"/>
			</g>
			<g>
				<path fill="#E5E5E5" d="M360.7,402.9l-1.2-4.8c-0.1-0.4-0.5-0.7-0.9-0.6c-0.4,0.1-0.7,0.5-0.6,0.9l1.2,4.8L360.7,402.9z"/>
			</g>
			<g>
				<path fill="#E5E5E5" d="M369.6,400.7l-2.6-10.1c-0.1-0.5-0.7-0.9-1.2-0.7c-0.5,0.1-0.9,0.7-0.7,1.2l2.6,10.1L369.6,400.7z"/>
			</g>
			<g>
				<path fill="#E5E5E5" d="M378,398.5l-1.2-4.8c-0.1-0.4-0.5-0.7-0.9-0.6c-0.4,0.1-0.7,0.5-0.6,0.9l1.2,4.8L378,398.5z"/>
			</g>
			<g>
				<path fill="#E5E5E5" d="M386.7,396.4l-1.2-4.8c-0.1-0.4-0.5-0.7-0.9-0.6c-0.4,0.1-0.7,0.5-0.6,0.9l1.2,4.8L386.7,396.4z"/>
			</g>
			<g>
				<path fill="#E5E5E5" d="M395.5,394.1L393,384c-0.1-0.5-0.7-0.9-1.2-0.7c-0.5,0.1-0.9,0.7-0.7,1.2l2.6,10.1L395.5,394.1z"/>
			</g>
			<g>
				<path fill="#E5E5E5" d="M403.9,392l-1.2-4.8c-0.1-0.4-0.5-0.7-0.9-0.6c-0.4,0.1-0.7,0.5-0.6,0.9l1.2,4.8L403.9,392z"/>
			</g>
			<g>
				<path fill="#E5E5E5" d="M412.6,389.8l-1.2-4.8c-0.1-0.4-0.5-0.7-0.9-0.6c-0.4,0.1-0.7,0.5-0.6,0.9l1.2,4.8L412.6,389.8z"/>
			</g>
			<g>
				<path fill="#E5E5E5" d="M421.4,387.6l-2.6-10.1c-0.1-0.5-0.7-0.9-1.2-0.7c-0.5,0.1-0.9,0.7-0.7,1.2l2.6,10.1L421.4,387.6z"/>
			</g>
		</g>
		<g>
			
				<rect x="245.5" y="114.5" transform="matrix(-0.927 0.3749 -0.3749 -0.927 634.9323 160.8027)" fill="#FFFFFF" width="112.7" height="55.2"/>
			
				<rect x="334.8" y="129.8" transform="matrix(-0.9271 0.3749 -0.3749 -0.9271 712.8403 137.386)" fill="#CCCCCC" width="16.4" height="16.4"/>
			
				<rect x="326.5" y="109.1" transform="matrix(-0.927 0.3749 -0.3749 -0.927 688.9152 100.5869)" fill="#C0C0C0" width="16.4" height="16.4"/>
			
				<rect x="315.3" y="137.7" transform="matrix(-0.927 0.3749 -0.3749 -0.927 678.2056 159.9036)" fill="#9F9F9F" width="16.4" height="16.4"/>
			
				<rect x="306.9" y="117" transform="matrix(-0.927 0.3749 -0.3749 -0.927 654.2805 123.1055)" fill="#858585" width="16.4" height="16.4"/>
			
				<pattern  id="SVGID_2_" xlink:href="#New_Pattern_Swatch_2" patternTransform="matrix(-4.8513 1.9621 -1.1192 -2.7673 -54779.6758 -11148.165)">
			</pattern>
			<polygon fill="url(#SVGID_2_)" points="293.3,149.3 308.6,143.1 314.7,158.4 299.5,164.5 			"/>
			
				<rect x="287.4" y="124.9" transform="matrix(-0.9271 0.3749 -0.3749 -0.9271 619.6457 145.6248)" fill="#A4A4A4" width="16.4" height="16.4"/>
			
				<rect x="276.3" y="153.5" transform="matrix(-0.927 0.3749 -0.3749 -0.927 608.9363 204.9407)" fill="#CBCBCB" width="16.4" height="16.4"/>
			
				<rect x="267.9" y="132.8" transform="matrix(-0.9271 0.3749 -0.3749 -0.9271 585.011 168.1433)" fill="#BEBEBE" width="16.4" height="16.4"/>
		</g>
		<g>
			<path fill="#AEAEAE" d="M67.3,158.2c0.9,0,1.7-1.6,2.7-1.8l-1.7-5.9c-0.3,0.1-0.5,0.3-0.6,0.6l-1.2,6.9
				C66.8,158.1,67,158.2,67.3,158.2z"/>
			<path fill="#909090" d="M70,156.4c1-0.3,2.5,0.7,3.3,0.2c0.2-0.1,0.4-0.4,0.4-0.6l-4.6-5.3c-0.2-0.2-0.5-0.3-0.8-0.2L70,156.4
				C70,156.4,70,156.4,70,156.4z"/>
			<path fill="#909090" d="M120.3,335.2l9.2-2.6L82.6,166.1c-2.7,1.9-5.7,3.3-8.7,4.2L120.3,335.2z"/>
			<path fill="#AEAEAE" d="M64.3,171.3l46.9,166.5l9.2-2.6L73.9,170.3C70.7,171.2,67.4,171.5,64.3,171.3z"/>
			<polygon fill="#444444" points="82.6,166.1 82.6,166.1 82.6,166.1 			"/>
			<path fill="#ECECEC" d="M73.9,170.3L70,156.4c-0.9,0.3-1.7,1.8-2.7,1.8c-0.3,0-0.5-0.1-0.7-0.3l-2.3,13.4
				C67.4,171.5,70.7,171.2,73.9,170.3z"/>
			<path fill="#E6E6E6" d="M82.6,166.1l-8.9-10.2c-0.1,0.3-0.2,0.5-0.4,0.6c-0.8,0.5-2.3-0.4-3.3-0.2c0,0,0,0,0,0l3.9,13.9
				C76.9,169.4,79.9,168.1,82.6,166.1L82.6,166.1L82.6,166.1z"/>
			<polygon fill="#A9A9A9" points="82.6,166.1 82.6,166.1 82.6,166.1 			"/>
		</g>
		
			<rect x="113.8" y="148.3" transform="matrix(0.9953 9.671243e-02 -9.671243e-02 0.9953 27.4943 -25.6894)" fill="#E5E5E5" width="329.9" height="244.9"/>
		<rect x="90.9" y="153.8" fill="#FFFFFF" width="329.9" height="244.9"/>
		<g>
			<g>
				<polygon fill="#E5E5E5" points="233.3,346.7 231.9,364.9 279.8,364.9 278.5,346.7 				"/>
				<polygon fill="#B2B2B2" points="277.7,336.7 234.1,336.7 233.3,346.7 278.5,346.7 				"/>
				<path fill="#CBCBCB" d="M291.9,371.2h-72v-4.9c0-1.7,1.3-3,3-3h66c1.7,0,3,1.3,3,3V371.2z"/>
				
					<pattern  id="SVGID_3_" xlink:href="#New_Pattern_Swatch_2" patternTransform="matrix(4.1351 0 0 2.3588 25314.8496 10075.126)">
				</pattern>
				<path fill="url(#SVGID_3_)" d="M361.8,186.6H149.9c-3.6,0-6.5,2.9-6.5,6.5v127.2h133.3h91.5v-91.5V193
					C368.3,189.5,365.4,186.6,361.8,186.6z"/>
				<path fill="#CBCBCB" d="M255,342.1h106.8c3.6,0,6.5-2.9,6.5-6.5v-15.3h-91.5L255,342.1z"/>
				<path fill="#E5E5E5" d="M143.5,320.3v15.3c0,3.6,2.9,6.5,6.5,6.5H255l21.8-21.8H143.5z"/>
			</g>
			<g>
				<polygon fill="#AEAEAE" points="229.9,194.4 213.6,210.8 359,210.8 359,194.4 				"/>
				<polygon fill="#CCCCCC" points="151.3,273 151.3,311.3 190.6,311.3 190.6,233.7 				"/>
				<polygon fill="#CBCBCB" points="190.6,233.7 190.6,311.3 359,311.3 359,210.8 213.6,210.8 				"/>
				<polygon fill="#9F9F9F" points="213.6,210.8 229.9,194.4 190.6,194.4 190.6,210.8 				"/>
				<rect x="151.3" y="194.4" fill="#9F9F9F" width="39.3" height="16.4"/>
				<polygon fill="#C0C0C0" points="190.6,210.8 151.3,210.8 151.3,273 190.6,233.7 				"/>
				<polygon fill="#BEBEBE" points="190.6,233.7 213.6,210.8 190.6,210.8 				"/>
			</g>
			<pattern  id="SVGID_4_" xlink:href="#New_Pattern_Swatch_2" patternTransform="matrix(4.1351 0 0 2.3588 25314.8496 10073.626)">
			</pattern>
			<rect x="157" y="216.4" fill="url(#SVGID_4_)" width="26.2" height="7.2"/>
			<rect x="198.8" y="216.4" fill="#A4A4A4" width="26.2" height="7.2"/>
			<rect x="240.7" y="216.4" fill="#A4A4A4" width="26.2" height="7.2"/>
			<rect x="282.6" y="216.4" fill="#A4A4A4" width="26.2" height="7.2"/>
			<rect x="324.5" y="216.4" fill="#A4A4A4" width="26.2" height="7.2"/>
			<rect x="198.8" y="229.2" fill="#FFFFFF" width="151.9" height="82.1"/>
			<rect x="157" y="198.6" fill="#858585" width="94.9" height="7.3"/>
			<rect x="286.3" y="239.3" fill="#858585" width="53.6" height="64"/>
			<rect x="157" y="239.3" fill="#858585" width="26.2" height="2.5"/>
			<rect x="157" y="244.1" fill="#858585" width="26.2" height="2.5"/>
			<rect x="157" y="248.9" fill="#858585" width="26.2" height="2.5"/>
			<rect x="157" y="253.8" fill="#858585" width="26.2" height="2.5"/>
			<rect x="157" y="258.6" fill="#858585" width="26.2" height="2.5"/>
			<rect x="157" y="263.4" fill="#858585" width="26.2" height="2.5"/>
			<rect x="157" y="268.3" fill="#858585" width="26.2" height="2.5"/>
			<rect x="157" y="273.1" fill="#858585" width="26.2" height="2.5"/>
			<rect x="157" y="277.9" fill="#858585" width="26.2" height="2.5"/>
			<rect x="157" y="282.8" fill="#858585" width="26.2" height="2.5"/>
			<rect x="157" y="287.6" fill="#858585" width="26.2" height="2.5"/>
			<rect x="157" y="292.4" fill="#858585" width="15.8" height="2.5"/>
			<pattern  id="SVGID_5_" xlink:href="#New_Pattern_Swatch_2" patternTransform="matrix(4.1351 0 0 2.3588 25314.8496 10073.626)">
			</pattern>
			<rect x="313.1" y="246.4" fill="url(#SVGID_5_)" width="22" height="3.5"/>
			
				<pattern  id="SVGID_6_" xlink:href="#New_Pattern_Swatch_2" patternTransform="matrix(4.1351 0 0 2.3588 25314.8496 10078.8613)">
			</pattern>
			<rect x="313.1" y="251.7" fill="url(#SVGID_6_)" width="22" height="3.5"/>
			
				<pattern  id="SVGID_7_" xlink:href="#New_Pattern_Swatch_2" patternTransform="matrix(2.6625 0 0 2.3588 13625.1035 10084.0957)">
			</pattern>
			<rect x="313.1" y="256.9" fill="url(#SVGID_7_)" width="14.1" height="3.5"/>
			<rect x="291.3" y="269.3" fill="#727272" width="21.1" height="2"/>
			<rect x="315.2" y="269.3" fill="#727272" width="21.1" height="2"/>
			<rect x="291.3" y="272.7" fill="#727272" width="21.1" height="2"/>
			<rect x="315.2" y="272.7" fill="#727272" width="21.1" height="2"/>
			<rect x="291.3" y="276.2" fill="#727272" width="21.1" height="2"/>
			<rect x="315.2" y="276.2" fill="#727272" width="21.1" height="2"/>
			<rect x="291.3" y="279.6" fill="#727272" width="21.1" height="2"/>
			<rect x="315.2" y="279.6" fill="#727272" width="21.1" height="2"/>
			<rect x="291.3" y="283" fill="#727272" width="21.1" height="2"/>
			<rect x="315.2" y="283" fill="#727272" width="21.1" height="2"/>
			<rect x="291.3" y="286.5" fill="#727272" width="21.1" height="2"/>
			<rect x="315.2" y="286.5" fill="#727272" width="21.1" height="2"/>
			<rect x="291.3" y="289.9" fill="#727272" width="21.1" height="2"/>
			<rect x="315.2" y="289.9" fill="#727272" width="21.1" height="2"/>
			<rect x="291.3" y="293.3" fill="#727272" width="16.4" height="2"/>
			<rect x="315.2" y="293.3" fill="#727272" width="9.5" height="2"/>
			<g>
				<path fill="#AEAEAE" d="M294.4,247.3c-3.4,3.4-3.4,8.9,0,12.2l12.2-12.2C303.3,243.9,297.8,243.9,294.4,247.3z"/>
				<path fill="#9D9D9D" d="M306.7,247.3l-12.2,12.2c3.4,3.4,8.9,3.4,12.2,0C310.1,256.2,310.1,250.7,306.7,247.3z"/>
			</g>
			<rect x="207.6" y="299.7" fill="#BEBEBE" width="74.2" height="3.6"/>
			<rect x="207.6" y="239.3" fill="#CBCBCB" width="33.2" height="2.5"/>
			<rect x="245.6" y="239.3" fill="#CBCBCB" width="33.2" height="2.5"/>
			<rect x="207.6" y="243.5" fill="#CBCBCB" width="33.2" height="2.5"/>
			<rect x="245.6" y="243.5" fill="#CBCBCB" width="33.2" height="2.5"/>
			<rect x="207.6" y="247.8" fill="#CBCBCB" width="33.2" height="2.5"/>
			<rect x="245.6" y="247.8" fill="#CBCBCB" width="33.2" height="2.5"/>
			<rect x="207.6" y="252" fill="#CBCBCB" width="33.2" height="2.5"/>
			<rect x="245.6" y="252" fill="#CBCBCB" width="33.2" height="2.5"/>
			<rect x="207.6" y="256.3" fill="#CBCBCB" width="33.2" height="2.5"/>
			<rect x="245.6" y="256.3" fill="#CBCBCB" width="33.2" height="2.5"/>
			<rect x="207.6" y="260.5" fill="#CBCBCB" width="33.2" height="2.5"/>
			<rect x="245.6" y="260.5" fill="#CBCBCB" width="33.2" height="2.5"/>
			<rect x="207.6" y="264.8" fill="#CBCBCB" width="33.2" height="2.5"/>
			<rect x="245.6" y="264.8" fill="#CBCBCB" width="33.2" height="2.5"/>
			<rect x="207.6" y="269" fill="#CBCBCB" width="33.2" height="2.5"/>
			<rect x="245.6" y="269" fill="#CBCBCB" width="33.2" height="2.5"/>
			<rect x="207.6" y="273.3" fill="#CBCBCB" width="33.2" height="2.5"/>
			<rect x="245.6" y="273.3" fill="#CBCBCB" width="33.2" height="2.5"/>
			<rect x="207.6" y="277.5" fill="#CBCBCB" width="33.2" height="2.5"/>
			<rect x="245.6" y="277.5" fill="#CBCBCB" width="33.2" height="2.5"/>
			<rect x="207.6" y="281.8" fill="#CBCBCB" width="33.2" height="2.5"/>
			<rect x="245.6" y="281.8" fill="#CBCBCB" width="33.2" height="2.5"/>
			<rect x="207.6" y="286" fill="#CBCBCB" width="33.2" height="2.5"/>
			<rect x="245.6" y="286" fill="#CBCBCB" width="33.2" height="2.5"/>
			<rect x="207.6" y="290.3" fill="#CBCBCB" width="19.7" height="2.5"/>
			<rect x="245.6" y="290.3" fill="#CBCBCB" width="20.3" height="2.5"/>
		</g>
		<g>
			<path fill="none" stroke="#838383" stroke-width="5" stroke-linecap="round" stroke-linejoin="round" stroke-miterlimit="10" d="
				M380.7,225.8c-12.9,19.3-39.1,24.4-58.4,11.5"/>
			
				<line fill="none" stroke="#838383" stroke-width="5" stroke-linecap="round" stroke-linejoin="round" stroke-miterlimit="10" x1="320.8" y1="236.3" x2="323.1" y2="248.2"/>
			
				<line fill="none" stroke="#838383" stroke-width="5" stroke-linecap="round" stroke-linejoin="round" stroke-miterlimit="10" x1="320.8" y1="236.3" x2="332.8" y2="233.9"/>
		</g>
		<g>
			<path fill="none" stroke="#838383" stroke-width="5" stroke-linecap="round" stroke-linejoin="round" stroke-miterlimit="10" d="
				M119.2,204.3c16.3-16.5,43-16.7,59.5-0.3"/>
			
				<line fill="none" stroke="#838383" stroke-width="5" stroke-linecap="round" stroke-linejoin="round" stroke-miterlimit="10" x1="180" y1="205.3" x2="179.9" y2="193.1"/>
			
				<line fill="none" stroke="#838383" stroke-width="5" stroke-linecap="round" stroke-linejoin="round" stroke-miterlimit="10" x1="180" y1="205.3" x2="167.8" y2="205.3"/>
		</g>
		<g>
			
				<line fill="none" stroke="#838383" stroke-width="5" stroke-linecap="round" stroke-linejoin="round" stroke-miterlimit="10" x1="184.3" y1="210.8" x2="191.5" y2="218"/>
			
				<line fill="none" stroke="#838383" stroke-width="5" stroke-linecap="round" stroke-linejoin="round" stroke-miterlimit="10" x1="191.5" y1="210.8" x2="184.3" y2="218"/>
		</g>
		<g>
			
				<line fill="none" stroke="#838383" stroke-width="5" stroke-linecap="round" stroke-linejoin="round" stroke-miterlimit="10" x1="172.9" y1="297.9" x2="180" y2="305.1"/>
			
				<line fill="none" stroke="#838383" stroke-width="5" stroke-linecap="round" stroke-linejoin="round" stroke-miterlimit="10" x1="188.1" y1="297.9" x2="180.9" y2="305.1"/>
		</g>
		<g>
			
				<line fill="none" stroke="#838383" stroke-width="5" stroke-linecap="round" stroke-linejoin="round" stroke-miterlimit="10" x1="304" y1="227.9" x2="311.1" y2="235.1"/>
			
				<line fill="none" stroke="#838383" stroke-width="5" stroke-linecap="round" stroke-linejoin="round" stroke-miterlimit="10" x1="319.2" y1="227.9" x2="312" y2="235.1"/>
		</g>
		<path fill="#838383" d="M128.8,219.9h-26.2c-1.2,0-2.2-1-2.2-2.2l0,0c0-1.2,1-2.2,2.2-2.2h26.2c1.2,0,2.2,1,2.2,2.2l0,0
			C131.1,218.9,130.1,219.9,128.8,219.9z"/>
		<path fill="#838383" d="M128.8,228h-26.2c-1.2,0-2.2-1-2.2-2.2l0,0c0-1.2,1-2.2,2.2-2.2h26.2c1.2,0,2.2,1,2.2,2.2l0,0
			C131.1,227,130.1,228,128.8,228z"/>
		<path fill="#838383" d="M128.8,236h-26.2c-1.2,0-2.2-1-2.2-2.2l0,0c0-1.2,1-2.2,2.2-2.2h26.2c1.2,0,2.2,1,2.2,2.2l0,0
			C131.1,235,130.1,236,128.8,236z"/>
		<path fill="#838383" d="M119.3,244.1h-16.7c-1.2,0-2.2-1-2.2-2.2l0,0c0-1.2,1-2.2,2.2-2.2h16.7c1.2,0,2.2,1,2.2,2.2l0,0
			C121.5,243.1,120.5,244.1,119.3,244.1z"/>
		<path fill="#838383" d="M404.8,192.8h-26.2c-1.2,0-2.2-1-2.2-2.2l0,0c0-1.2,1-2.2,2.2-2.2h26.2c1.2,0,2.2,1,2.2,2.2l0,0
			C407.1,191.8,406.1,192.8,404.8,192.8z"/>
		<path fill="#838383" d="M404.8,200.8h-26.2c-1.2,0-2.2-1-2.2-2.2l0,0c0-1.2,1-2.2,2.2-2.2h26.2c1.2,0,2.2,1,2.2,2.2l0,0
			C407.1,199.8,406.1,200.8,404.8,200.8z"/>
		<path fill="#838383" d="M404.8,208.9h-26.2c-1.2,0-2.2-1-2.2-2.2l0,0c0-1.2,1-2.2,2.2-2.2h26.2c1.2,0,2.2,1,2.2,2.2l0,0
			C407.1,207.9,406.1,208.9,404.8,208.9z"/>
		<path fill="#838383" d="M395.3,216.9h-16.7c-1.2,0-2.2-1-2.2-2.2l0,0c0-1.2,1-2.2,2.2-2.2h16.7c1.2,0,2.2,1,2.2,2.2l0,0
			C397.5,215.9,396.5,216.9,395.3,216.9z"/>
		<g>
			<g>
				
					<path fill="none" stroke="#838383" stroke-width="5" stroke-linecap="round" stroke-linejoin="round" stroke-miterlimit="10" d="
					M259.2,366.7c-19.3-13-24.4-39.1-11.4-58.4"/>
				
					<line fill="none" stroke="#838383" stroke-width="5" stroke-linecap="round" stroke-linejoin="round" stroke-miterlimit="10" x1="248.7" y1="306.9" x2="236.8" y2="309.2"/>
				
					<line fill="none" stroke="#838383" stroke-width="5" stroke-linecap="round" stroke-linejoin="round" stroke-miterlimit="10" x1="248.7" y1="306.9" x2="251.1" y2="318.8"/>
			</g>
			<path fill="#838383" d="M320.7,371h-51.1c-1.2,0-2.2-1-2.2-2.2l0,0c0-1.2,1-2.2,2.2-2.2h51.1c1.2,0,2.2,1,2.2,2.2l0,0
				C322.9,370,321.9,371,320.7,371z"/>
			<path fill="#838383" d="M320.7,379.1h-51.1c-1.2,0-2.2-1-2.2-2.2l0,0c0-1.2,1-2.2,2.2-2.2h51.1c1.2,0,2.2,1,2.2,2.2l0,0
				C322.9,378.1,321.9,379.1,320.7,379.1z"/>
			<path fill="#838383" d="M292.9,387.1h-23.3c-1.2,0-2.2-1-2.2-2.2l0,0c0-1.2,1-2.2,2.2-2.2h23.3c1.2,0,2.2,1,2.2,2.2l0,0
				C295.1,386.1,294.1,387.1,292.9,387.1z"/>
		</g>
		<path fill="#838383" d="M176.5,355.1h-65.4c-1.2,0-2.2-1-2.2-2.2l0,0c0-1.2,1-2.2,2.2-2.2h65.4c1.2,0,2.2,1,2.2,2.2l0,0
			C178.7,354.1,177.7,355.1,176.5,355.1z"/>
		<path fill="#838383" d="M176.5,363.2h-65.4c-1.2,0-2.2-1-2.2-2.2l0,0c0-1.2,1-2.2,2.2-2.2h65.4c1.2,0,2.2,1,2.2,2.2l0,0
			C178.7,362.2,177.7,363.2,176.5,363.2z"/>
		<g>
			
				<pattern  id="SVGID_8_" xlink:href="#New_Pattern_Swatch_2" patternTransform="matrix(6.7542 -4.3039 2.4551 3.8528 63594.1914 -12933.583)">
			</pattern>
			<path fill="url(#SVGID_8_)" d="M332.2,422.3l-4.3,2.7l-5.8,26c0,0,0.1,0,0.1-0.1l20.1-12.8c3.2-2.1,4.2-6.3,2.1-9.6l-2.7-4.2
				C339.7,421.2,335.4,420.3,332.2,422.3z"/>
			<path fill="#676767" d="M312.1,435.1c-3.2,2.1-4.2,6.3-2.1,9.6l2.7,4.2c2,3.2,6.2,4.1,9.5,2.2l5.8-26L312.1,435.1z"/>
		</g>
		<g>
			
				<rect x="63.9" y="380.2" transform="matrix(-1 1.262815e-03 -1.262815e-03 -1 174.7449 793.7943)" fill="#CBCBCB" width="46.5" height="33.4"/>
			<path fill="#CBCBCB" d="M108.6,322.6l-43.4,0c-6.4,0-11.7,5.3-11.7,11.8l0,37.5c0,9.4,7.6,17.1,17,17.1l38.1,0
				c6.4,0,11.7-5.3,11.7-11.8l0-42.8C120.3,327.9,115,322.6,108.6,322.6"/>
			<path fill="#CBCBCB" d="M154.3,318.2L154.3,318.2c4.2,3.3,5,9.3,1.9,13.6l-34.3,53.1c-3.5,4.8-11,7.2-16.7,3.2
				c-7.6-5.3-5.3-14.2-2-18.8l36.6-49.3C143.2,315.5,149.8,314.6,154.3,318.2"/>
			<path fill="#CBCBCB" d="M60.1,343.9L60.1,343.9c-3.7,0-6.7-3-6.7-6.7v-20.3c0-3.7,3-6.7,6.7-6.7l0,0c3.7,0,6.7,3,6.7,6.7v20.3
				C66.8,340.9,63.8,343.9,60.1,343.9z"/>
			<path fill="#CBCBCB" d="M78,340.5L78,340.5c-3.7,0-6.7-3-6.7-6.7v-24.4c0-3.7,3-6.7,6.7-6.7h0c3.7,0,6.7,3,6.7,6.7v24.4
				C84.7,337.5,81.7,340.5,78,340.5z"/>
			<path fill="#CBCBCB" d="M95.6,340.5L95.6,340.5c-3.7,0-6.7-3-6.7-6.7v-26.1c0-3.7,3-6.7,6.7-6.7h0c3.7,0,6.7,3,6.7,6.7v26.1
				C102.3,337.5,99.3,340.5,95.6,340.5z"/>
			<path fill="#CBCBCB" d="M113.6,341.6L113.6,341.6c-3.7,0-6.7-3-6.7-6.7v-65.9c0-3.7,3-6.7,6.7-6.7l0,0c3.7,0,6.7,3,6.7,6.7v65.9
				C120.3,338.6,117.3,341.6,113.6,341.6z"/>
			<g>
				<polygon fill="#FFFFFF" points="113.6,424.6 113.6,401.9 82,401.9 104.7,424.6 				"/>
				<polygon fill="#F1F1F1" points="82,401.9 60.9,401.9 60.9,424.6 104.7,424.6 				"/>
			</g>
			<polygon fill="#2F2F2F" points="74.9,411.6 54.2,411.6 54.2,500.7 120.3,500.7 120.3,411.6 			"/>
		</g>
		<g>
			<defs>
				<polygon id="SVGID_9_" points="247.1,0.7 168.9,0.7 0,0.7 0,169.6 0,247.8 0,311.4 0,347.8 0,500.7 225.1,500.7 274.2,500.7 
					500,500.7 500,347.8 500,311.4 500,225.8 500,0.7 				"/>
			</defs>
			<clipPath id="SVGID_10_">
				<use xlink:href="#SVGID_9_"  overflow="visible"/>
			</clipPath>
			<g clip-path="url(#SVGID_10_)">
				<path fill="#BBBBBB" d="M419.8,321.7L419.8,321.7c-1.6,5.6-7.4,8.9-13,7.3l-34.1-9.5c-5.6-1.6-8.9-7.4-7.3-13l0,0
					c1.6-5.6,7.4-8.9,13-7.3l34.1,9.5C418.1,310.3,421.4,316.1,419.8,321.7z"/>
				<path fill="#BBBBBB" d="M341.8,342.2L341.8,342.2c-3.5-3-3.9-8.2-1-11.7l25.8-30.6c3-3.5,8.2-3.9,11.7-1l0,0
					c3.5,3,3.9,8.2,1,11.7l-25.8,30.6C350.6,344.7,345.3,345.2,341.8,342.2z"/>
				<polygon fill="#CBCBCB" points="468.3,380.8 435.3,413.6 381.3,359.5 417.5,305.4 				"/>
				<g>
					<polygon fill="#FFFFFF" points="440.9,423.7 424.8,407.6 447.2,385.3 447.2,417.4 					"/>
					<polygon fill="#F1F1F1" points="447.2,385.3 462.1,370.4 478.1,386.4 447.2,417.4 					"/>
				</g>
				<polygon fill="#2F2F2F" points="473.6,372.5 459.1,387.1 426.9,419.2 508.7,500.9 555.4,454.1 				"/>
				<path fill="#CBCBCB" d="M419.8,314.7L419.8,314.7c-1.6,5.6-7.4,8.9-13,7.3l-34.1-9.5c-5.6-1.6-8.9-7.4-7.3-13l0,0
					c1.6-5.6,7.4-8.9,13-7.3l34.1,9.5C418.1,303.3,421.4,309.1,419.8,314.7z"/>
				<path fill="#CBCBCB" d="M335.7,342.3L335.7,342.3c-3.5-3-3.9-8.2-1-11.7l31-36.8c3-3.5,8.2-3.9,11.7-1l0,0c3.5,3,3.9,8.2,1,11.7
					l-31,36.8C344.4,344.9,339.2,345.3,335.7,342.3z"/>
				<g>
					<path fill="#626262" d="M306.4,362.3c-0.1-0.9-1.7-1.6-2.1-2.5l-5.8,2.2c0.1,0.3,0.3,0.5,0.6,0.5l7,0.5
						C306.3,362.9,306.4,362.6,306.4,362.3z"/>
					<path fill="#515151" d="M304.3,359.8c-0.4-0.9,0.4-2.5-0.1-3.3c-0.2-0.2-0.4-0.3-0.7-0.4l-4.8,5.1c-0.2,0.2-0.2,0.6-0.1,0.8
						L304.3,359.8C304.3,359.8,304.3,359.8,304.3,359.8z"/>
					<path fill="#515151" d="M477.8,293.2l-3.4-8.9l-161.5,62.1c2.2,2.5,3.8,5.3,5,8.3L477.8,293.2z"/>
					<path fill="#626262" d="M319.7,364.1l161.5-62.1l-3.4-8.9l-159.9,61.5C319,357.7,319.6,361,319.7,364.1z"/>
					<polygon fill="#444444" points="312.9,346.4 312.9,346.4 312.9,346.4 					"/>
					<path fill="#ECECEC" d="M317.8,354.7l-13.5,5.2c0.4,0.9,2,1.6,2.1,2.5c0,0.3-0.1,0.5-0.3,0.8l13.5,1
						C319.6,361,319,357.7,317.8,354.7z"/>
					<path fill="#E6E6E6" d="M312.9,346.4l-9.3,9.8c0.3,0.1,0.5,0.2,0.7,0.4c0.6,0.7-0.2,2.3,0.1,3.3c0,0,0,0,0,0l13.5-5.2
						C316.7,351.7,315,348.9,312.9,346.4L312.9,346.4L312.9,346.4z"/>
					<polygon fill="#A9A9A9" points="312.9,346.4 312.9,346.4 312.9,346.4 					"/>
				</g>
				<path fill="#CBCBCB" d="M346.2,352.1L346.2,352.1c-2.3,4.7-0.5,10.4,4.1,12.9l53.2,32.6c5.1,2.8,12.8,1.7,16.2-4.3
					c4.5-7.9-1.4-14.9-6.3-17.5l-53.6-28.2C354.9,344.9,348.7,347,346.2,352.1"/>
			</g>
		</g>
	</g>
</g>
<g id="DESIGNED_BY_FREEPIK">
</g>
</svg>
