<?xml version="1.0" encoding="utf-8"?>
<!-- Generator: Adobe Illustrator 18.0.0, SVG Export Plug-In . SVG Version: 6.00 Build 0)  -->
<!DOCTYPE svg PUBLIC "-//W3C//DTD SVG 1.1//EN" "http://www.w3.org/Graphics/SVG/1.1/DTD/svg11.dtd">
<svg version="1.1" id="Layer_1" xmlns="http://www.w3.org/2000/svg" xmlns:xlink="http://www.w3.org/1999/xlink" x="0px" y="0px"
	 viewBox="0 0 800 800" enable-background="new 0 0 800 800" xml:space="preserve">
<g opacity="0.1">
	<g>
		<path d="M453.3,245v360.6h54V245H453.3z M493.8,593.4h-27V571h27V593.4z M493.8,558.4l-27,0V536l27,0V558.4z M493.8,523.4l-27,0
			v-22.3h27V523.4z M493.8,488.4l-27,0v-22.3l27,0V488.4z M493.8,453.4h-27v-22.3l27,0V453.4z M493.8,418.4h-27v-22.3h27V418.4z
			 M493.8,383.4h-27v-22.3h27V383.4z M493.8,348.5l-27,0v-22.3l27,0V348.5z M493.8,313.5l-27,0v-22.3l27,0V313.5z M493.8,278.5h-27
			v-22.3h27V278.5z"/>
		<path fill="#515151" d="M264.3,324.5V245h-54v360.6l54,0v-79.5V324.5z M250.8,593.4h-27V571h27V593.4z M250.8,558.4h-27V536l27,0
			V558.4z M250.8,523.4l-27,0l0-22.3l27,0V523.4z M250.8,488.4h-27l0-22.3h27V488.4z M250.8,453.4h-27v-22.3h27V453.4z M250.8,418.4
			h-27v-22.3h27V418.4z M250.8,383.5l-27,0l0-22.3h27V383.5z M250.8,348.5l-27,0v-22.3l27,0L250.8,348.5z M250.8,313.5h-27l0-22.3
			h27V313.5z M250.8,278.5h-27l0-22.3l27,0V278.5z"/>
		<rect x="264.3" y="245" fill="#727272" width="94.5" height="79.5"/>
		<polygon fill="#FFFFFF" points="264.3,526.1 264.3,605.6 358.8,605.6 358.8,526.1 		"/>
		<polygon fill="#8D8D8D" points="264.3,324.5 264.3,526.1 358.8,526.1 358.8,324.5 		"/>
		<rect x="358.8" y="245" fill="#313131" width="94.5" height="79.5"/>
		<polygon fill="#D3D3D3" points="453.3,526.1 358.8,526.1 358.8,605.6 453.3,605.6 		"/>
		<polygon fill="#4D4D4D" points="358.8,526.1 453.3,526.1 453.3,324.5 358.8,324.5 		"/>
		<path fill="#FFFFFF" d="M348.3,387.7l-0.8-0.6c-2.8-2.1-5.3-2.5-7.8-1.1c-1.5,0.9-2,2.8-2,4.4v70c0,1.5,0.7,3.6,2.3,4.5
			c2.3,1.2,5.3,0.6,8.1-1.4l10.8-8.5v-59.1L348.3,387.7z"/>
		<path fill="#FFFFFF" d="M358.8,489c-35.9,0-65-28.5-65-63.8c0-35.2,29.1-63.7,65-63.7v-9.8c-41.4,0-75,32.9-75,73.5
			c0,40.7,33.6,73.6,75,73.6V489z"/>
		<path fill="#D3D3D3" d="M391.5,421.4l-32.8-25.5V455l32.8-25.6C393.8,427,393.8,423.7,391.5,421.4z"/>
		<path fill="#D3D3D3" d="M433.8,425.3c0-40.6-33.6-73.5-75-73.5v9.8c35.9,0,65,28.5,65,63.7c0,35.2-29.1,63.7-65,63.8v9.9
			C400.2,498.9,433.8,465.9,433.8,425.3z"/>
	</g>
	<g>
		<rect x="326.8" y="567.2" fill="#515151" width="5.4" height="53.3"/>
		<rect x="384.7" y="567.2" width="5.4" height="53.3"/>
		<rect x="349.4" y="625.2" transform="matrix(0.7072 0.707 -0.707 0.7072 574.2078 -53.7466)" width="5.2" height="82.5"/>
		
			<rect x="362.3" y="625.2" transform="matrix(-0.7071 0.7071 -0.7071 -0.7071 1094.1232 879.5706)" fill="#515151" width="5.2" height="82.5"/>
		<path fill="#FFFFFF" d="M391,620.5h-64.5c-6.4,0-11.6,5.2-11.6,11.6h87.8C402.7,625.7,397.5,620.5,391,620.5z"/>
		<path fill="#727272" d="M326.5,643.7H391c6.4,0,11.6-5.2,11.6-11.6h-87.8C314.9,638.5,320.1,643.7,326.5,643.7z"/>
		<rect x="332.2" y="573.7" fill="#8D8D8D" width="26.2" height="23.9"/>
		<rect x="358.4" y="573.7" fill="#4D4D4D" width="26.2" height="23.9"/>
	</g>
	<path opacity="0.5" fill="#727272" d="M632.1,641.7c-0.2-0.9-1.1-3.3-2.9-5.6l-20.4-19.8c-0.7-0.6-1.8-0.7-2.6-0.1l-7.5,5.5
		c-0.7,0.5-1.3,1.7-1.3,2.6l0.2,4.1c0,0.9,0.6,1.1,1.3,0.5l7.4-6.9c0.7-0.6,1.7-0.6,2.3,0.1l11.4,13h-20.5c-4.4,0-8.1,2.9-9.4,6.8
		c-1.1,0-2.3-0.1-3.5-0.1c-0.1,0-0.1,0-0.2,0c-1.2,0-2.5,0-3.7,0.1c-1.3-4-5-6.8-9.4-6.8h-20.5l11.4-13c0.6-0.7,1.6-0.7,2.3-0.1
		l7.4,6.9c0.7,0.6,1.2,0.4,1.3-0.5l0.2-4.1c0-0.9-0.5-2.1-1.3-2.6l-7.5-5.5c-0.7-0.5-1.9-0.5-2.6,0.1l-20.4,19.8
		c-1.8,2.3-2.7,4.6-2.9,5.5c-0.4,1.1-0.6,2.2-0.6,3.4l0,9.7c0,5.5,4.4,9.9,9.9,9.9h23.3c5.5,0,9.9-4.4,9.9-9.9v-8.3
		c1,0,2.1-0.1,3.2-0.1c0.1,0,0.1,0,0.2,0c1,0,2,0,3,0v8.4c0,5.5,4.4,9.9,9.9,9.9h23.3c5.4,0,9.9-4.4,9.9-9.9V645
		C632.7,643.9,632.5,642.8,632.1,641.7z M578.8,654.8c0,3-2.4,5.4-5.4,5.4h-23.3c-3,0-5.4-2.4-5.4-5.4V645c0-0.2,0-0.4,0-0.6
		c0.1-1.2,0.6-2.2,1.4-3c-0.7,0.8-1.2,1.8-1.3,3l4.1-4.6c0.2,0,0.3-0.1,0.3-0.1c0.3-0.1,0.6-0.1,1-0.1h23.3c0.3,0,0.7,0,1,0.1
		c0.1,0,0.2,0,0.2,0c0.3,0.1,0.6,0.2,0.9,0.3c0.4,0.2,0.6,0.3,0.8,0.4c0.1,0.1,0.2,0.1,0.3,0.2c0.2,0.1,0.4,0.3,0.5,0.5
		c0.1,0.1,0.2,0.2,0.3,0.3c0.1,0.1,0.3,0.3,0.4,0.4c0.1,0.1,0.2,0.2,0.2,0.3c0.2,0.3,0.2,0.4,0.3,0.6c0.1,0.1,0.1,0.3,0.2,0.4
		c0.1,0.2,0.1,0.4,0.2,0.6c0,0.1,0,0.2,0.1,0.3c0.1,0.3,0.1,0.6,0.1,0.9l0,1.6L578.8,654.8z M628.3,654.8c0,3-2.4,5.4-5.4,5.4h-23.3
		c-3,0-5.4-2.4-5.4-5.4v-8.1v-1.6c0-0.3,0-0.6,0.1-1c0-0.1,0-0.2,0.1-0.3c0.1-0.2,0.1-0.5,0.2-0.7c0-0.1,0-0.1,0.1-0.2
		c0.1-0.3,0.3-0.5,0.4-0.8c0.1-0.1,0.1-0.2,0.2-0.2c0.1-0.2,0.3-0.4,0.4-0.5c0.1-0.1,0.1-0.1,0.2-0.2c0.2-0.2,0.4-0.4,0.7-0.5
		c0.1-0.1,0.2-0.1,0.2-0.2c0.2-0.1,0.5-0.3,0.7-0.4c0.4-0.2,0.7-0.3,1-0.3c0.1,0,0.2,0,0.2,0c0.3-0.1,0.6-0.1,1-0.1h23.3
		c0.3,0,0.6,0,0.9,0.1c0.1,0,0.2,0,0.2,0c2.3,0.6,3.9,2.4,4.2,4.7c0,0.2,0.1,0.4,0.1,0.6L628.3,654.8z"/>
	<g opacity="0.5">
		<path fill="#727272" d="M754.7,411.2v-73.8l-55.4,0l-55.4,0v73.8h46.9v11.9h-26.3v7l34.8,0l34.8,0v-7h-26.3v-11.9H754.7z
			 M658.3,396.8v-44.9h41h41v44.9h-41H658.3z M702.8,404c0,2-1.6,3.5-3.5,3.5c-2,0-3.5-1.6-3.5-3.5c0-1.9,1.6-3.5,3.5-3.5
			C701.2,400.5,702.8,402.1,702.8,404z"/>
		<polygon fill="#727272" points="675.8,373 670.5,373 670.5,367.2 667.7,367.2 667.7,381.6 670.5,381.6 670.5,375.5 675.8,375.5 
			675.8,381.6 678.6,381.6 678.6,367.2 675.8,367.2 		"/>
		<path fill="#727272" d="M690.7,369c-0.6-0.6-1.3-1.1-2.2-1.5c-0.9-0.4-2-0.5-3.3-0.5c-0.3,0-0.6,0-1,0c-0.4,0-0.7,0-1.1,0
			c-0.4,0-0.8,0-1.1,0.1c-0.4,0-0.7,0.1-1,0.1v14.4c0.2,0,0.4,0.1,0.8,0.1c0.4,0,0.7,0,1.1,0.1c0.4,0,0.8,0,1.1,0.1
			c0.4,0,0.7,0,0.9,0c1.4,0,2.5-0.2,3.5-0.6c0.9-0.4,1.7-1,2.3-1.7c0.6-0.7,1-1.5,1.2-2.4c0.2-0.9,0.4-1.8,0.4-2.8
			c0-1.1-0.1-2-0.4-2.9C691.7,370.4,691.3,369.6,690.7,369z M689.2,376.1c-0.1,0.6-0.3,1.2-0.6,1.6c-0.3,0.5-0.7,0.8-1.3,1.1
			c-0.5,0.3-1.2,0.4-2,0.4c-0.1,0-0.2,0-0.3,0c-0.1,0-0.3,0-0.4,0c-0.2,0-0.3,0-0.4,0c-0.1,0-0.2,0-0.3,0v-9.6
			c0.1,0,0.4-0.1,0.7-0.1c0.3,0,0.6,0,0.9,0c0.8,0,1.4,0.1,1.9,0.4c0.5,0.3,0.9,0.7,1.2,1.1c0.3,0.5,0.5,1,0.6,1.5
			c0.1,0.6,0.2,1.1,0.2,1.7C689.4,374.9,689.3,375.5,689.2,376.1z"/>
		<polygon fill="#727272" points="713.6,383.9 719.8,379.4 726,383.9 723.6,376.6 729.8,372.1 722.2,372.1 719.8,364.8 717.4,372.1 
			709.7,372.1 716,376.6 		"/>
	</g>
	<g opacity="0.5">
		<path fill="#727272" d="M526.8,172.6c0,6.8,5.5,12.3,12.4,12.3v-24.5C532.3,160.4,526.8,165.9,526.8,172.6z"/>
		<polygon fill="#727272" points="545.3,188.2 551.5,188.2 551.5,172.6 551.5,157.1 549.1,157.1 545.3,157.1 		"/>
		<path fill="#727272" d="M605.3,160.4v24.5c6.8,0,12.4-5.5,12.4-12.3C617.7,165.9,612.2,160.4,605.3,160.4z"/>
		<polygon fill="#727272" points="593,157.1 593,172.6 593,188.2 599.2,188.2 599.2,157.1 595.4,157.1 		"/>
		<path fill="#727272" d="M572.3,121.4c-14.8,0-30.7,11.2-30.7,35.7h3.8h3.8c0-22.2,14.5-28.2,23.1-28.2c8.6,0,23.1,5.9,23.1,28.2
			h3.8h3.8C602.9,132.6,587,121.4,572.3,121.4z"/>
	</g>
	<g opacity="0.5">
		<path fill="#727272" d="M215,134.5v24.4c0,17.3-14,31.4-31.2,31.5c-17.3-0.1-31.9-14.2-31.9-31.5v-24.4h-6.9v24.4
			c0,20.1,15.4,36.6,35,38.3v15.6h3.5c0,0,3.5,0,3.5,0v-15.6c19.6-1.8,35-18.3,35-38.3v-24.4H215z"/>
		<polygon fill="#727272" points="186.9,212.9 183.5,212.9 180,212.9 162.2,216.9 162.2,222.1 183.5,222.1 204.7,222.1 204.7,216.9 
					"/>
		<path fill="#727272" d="M183.5,105.4c-14.1,0-25.5,11.4-25.5,25.5v26.2c0,14.1,11.4,25.5,25.5,25.5c14.1,0,25.5-11.4,25.5-25.5
			v-26.2C208.9,116.9,197.5,105.4,183.5,105.4z"/>
	</g>
	<g>
		<path fill="#515151" d="M360.6,246.5v-70.5H406v-8.7h-53c-7.4,0-13.4,6-13.4,13.4l0,61c0,7.4,6,13.4,13.4,13.4h53v-8.7H360.6z"/>
		<rect x="360.6" y="176.1" fill="#FFFFFF" width="45.4" height="70.5"/>
		<path d="M472.5,241.8v-61c0-7.4-6-13.4-13.4-13.4h-53v8.7h45.4l0,70.5H406v8.7h53C466.4,255.3,472.5,249.2,472.5,241.8z"/>
		<rect x="406" y="176.1" fill="#D3D3D3" width="45.4" height="70.5"/>
		<path fill="#515151" d="M402.4,198.2l-0.3-0.2c-1-0.7-1.8-0.9-2.7-0.4c-0.5,0.3-0.7,1-0.7,1.5v24.3c0,0.5,0.2,1.2,0.8,1.6
			c0.8,0.4,1.8,0.2,2.8-0.5l3.7-2.9v-20.5L402.4,198.2z"/>
		<path fill="#515151" d="M406,233.5c-12.5,0-22.6-9.9-22.6-22.2c0-12.2,10.1-22.2,22.6-22.2v-3.4c-14.4,0-26.1,11.4-26.1,25.6
			c0,14.1,11.7,25.6,26.1,25.6V233.5z"/>
		<path d="M417.4,210l-11.4-8.9v20.5l11.4-8.9C418.2,211.9,418.2,210.7,417.4,210z"/>
		<path d="M432.1,211.3c0-14.1-11.7-25.6-26.1-25.6v3.4c12.5,0,22.6,9.9,22.6,22.2c0,12.3-10.1,22.2-22.6,22.2v3.4
			C420.4,236.9,432.1,225.4,432.1,211.3z"/>
		<path fill="#ABABAB" d="M451.7,261c-3.4-3-8.1-2.7-11.1,1.1l-12.6,17l0-10.3v-7.5l0-37.3c0-4.2-3.4-7.6-7.6-7.6
			c-3,0-6.8,2.4-6.8,7.1l0,30c0,0.7-0.3,0.9-0.6,0.9c-0.3,0-0.6-0.3-0.6-0.9l0-1.6c-0.1-4-3.9-6.6-7.2-6.6c-3.4,0-7.2,2.2-7.3,6.7
			l-0.2,6c0,0.3-0.1,0.5-0.4,0.5c-0.3,0-0.4-0.2-0.5-0.3l-0.1-0.5c-0.3-3.6-3.2-6.4-6.3-6.5c-4.1-0.1-7.2,3.2-7.2,7.2v4.9
			c0,0.3-0.1,0.7-0.5,0.7c-0.3,0-0.5-0.3-0.6-0.4l-0.2-0.3c-1.3-2.3-2.6-3.6-5.6-3.4c-3.7,0.3-6.8,3-6.8,6.8v6.8v13.6
			c0,0.1,0,0.2,0,0.3c16.6,10.7,36.3,17,57.5,17.3l25.3-32C455.3,269.1,455.1,264,451.7,261z"/>
		<path fill="#D2D2D2" d="M419.9,313.5l32.4-41c3-3.4,2.7-8.5-0.6-11.5c-3.4-3-8.1-2.7-11.1,1.1l-12.6,17l0-4.3l0-6v-6.1
			c-1.7-2-4.3-3.4-7.2-3.5c-2.7-0.1-5.2,0.9-7,2.6c-1.8-2.4-4.7-3.9-8-3.8c-3.4,0.1-6.4,1.8-8,4.5c-1.8-1.2-4.1-1.8-6.5-1.6
			c-3.7,0.4-6.6,2.7-8,5.7c-2-1.1-4.6-1.5-7.2-1c-2.8,0.6-5.1,2.1-6.5,4.1l0,3.7l0,5.4v8.2c0,0.1,0,22.8,0,26.5H419.9z"/>
	</g>
	<g>
		<polygon points="204.4,589.5 204.6,589.1 203.7,588.5 199.2,582.3 197.1,583.8 194.9,582.3 190.5,588.5 189.6,589.1 189.8,589.5 
			138.1,662.1 152.7,662.1 197.1,599.7 241.5,662.1 256.1,662.1 		"/>
		<polygon fill="#727272" points="256.1,532 138.1,532 138.1,578 256.1,578 		"/>
		<rect x="138.1" y="578" fill="#313131" width="118" height="46"/>
		<rect x="123.7" y="560.7" fill="#FFFFFF" width="9.2" height="17.3"/>
		<rect x="123.7" y="578" width="9.2" height="17.3"/>
		<path fill="#FFFFFF" d="M268.2,565.8l-8.7,12.3c0,0,8.7,0,8.7,0L268.2,565.8z"/>
		<path d="M268.2,590.3l0-12.3h-8.7C259.5,578,268.2,590.3,268.2,590.3z"/>
		<polygon fill="#FFFFFF" points="285.4,578 285.4,541.5 276.7,553.7 276.7,578 		"/>
		<polygon points="276.7,602.3 285.4,614.5 285.4,578 276.7,578 		"/>
		<polygon fill="#727272" points="276.7,578 276.7,553.7 268.2,565.8 268.2,578 		"/>
		<polygon fill="#313131" points="268.2,578 268.2,590.3 276.7,602.3 276.7,578 		"/>
		<path fill="#FFFFFF" d="M187.1,513.6c0,19.9-16.2,36.1-36.1,36.1c-19.9,0-36.1-16.2-36.1-36.1c0-19.9,16.2-36.1,36.1-36.1
			C171,477.6,187.1,493.7,187.1,513.6z"/>
		<g>
			<path d="M149.1,533.1c0,5.1-4.2,9.3-9.3,9.3c-5.1,0-9.3-4.2-9.3-9.3c0-5.1,4.2-9.3,9.3-9.3C144.9,523.8,149.1,528,149.1,533.1z"
				/>
		</g>
		<g>
			<path d="M133.2,521.7c-4.4,2.6-10.1,1-12.7-3.4c-2.6-4.4-1-10.1,3.4-12.7c4.4-2.6,10.1-1,12.7,3.4
				C139.2,513.4,137.7,519.1,133.2,521.7z"/>
		</g>
		<g>
			<path d="M135.2,502.2c-4.4-2.6-6-8.2-3.4-12.7c2.6-4.4,8.3-6,12.7-3.4c4.4,2.6,6,8.2,3.4,12.7
				C145.3,503.3,139.6,504.8,135.2,502.2z"/>
		</g>
		<g>
			<path d="M153,494.2c0-5.1,4.2-9.3,9.3-9.3c5.1,0,9.3,4.2,9.3,9.3c0,5.1-4.2,9.3-9.3,9.3C157.1,503.5,153,499.3,153,494.2z"/>
		</g>
		<g>
			<path d="M168.9,505.6c4.4-2.6,10.1-1,12.7,3.4c2.6,4.5,1,10.1-3.4,12.7c-4.4,2.6-10.1,1-12.7-3.4
				C162.9,513.8,164.4,508.2,168.9,505.6z"/>
		</g>
		<g>
			<path d="M166.9,525c4.4,2.6,6,8.2,3.4,12.7c-2.6,4.4-8.2,6-12.7,3.4c-4.4-2.6-6-8.2-3.4-12.7C156.8,524,162.5,522.5,166.9,525z"
				/>
		</g>
		<path fill="#FFFFFF" d="M286.3,503.3c0,25.6-20.8,46.5-46.5,46.5c-25.7,0-46.4-20.8-46.4-46.5c0-25.7,20.8-46.5,46.4-46.5
			C265.5,456.8,286.3,477.6,286.3,503.3z"/>
		<g>
			<path d="M237.3,528.3c0,6.6-5.4,12-12,12c-6.6,0-12-5.3-12-12c0-6.6,5.4-12,12-12C232,516.3,237.3,521.7,237.3,528.3z"/>
		</g>
		<g>
			<path d="M216.9,513.6c-5.7,3.3-13,1.3-16.3-4.4c-3.3-5.7-1.3-13,4.4-16.3c5.7-3.3,13-1.3,16.3,4.4
				C224.6,503,222.6,510.3,216.9,513.6z"/>
		</g>
		<g>
			<path d="M219.4,488.6c-5.7-3.3-7.7-10.6-4.4-16.3c3.3-5.7,10.6-7.7,16.3-4.4c5.7,3.3,7.7,10.6,4.4,16.3
				C232.4,489.9,225.1,491.9,219.4,488.6z"/>
		</g>
		<g>
			<path d="M242.3,478.2c0-6.6,5.4-12,12-12c6.6,0,12,5.4,12,12c0,6.6-5.4,12-12,12C247.7,490.2,242.3,484.8,242.3,478.2z"/>
		</g>
		<g>
			<path d="M262.8,492.9c5.7-3.3,13-1.3,16.3,4.4c3.3,5.7,1.3,13-4.4,16.3c-5.7,3.3-13,1.3-16.3-4.4
				C255.1,503.5,257.1,496.2,262.8,492.9z"/>
		</g>
		<g>
			<path d="M260.3,517.9c5.7,3.3,7.7,10.6,4.4,16.3c-3.3,5.7-10.6,7.7-16.3,4.4c-5.7-3.3-7.7-10.6-4.4-16.3
				C247.2,516.6,254.5,514.6,260.3,517.9z"/>
		</g>
		<rect x="165.6" y="599.7" width="62.9" height="10.8"/>
	</g>
	<g>
		<path fill="#8D8D8D" d="M529.3,522.7c-10.3,0-20.8-3.7-31.2-12.6c-1-0.9-2.1-1.7-3.2-2.6c-18.5-14.3-39.6-16.3-57.3-17.7
			c-6.1,12.8-10.4,27.4-12.3,43.3c-6.3,52,15.6,98,49.3,106c1.6,0.4,3.3,0.7,5,0.9c33.1,4,64.8-28.8,75.6-75.4
			C544.9,553.1,535.9,538.9,529.3,522.7z M438.8,544.9c0,0,9.4-7.7,20.9-7.5c11.5,0.1,20.7,8,20.7,8s-9.4,8.3-20.9,8.2
			C448,553.4,438.8,544.9,438.8,544.9z M485.6,603.6c-0.5-0.1-1.1-0.1-1.6-0.2c-11-1.2-21-0.9-28.6,0.6c3.6-8.1,16.2-13,30.5-11.3
			c0.1,0,0.2,0,0.3,0.1c13.7,1.7,24.4,9.1,26.4,17.4C505.4,607.2,496,604.8,485.6,603.6z M520,560.9c-11.2-2.6-18.5-12.3-18.5-12.3
			s11-6.1,22.2-3.4c11.2,2.6,18.3,13,18.3,13S531.2,563.5,520,560.9z"/>
		<path d="M480.4,545.3c0,0-9.2-7.8-20.7-8c-11.5-0.1-20.9,7.5-20.9,7.5s9.2,8.5,20.7,8.6C471,553.7,480.4,545.3,480.4,545.3z"/>
		<path d="M501.5,548.5c0,0,7.3,9.7,18.5,12.3c11.2,2.6,22.1-2.8,22.1-2.8s-7.1-10.3-18.3-13C512.5,542.5,501.5,548.5,501.5,548.5z"
			/>
		<path d="M486.1,592.7c-0.1,0-0.2,0-0.3-0.1c-14.2-1.7-26.9,3.2-30.5,11.3c7.6-1.5,17.7-1.8,28.6-0.6c0.5,0.1,1.1,0.1,1.6,0.2
			c10.4,1.3,19.8,3.7,26.9,6.6C510.5,601.8,499.8,594.5,486.1,592.7z"/>
		<path fill="#727272" d="M658.7,469.3c-4.1-11.6-9.4-22.2-15.6-31.6c-11.3,17.8-29.2,29.9-55.3,23.1c-1.3-0.3-2.5-0.6-3.8-0.9
			c-23-4.6-42.9,3-59.3,9.6c0.2,14.1,2.9,29.2,8.2,44.2c15.8,44.7,50,74.6,81.3,74.2c5-0.1,10-0.9,14.8-2.6
			C663.7,573.1,677,521.1,658.7,469.3z M545.9,514.7c0,0,7.2-10.3,18.4-12.9c11.2-2.6,22.2,3.5,22.2,3.5s-7.3,9.7-18.5,12.3
			C556.8,520.1,545.9,514.7,545.9,514.7z M617.6,561.6c-2.2,0.6-4.5,0.9-6.7,1c-11.7,0.4-23.2-6.3-28.4-14.4
			c7.2,0.5,16-0.7,25.3-3.4c1.6-0.5,3.1-1,4.7-1.5c9.9-3.5,18.4-8.2,24.5-13.3C637.7,541,630.8,557.8,617.6,561.6z M628.8,496
			c-10.4,5-22.4,1.5-22.4,1.5s5-11,15.4-16c10.4-5,22.1-2.1,22.1-2.1S639.1,491,628.8,496z"/>
		<path d="M586.5,505.3c0,0-11-6.1-22.2-3.5c-11.2,2.6-18.4,12.9-18.4,12.9s10.8,5.4,22,2.8C579.2,514.9,586.5,505.3,586.5,505.3z"
			/>
		<path d="M621.7,481.5c-10.4,5-15.4,16-15.4,16s12.1,3.5,22.4-1.5c10.3-5,15.1-16.7,15.1-16.7S632.1,476.5,621.7,481.5z"/>
		<path d="M637,529.9c-6.1,5-14.6,9.8-24.5,13.3c-1.6,0.6-3.1,1.1-4.7,1.5c-9.3,2.8-18.1,3.9-25.3,3.4c5.2,8.1,16.7,14.8,28.4,14.4
			c2.3-0.1,4.5-0.4,6.7-1C630.8,557.8,637.7,541,637,529.9z"/>
	</g>
	<g>
		<path fill="#515151" d="M146.1,395c6.5-4.8,10.8-12.6,10.8-21.4c0-8.8-4.3-16.5-10.8-21.4h18.2l0-18.8H91.5v80.4h72.7l0-18.8
			H146.1z"/>
		<path d="M237,333.5h-72.7l0,18.8l18.2,0c-6.5,4.9-10.8,12.6-10.8,21.4c0,8.8,4.3,16.5,10.8,21.4h-18.2l0,18.8H237V333.5z"/>
		<path fill="#D3D3D3" d="M156.8,373.7c0-8.8-4.3-16.5-10.8-21.4l-31.7,0c-6.5,4.9-10.8,12.6-10.8,21.4c0,8.8,4.3,16.5,10.8,21.4
			h31.7C152.6,390.2,156.8,382.4,156.8,373.7z M130.2,389.3c-8.6,0-15.6-7-15.6-15.6c0-8.6,7-15.6,15.6-15.6s15.6,7,15.6,15.6
			C145.8,382.3,138.8,389.3,130.2,389.3z"/>
		<path d="M130.2,358.1c-8.6,0-15.6,7-15.6,15.6c0,8.6,7,15.6,15.6,15.6s15.6-7,15.6-15.6C145.8,365.1,138.8,358.1,130.2,358.1z"/>
		<path fill="#515151" d="M224.8,373.7c0-8.8-4.2-16.5-10.8-21.4h-31.7c-6.5,4.9-10.8,12.6-10.8,21.4c0,8.8,4.3,16.5,10.8,21.4h31.7
			C220.6,390.2,224.8,382.4,224.8,373.7z M198.2,389.3c-8.6,0-15.6-7-15.6-15.6c0-8.6,7-15.6,15.6-15.6c8.6,0,15.6,7,15.6,15.6
			C213.8,382.3,206.8,389.3,198.2,389.3z"/>
		<path d="M198.2,358.1c-8.6,0-15.6,7-15.6,15.6c0,8.6,7,15.6,15.6,15.6c8.6,0,15.6-7,15.6-15.6
			C213.8,365.1,206.8,358.1,198.2,358.1z"/>
		<path fill="#727272" d="M156.8,373.7c0,8.8-4.3,16.5-10.8,21.4h18.2l0-42.7h-18.2C152.6,357.2,156.8,364.9,156.8,373.7z"/>
		<path fill="#313131" d="M182.4,395c-6.5-4.8-10.8-12.6-10.8-21.4c0-8.8,4.3-16.5,10.8-21.4l-18.2,0l0,42.7H182.4z"/>
	</g>
	<g>
		<path d="M557.6,386.8c7.4-5.3,14-12,20.2-18.8c11.2-12.3,22.8-25,40-27.4l-0.9-6.4c-19.5,2.7-31.9,16.3-43.8,29.5
			c-10.3,11.3-20,22-33.5,24.9l1.2,6.1C547.2,393.3,552.6,390.4,557.6,386.8z"/>
		<path fill="#FFFFFF" d="M483.6,374.6c17,23.9,50.2,29.4,74.1,12.4c23.9-17,29.4-50.2,12.4-74.1C553,289,519.8,283.4,496,300.5
			C472.1,317.5,466.6,350.7,483.6,374.6z"/>
		<g>
			<path d="M545.8,365.3c4.4,6.1,12.9,7.6,19.1,3.2c6.1-4.4,7.6-12.9,3.2-19.1c-4.4-6.1-12.9-7.6-19.1-3.2
				C542.9,350.7,541.4,359.2,545.8,365.3z"/>
		</g>
		<g>
			<path d="M555.1,338.1c7.5-0.7,13-7.4,12.3-14.9c-0.7-7.5-7.4-13-14.9-12.3c-7.5,0.7-13,7.4-12.3,14.9
				C540.9,333.3,547.6,338.8,555.1,338.1z"/>
		</g>
		<g>
			<path d="M536.1,316.4c3.1-6.9,0.1-15-6.8-18.1c-6.9-3.1-15-0.1-18.1,6.8c-3.1,6.9-0.1,15,6.8,18.1
				C524.9,326.3,533,323.3,536.1,316.4z"/>
		</g>
		<g>
			<path d="M507.9,322.1c-4.4-6.2-12.9-7.6-19.1-3.2c-6.1,4.4-7.6,12.9-3.2,19.1c4.4,6.1,12.9,7.6,19.1,3.2
				C510.8,336.7,512.3,328.2,507.9,322.1z"/>
		</g>
		<g>
			<path d="M498.6,349.3c-7.5,0.7-13,7.4-12.3,14.9c0.7,7.5,7.4,13,14.9,12.3c7.5-0.7,13-7.4,12.3-14.9
				C512.8,354.1,506.1,348.6,498.6,349.3z"/>
		</g>
		<g>
			<path d="M517.6,371c-3.1,6.9-0.1,15,6.8,18.1c6.9,3.1,15,0.1,18.1-6.8c3.1-6.9,0.1-15-6.8-18.1C528.8,361,520.7,364.1,517.6,371z
				"/>
		</g>
		<g>
			<path d="M521.5,349.2c-1.3,0.9-1.6,2.8-0.7,4.1c1,1.3,2.8,1.6,4.1,0.7c1.3-1,1.6-2.8,0.7-4.1
				C524.7,348.6,522.8,348.3,521.5,349.2z"/>
		</g>
		<g>
			<path d="M529,351.1c0.2,1.6,1.6,2.8,3.2,2.7c1.6-0.2,2.8-1.6,2.7-3.2c-0.2-1.6-1.6-2.8-3.2-2.7C530,348,528.8,349.5,529,351.1z"
				/>
		</g>
		<g>
			<path d="M534.3,345.5c1.5,0.7,3.2,0,3.9-1.5c0.7-1.5,0-3.2-1.5-3.9c-1.5-0.7-3.2,0-3.9,1.5C532.2,343.1,532.8,344.9,534.3,345.5z
				"/>
		</g>
		<g>
			<path d="M532.2,338.2c1.3-0.9,1.6-2.8,0.7-4.1c-1-1.3-2.8-1.6-4.1-0.7c-1.3,1-1.6,2.8-0.7,4.1C529,338.8,530.8,339.1,532.2,338.2
				z"/>
		</g>
		<g>
			<path d="M524.7,336.3c-0.2-1.6-1.6-2.8-3.2-2.7c-1.6,0.2-2.8,1.6-2.7,3.2c0.1,1.6,1.6,2.8,3.2,2.7
				C523.7,339.4,524.9,337.9,524.7,336.3z"/>
		</g>
		<g>
			<path d="M519.4,341.8c-1.5-0.7-3.2,0-3.9,1.5c-0.7,1.5,0,3.2,1.5,3.9c1.5,0.7,3.2,0,3.9-1.5C521.5,344.3,520.9,342.5,519.4,341.8
				z"/>
		</g>
	</g>
</g>
</svg>
