<?xml version="1.0" encoding="utf-8"?>
<!-- Generator: Adobe Illustrator 18.0.0, SVG Export Plug-In . SVG Version: 6.00 Build 0)  -->
<!DOCTYPE svg PUBLIC "-//W3C//DTD SVG 1.1//EN" "http://www.w3.org/Graphics/SVG/1.1/DTD/svg11.dtd">
<svg version="1.1" xmlns="http://www.w3.org/2000/svg" xmlns:xlink="http://www.w3.org/1999/xlink" x="0px" y="0px"
	 viewBox="0 0 500 500" enable-background="new 0 0 500 500" xml:space="preserve">
<g id="BACKGROUND">
</g>
<g id="OBJECTS">
	<g opacity="0.1">
		<defs>
			<rect id="SVGID_1_" opacity="0.1" width="500" height="500"/>
		</defs>
		<clipPath id="SVGID_2_">
			<use xlink:href="#SVGID_1_"  overflow="visible"/>
		</clipPath>
		<ellipse clip-path="url(#SVGID_2_)" fill="#AAAAAA" cx="382.8" cy="423.4" rx="7.3" ry="1.2"/>
		<ellipse clip-path="url(#SVGID_2_)" fill="#AAAAAA" cx="433.9" cy="423.4" rx="7.3" ry="1.2"/>
		<ellipse clip-path="url(#SVGID_2_)" fill="#AAAAAA" cx="408.5" cy="423.4" rx="7.3" ry="1.2"/>
		<ellipse clip-path="url(#SVGID_2_)" fill="#AAAAAA" cx="251.6" cy="419.2" rx="90" ry="2.9"/>
		<ellipse clip-path="url(#SVGID_2_)" fill="#AAAAAA" cx="98.5" cy="410.2" rx="81.7" ry="3.2"/>
		<path clip-path="url(#SVGID_2_)" fill="#B5B5B5" d="M7.7,405.9h482c0,0,13.6-240-23.5-246.7c-37.1-6.7-59.8,136.6-89.8,140.6
			c-30,4-65.3-66.7-106.3-50.7s-30,106-77.9,102.7c-48-3.3-59.4-24.3-89.9-23.1C71.7,329.9,7.7,405.9,7.7,405.9z"/>
		<path clip-path="url(#SVGID_2_)" fill="#5D5D5D" d="M441.3,405.7c0,0,10.5-137.5-13.5-140.5c-24-3-19.8,57.6-43.6,57.1
			c-23.9-0.5-36.9-20.5-45.6,1c-8.7,21.5-8.9,42.4-29.6,35.9c-20.6-6.5-51.1,46.5-51.1,46.5H441.3z"/>
		<g clip-path="url(#SVGID_2_)">
			<path fill="#757575" d="M324.6,405.9h187c0,0,13.5-74.7-4-86.7c-17.5-12-20,11-30.5,11.5c-10.5,0.5-12.5-40.7-26-40.3
				c-13.5,0.3-16.8,41.6-30.9,47.7c-14.1,6.1-31.8-14.1-40.4,0c-8.7,14.1-1.6,40.8-16.6,40.4C348.1,378.2,325.6,372.7,324.6,405.9z"
				/>
			<path fill="none" stroke="#5D5D5D" stroke-miterlimit="10" d="M451.5,306.1c0,0,5.2,59.2,0.7,100"/>
			<path fill="none" stroke="#5D5D5D" stroke-miterlimit="10" d="M501.9,329.5c0,0,4.2,53.4-5.2,76.2"/>
			<line fill="none" stroke="#5D5D5D" stroke-miterlimit="10" x1="495.4" y1="333.2" x2="502.5" y2="340.1"/>
			<line fill="none" stroke="#5D5D5D" stroke-miterlimit="10" x1="510.6" y1="337" x2="502.7" y2="348.1"/>
			<line fill="none" stroke="#5D5D5D" stroke-miterlimit="10" x1="492" y1="350" x2="502.8" y2="358.1"/>
			<line fill="none" stroke="#5D5D5D" stroke-miterlimit="10" x1="512.9" y1="356.9" x2="502.6" y2="365"/>
			<line fill="none" stroke="#5D5D5D" stroke-miterlimit="10" x1="489.6" y1="365" x2="502" y2="374.7"/>
			<line fill="none" stroke="#5D5D5D" stroke-miterlimit="10" x1="512.9" y1="376.1" x2="501.5" y2="383.9"/>
			<line fill="none" stroke="#5D5D5D" stroke-miterlimit="10" x1="458.3" y1="310" x2="452.4" y2="318.4"/>
			<line fill="none" stroke="#5D5D5D" stroke-miterlimit="10" x1="441" y1="315.1" x2="452.8" y2="326.6"/>
			<line fill="none" stroke="#5D5D5D" stroke-miterlimit="10" x1="466.1" y1="330.3" x2="453.6" y2="344.2"/>
			<line fill="none" stroke="#5D5D5D" stroke-miterlimit="10" x1="434.8" y1="337.2" x2="454" y2="356"/>
			<line fill="none" stroke="#5D5D5D" stroke-miterlimit="10" x1="476.6" y1="346.6" x2="454" y2="368.5"/>
			<line fill="none" stroke="#5D5D5D" stroke-miterlimit="10" x1="428.6" y1="360.9" x2="453.7" y2="383.9"/>
			<line fill="none" stroke="#5D5D5D" stroke-miterlimit="10" x1="480.1" y1="373.7" x2="453.3" y2="392.4"/>
			<path fill="none" stroke="#5D5D5D" stroke-miterlimit="10" d="M390.7,346.6c0,0,9.8,30.3,10.7,59.4"/>
			<line fill="none" stroke="#5D5D5D" stroke-miterlimit="10" x1="397.7" y1="349.2" x2="394.1" y2="358.8"/>
			<line fill="none" stroke="#5D5D5D" stroke-miterlimit="10" x1="409.4" y1="354" x2="398.2" y2="377.5"/>
			<line fill="none" stroke="#5D5D5D" stroke-miterlimit="10" x1="412.5" y1="374.7" x2="400.6" y2="394.4"/>
			<line fill="none" stroke="#5D5D5D" stroke-miterlimit="10" x1="386.2" y1="358.1" x2="395" y2="362.6"/>
			<line fill="none" stroke="#5D5D5D" stroke-miterlimit="10" x1="381.4" y1="372.4" x2="398.8" y2="381.1"/>
			<line fill="none" stroke="#5D5D5D" stroke-miterlimit="10" x1="385.1" y1="390.7" x2="400.8" y2="396.7"/>
		</g>
		<g clip-path="url(#SVGID_2_)">
			<path fill="#A5A5A5" d="M473,368.6l-8.6,36.6c-0.5,2.2-2.7,3.5-4.9,3h0c-2.2-0.5-3.5-2.7-3-4.9l8.6-36.6c0.5-2.2,2.7-3.5,4.9-3
				l0,0C472.1,364.2,473.5,366.4,473,368.6z"/>
		</g>
		<g clip-path="url(#SVGID_2_)">
			<path fill="#A5A5A5" d="M454.6,369l7.6,36.8c0.5,2.2-1,4.3-3.2,4.8h0c-2.2,0.5-4.3-1-4.8-3.2l-7.6-36.8c-0.5-2.2,1-4.3,3.2-4.8
				l0,0C452,365.4,454.2,366.8,454.6,369z"/>
		</g>
		<g clip-path="url(#SVGID_2_)">
			<polygon fill="#B2B2B2" points="137.7,216.5 137.7,98.3 50.6,98.3 50.6,405.9 126.9,405.9 137.7,405.9 224.9,405.9 224.9,216.5 
							"/>
			<g>
				<rect x="84" y="119" fill="#FFFFFF" width="9.8" height="3"/>
				<rect x="100.3" y="119" fill="#FFFFFF" width="9.8" height="3"/>
				<rect x="116.6" y="119" fill="#FFFFFF" width="9.8" height="3"/>
				<rect x="84" y="130.3" fill="#FFFFFF" width="9.8" height="3"/>
				<rect x="100.3" y="130.3" fill="#FFFFFF" width="9.8" height="3"/>
				<rect x="116.6" y="130.3" fill="#FFFFFF" width="9.8" height="3"/>
				<rect x="84" y="141.5" fill="#FFFFFF" width="9.8" height="3"/>
				<rect x="100.3" y="141.5" fill="#FFFFFF" width="9.8" height="3"/>
				<rect x="116.6" y="141.5" fill="#FFFFFF" width="9.8" height="3"/>
				<rect x="84" y="152.8" fill="#FFFFFF" width="9.8" height="3"/>
				<rect x="100.3" y="152.8" fill="#FFFFFF" width="9.8" height="3"/>
				<rect x="116.6" y="152.8" fill="#FFFFFF" width="9.8" height="3"/>
			</g>
			<rect x="50.6" y="98.3" fill="#A4A4A4" width="26.2" height="307.4"/>
		</g>
		<g clip-path="url(#SVGID_2_)">
			<path fill="#757575" d="M32.5,405.7c0,0-8.3-108.5,10.6-110.8s15.6,45.4,34.4,45c18.8-0.4,29.1-16.2,36,0.8
				c6.9,16.9,7.1,33.4,23.3,28.3c16.3-5.1,40.3,36.7,40.3,36.7H32.5z"/>
			<path opacity="0.11" d="M136.9,369c-16.3,5.1-16.5-11.4-23.3-28.3c-5.8-14.3-14.1-5.3-27.9-1.9v66.9h91.5
				C177.2,405.7,153.2,363.9,136.9,369z"/>
		</g>
		<g clip-path="url(#SVGID_2_)">
			<path fill="#FFFFFF" d="M329.2,419.2c-12.7-30.3-42.7-51.6-77.7-51.6c-35,0-64.9,21.3-77.7,51.6H329.2z"/>
			<path opacity="0.11" d="M303.5,385.5c-14.3-11.2-32.4-17.9-52-17.9s-37.6,6.7-52,17.9H303.5z"/>
			<g>
				<polygon fill="#FFFFFF" points="407.6,379.3 95.6,379.3 95.6,163.9 407.6,163.9 407.6,163.9 				"/>
				<rect x="107.2" y="185.8" fill="#E7E7E7" width="288.8" height="179.3"/>
				<rect x="107.2" y="185.8" fill="#C7C7C7" width="71" height="179.3"/>
				<rect x="107.2" y="185.8" fill="#C1C1C1" width="288.8" height="16.1"/>
				<rect x="107.2" y="185.8" fill="#A5A5A5" width="71" height="16.1"/>
				<circle fill="#E3E3E3" cx="251.6" cy="175.5" r="2.8"/>
				<g>
					<rect x="111.7" y="189.8" fill="#FFFFFF" width="9.2" height="1"/>
					<rect x="111.7" y="191.9" fill="#FFFFFF" width="9.2" height="1"/>
					<rect x="111.7" y="194.1" fill="#FFFFFF" width="9.2" height="1"/>
				</g>
				<g>
					<rect x="202.5" y="215.4" fill="#E1E1E1" width="163" height="49.8"/>
					<g>
						<rect x="200.7" y="213.2" fill="#C1C1C1" width="49.8" height="49.8"/>
						<rect x="205.6" y="218.1" fill="none" stroke="#A5A5A5" stroke-miterlimit="10" width="40" height="40"/>
						<line fill="none" stroke="#A5A5A5" stroke-miterlimit="10" x1="205.6" y1="218.1" x2="245.6" y2="258.1"/>
						<line fill="none" stroke="#A5A5A5" stroke-miterlimit="10" x1="205.6" y1="258.1" x2="245.6" y2="218.1"/>
					</g>
					<rect x="250.5" y="213.2" fill="#FFFFFF" width="113.2" height="49.8"/>
					<rect x="332.3" y="254.6" fill="#E3E3E3" width="25.1" height="4.8"/>
					<rect x="252.6" y="216.6" fill="#CCCCCC" width="37.2" height="8.5"/>
					<rect x="252.6" y="227.5" fill="#CCCCCC" width="51" height="8.5"/>
					<rect x="252.6" y="239.5" fill="#E3E3E3" width="104.8" height="1.5"/>
					<rect x="252.6" y="243" fill="#E3E3E3" width="104.8" height="1.5"/>
					<rect x="252.6" y="246.4" fill="#E3E3E3" width="29.6" height="1.5"/>
					<rect x="285.2" y="246.4" fill="#E3E3E3" width="1.5" height="1.5"/>
					<rect x="288.5" y="246.4" fill="#E3E3E3" width="1.5" height="1.5"/>
					<rect x="291.8" y="246.4" fill="#E3E3E3" width="1.5" height="1.5"/>
					<rect x="295.1" y="246.4" fill="#E3E3E3" width="1.5" height="1.5"/>
				</g>
				<g>
					<rect x="202.5" y="292.1" fill="#E1E1E1" width="163" height="49.8"/>
					<g>
						<rect x="200.7" y="290" fill="#C1C1C1" width="49.8" height="49.8"/>
						<rect x="205.6" y="294.9" fill="none" stroke="#A5A5A5" stroke-miterlimit="10" width="40" height="40"/>
						<line fill="none" stroke="#A5A5A5" stroke-miterlimit="10" x1="205.6" y1="294.9" x2="245.6" y2="334.9"/>
						<line fill="none" stroke="#A5A5A5" stroke-miterlimit="10" x1="205.6" y1="334.9" x2="245.6" y2="294.9"/>
					</g>
					<rect x="250.5" y="290" fill="#FFFFFF" width="113.2" height="49.8"/>
					<rect x="332.3" y="331.4" fill="#E3E3E3" width="25.1" height="4.8"/>
					<rect x="252.6" y="293.4" fill="#CCCCCC" width="37.2" height="8.5"/>
					<rect x="252.6" y="304.2" fill="#CCCCCC" width="51" height="8.5"/>
					<rect x="252.6" y="316.3" fill="#E3E3E3" width="104.8" height="1.5"/>
					<rect x="252.6" y="319.7" fill="#E3E3E3" width="104.8" height="1.5"/>
					<rect x="252.6" y="323.2" fill="#E3E3E3" width="29.6" height="1.5"/>
					<rect x="285.2" y="323.2" fill="#E3E3E3" width="1.5" height="1.5"/>
					<rect x="288.5" y="323.2" fill="#E3E3E3" width="1.5" height="1.5"/>
					<rect x="291.8" y="323.2" fill="#E3E3E3" width="1.5" height="1.5"/>
					<rect x="295.1" y="323.2" fill="#E3E3E3" width="1.5" height="1.5"/>
				</g>
				<line fill="none" stroke="#E1E1E1" stroke-miterlimit="10" x1="391" y1="206.6" x2="391" y2="360.3"/>
				<path fill="#FFFFFF" d="M391,264.3L391,264.3c-0.7,0-1.3-0.6-1.3-1.3v-51.1c0-0.7,0.6-1.3,1.3-1.3l0,0c0.7,0,1.3,0.6,1.3,1.3
					V263C392.3,263.7,391.7,264.3,391,264.3z"/>
				<path fill="none" stroke="#E1E1E1" stroke-miterlimit="10" d="M321.1,276.7l-2.7,2.5c-1.5,1.4-3.9,1.4-5.4,0l0,0
					c-1.5-1.4-3.9-1.4-5.4,0l0,0c-1.5,1.4-3.9,1.4-5.4,0l0,0c-1.5-1.4-3.9-1.4-5.4,0l0,0c-1.5,1.4-3.9,1.4-5.4,0l0,0
					c-1.5-1.4-3.9-1.4-5.4,0l0,0c-1.5,1.4-3.9,1.4-5.4,0l0,0c-1.5-1.4-3.9-1.4-5.4,0l0,0c-1.5,1.4-3.9,1.4-5.4,0l0,0
					c-1.5-1.4-3.9-1.4-5.4,0l0,0c-1.5,1.4-3.9,1.4-5.4,0l0,0c-1.5-1.4-3.9-1.4-5.4,0l0,0c-1.5,1.4-3.9,1.4-5.4,0l-2.7-2.5"/>
				<path fill="none" stroke="#E1E1E1" stroke-miterlimit="10" d="M321.1,353.5l-2.7,2.5c-1.5,1.4-3.9,1.4-5.4,0l0,0
					c-1.5-1.4-3.9-1.4-5.4,0l0,0c-1.5,1.4-3.9,1.4-5.4,0l0,0c-1.5-1.4-3.9-1.4-5.4,0l0,0c-1.5,1.4-3.9,1.4-5.4,0l0,0
					c-1.5-1.4-3.9-1.4-5.4,0l0,0c-1.5,1.4-3.9,1.4-5.4,0l0,0c-1.5-1.4-3.9-1.4-5.4,0l0,0c-1.5,1.4-3.9,1.4-5.4,0l0,0
					c-1.5-1.4-3.9-1.4-5.4,0l0,0c-1.5,1.4-3.9,1.4-5.4,0l0,0c-1.5-1.4-3.9-1.4-5.4,0l0,0c-1.5,1.4-3.9,1.4-5.4,0l-2.7-2.5"/>
				<path fill="#E1E1E1" d="M383.8,190.7c-1.1,1.1-1.1,2.9,0,4c1,1,2.6,1.1,3.7,0.2l2.9,2.9l0.5-0.5l-2.9-2.9
					c0.9-1.1,0.8-2.7-0.2-3.7C386.8,189.6,384.9,189.6,383.8,190.7z M387.3,194.2c-0.8,0.8-2.2,0.8-3,0c-0.8-0.8-0.8-2.2,0-3
					c0.8-0.8,2.2-0.8,3,0C388.2,192,388.2,193.4,387.3,194.2z"/>
				<circle fill="#E1E1E1" cx="120.5" cy="219.4" r="4"/>
				<rect x="129" y="218" fill="#E1E1E1" width="36" height="2.7"/>
				<circle fill="#E1E1E1" cx="120.5" cy="235.7" r="4"/>
				<rect x="129" y="234.4" fill="#E1E1E1" width="36" height="2.7"/>
				<circle fill="#E1E1E1" cx="120.5" cy="252.1" r="4"/>
				<rect x="129" y="250.7" fill="#E1E1E1" width="36" height="2.7"/>
				<circle fill="#E1E1E1" cx="120.5" cy="268.5" r="4"/>
				<rect x="129" y="267.1" fill="#E1E1E1" width="36" height="2.7"/>
				<circle fill="#E1E1E1" cx="120.5" cy="284.9" r="4"/>
				<rect x="129" y="283.5" fill="#E1E1E1" width="36" height="2.7"/>
				<circle fill="#E1E1E1" cx="120.5" cy="301.2" r="4"/>
				<rect x="129" y="299.9" fill="#E1E1E1" width="36" height="2.7"/>
				<rect x="214.7" y="189.8" fill="#A5A5A5" width="73.8" height="8.1"/>
			</g>
		</g>
		<g opacity="0.11" clip-path="url(#SVGID_2_)">
			<path d="M405.5,204.2h-50.7c-2.2,0-4.1-1.8-4.1-4.1l0,0c0-2.2,1.8-4.1,4.1-4.1h50.7c2.2,0,4.1,1.8,4.1,4.1l0,0
				C409.6,202.4,407.7,204.2,405.5,204.2z"/>
		</g>
		<g clip-path="url(#SVGID_2_)">
			<path fill="#838383" d="M406.7,202.1H356c-2.2,0-4.1-1.8-4.1-4.1l0,0c0-2.2,1.8-4.1,4.1-4.1h50.7c2.2,0,4.1,1.8,4.1,4.1l0,0
				C410.8,200.3,409,202.1,406.7,202.1z"/>
			<text transform="matrix(1 0 0 1 373.0568 200.3638)" fill="#C1C1C1" font-family="'OpenSans-Italic'" font-size="6.4946">search</text>
		</g>
		<g clip-path="url(#SVGID_2_)">
			<path fill="#BFBFBF" d="M430.1,275l-3.1,37.5c-0.2,2.2-2.1,3.9-4.4,3.7l0,0c-2.2-0.2-3.9-2.1-3.7-4.4l3.1-37.5
				c0.2-2.2,2.1-3.9,4.4-3.7v0C428.6,270.8,430.3,272.7,430.1,275z"/>
			
				<text transform="matrix(8.152000e-02 -0.9967 0.9967 8.152000e-02 425.9985 304.0479)" fill="#656565" font-family="'OpenSans-Italic'" font-size="6.4946">search</text>
		</g>
		<g clip-path="url(#SVGID_2_)">
			<path fill="#BFBFBF" d="M477.3,368.9l-3.1,37.5c-0.2,2.2-2.1,3.9-4.4,3.7l0,0c-2.2-0.2-3.9-2.1-3.7-4.4l3.1-37.5
				c0.2-2.2,2.1-3.9,4.4-3.7l0,0C475.8,364.7,477.5,366.7,477.3,368.9z"/>
			
				<text transform="matrix(8.152000e-02 -0.9967 0.9967 8.152000e-02 473.176 398.0108)" fill="#656565" font-family="'OpenSans-Italic'" font-size="6.4946">search</text>
		</g>
		<g clip-path="url(#SVGID_2_)">
			<path fill="#949494" d="M462.5,366.7l8.2,36.7c0.5,2.2-0.9,4.4-3.1,4.8l0,0c-2.2,0.5-4.4-0.9-4.8-3.1l-8.2-36.7
				c-0.5-2.2,0.9-4.4,3.1-4.8h0C459.8,363.2,462,364.6,462.5,366.7z"/>
			
				<text transform="matrix(-0.2179 -0.976 0.976 -0.2179 467.2261 395.7103)" fill="#656565" font-family="'OpenSans-Italic'" font-size="6.4946">search</text>
		</g>
		<g opacity="0.11" clip-path="url(#SVGID_2_)">
			<rect x="175.1" y="311.9" transform="matrix(-0.1301 -0.9915 0.9915 -0.1301 -107.8971 579.0052)" width="49.8" height="49.8"/>
		</g>
		<g clip-path="url(#SVGID_2_)">
			
				<rect x="171.9" y="309.1" transform="matrix(-0.1301 -0.9915 0.9915 -0.1301 -108.8192 572.593)" fill="#FFFFFF" width="49.8" height="49.8"/>
			
				<rect x="174.8" y="312" transform="matrix(-0.1301 -0.9915 0.9915 -0.1301 -108.8196 572.5925)" fill="#D4D4D4" width="44" height="44"/>
			<circle fill="#A2A2A2" cx="206.8" cy="326.9" r="8.6"/>
			<polygon fill="#C3C3C3" points="219.9,340.7 221.5,353.5 182.8,358.5 205.2,329.4 			"/>
			<polygon fill="#8C8C8C" points="216.5,354.1 177.9,359.2 175.6,341.7 184.7,329.7 197.4,339.5 			"/>
		</g>
		<g clip-path="url(#SVGID_2_)">
			<path fill="#363636" d="M157,313.2c1.2,2,2.5,5.4,1.6,8.4c-1,3-3.2,4.3-3.8,7.1c-0.6,2.8,1.6,12.5-3.6,12.8
				c-5.2,0.2-3.8-11.5-3.8-11.5l3.5-15.4L157,313.2z"/>
			<path fill="#555555" d="M147.2,366.4c0,0,11.6,21.4,13.2,25.8s-7.8,31.1-7.4,34.8c0.4,3.6,8.4,4.5,8.2,6.4s-10.2-0.4-13,0
				s-4.1-1-3.2-3.2s2.6-6.4,3.1-8.9s0.7-17.2,4.3-24.8l-10.6-17.5L147.2,366.4z"/>
			<path fill="none" stroke="#404040" stroke-miterlimit="10" d="M147.8,380.2c0,0,7.5,10.3,7.7,14.2c0.2,3.8-4.8,30.2-6,33.3"/>
			<path opacity="0.11" d="M151.4,374.3c-1.7-3.3-3.2-6-3.9-7.2l-0.5-0.4l-5.3,12.2l9.3,15.4L151.4,374.3z"/>
			<path fill="#A6A6A6" d="M150.6,343.5l4.3,5.2c0,0,13.4-2.4,14.9-3.8c1.5-1.5,4.9-4.9,6.6-4.9c1.6,0-3.2,3.4-3.1,4.5
				c0.1,1.1,0.4,3.1,0.4,3.1l-19.6,7.3l-6.9-7.1L150.6,343.5z"/>
			<polygon opacity="0.11" points="153.8,347.4 150.6,343.5 147.2,347.7 151.7,352.4 			"/>
			<path fill="#BABABA" d="M155.1,317.1l1,6.5h-1.6c0,0-1.1,6.8-5,5.5l-0.5,2.7l-4.6-0.2l3-9L155.1,317.1z"/>
			<path opacity="0.11" d="M144.4,331.5l4.6,0.2l0.5-2.7c0.8,0.3,1.5,0.2,2.1-0.1c-4.4-0.8-2.7-5.8-2.7-5.8l-1.1-0.9l-0.3,0.2
				L144.4,331.5z"/>
			<path fill="#5D5D5D" d="M145.7,330.2l4.4,0.7c0,0-0.5,3,0,5.2c0.5,2.2,2.8,6.2,2.2,8.7s-5.1,10.3-5.1,13
				c-0.1,3.1,2.7,32.1,3.1,36.9c0.4,4.8-13.4,32.1-13.7,34.8s9.5,4.6,9.5,6.3s-10.8,0.2-12.7,0c-1.9-0.2-5.3,1.7-5.6-1.1
				s3-7.9,4.7-12.6c1.7-4.7,5.2-21.6,8.8-27.7c0,0-4.4-11.4-5.8-15c-1.3-3.6-4.5-7-4.6-13.7c-0.1-4.6,2.4-7.6,2.8-11.4
				c0.4-3.8-0.8-7.4-0.1-10.4c0.7-3,2.6-13.9,2.6-13.9H145.7z"/>
			<path fill="none" stroke="#555555" stroke-miterlimit="10" d="M140.5,361c-0.5,3.6-1.2,6.8,0,11.5c1.2,4.8,5.4,18.2,5.6,22.5
				c0.2,4.3-12.8,33.1-13.1,36.1"/>
			<path fill="#868686" d="M150.1,330.9l-4.4-0.7h-9.4c0,0-2,11-2.6,13.9c-0.7,3,0.5,6.5,0.1,10.4c-0.2,1.9-0.9,3.5-1.5,5.3
				c3.1,1.2,8.4,2.8,15.1,2.7c-0.2-2.3-0.3-3.9-0.2-4.6c0.1-2.8,4.6-10.5,5.1-13s-1.8-6.5-2.2-8.7
				C149.6,333.9,150.1,330.9,150.1,330.9z"/>
			<path opacity="0.11" d="M148.6,353.5l-10.8-12.4l9.5,19.3c-0.1-1.2-0.1-2.1-0.1-2.5C147.2,356.9,147.8,355.3,148.6,353.5z"/>
			<path fill="#BABABA" d="M137.9,341.5c0,0,8.3,12.4,10.3,15.3c2,2.9,6.2,3.6,10.8,5c4.6,1.4,14,2.9,19.1,1.2c5-1.8,6-3.8,6-3.8
				l-6.3,0.9c-0.6,0-0.7-0.9,0.1-1.6c0.7-0.7,1.3-1.9,0.7-2.1c-0.5-0.2-2.6,1.5-3.5,1.9c-0.9,0.3-2.5,1.4-4.2,1
				c-1.7-0.3-15-4.3-17.4-5.7c-2.4-1.5-8.1-14.2-9-16.3c-0.9-2.1-1.9-3.3-3.9-3.2C138.5,334.2,136,337.2,137.9,341.5z"/>
			<path fill="#424242" d="M157.1,313.6c0,0-2.2,9.3-9.1,11.3c0,0-3.4,13.8-11.9,11.9c0,0-2,4.1-2.4,7.4c0,0-5,0.2-5.7-5.9
				c-0.7-6.1,8.9-15.2,10-17.8c1.1-2.5,1-7,4.1-9.9c3.1-3,7.9-2.8,10.2-1.6C155.5,310.5,157.1,313.6,157.1,313.6z"/>
			<path fill="#EAEAEA" d="M148.2,433.3c2.8-0.4,12.8,1.9,13,0c0.2-1.9-7.6-2.7-8.1-6.3l-6.8-0.4c-0.5,1.3-1,2.5-1.3,3.4
				C144,432.3,145.4,433.7,148.2,433.3z"/>
			<path fill="#EAEAEA" d="M136.6,430h-7.5c-0.8,1.9-1.4,3.7-1.3,4.9c0.2,2.8,3.7,0.9,5.6,1.1c1.9,0.2,12.7,1.8,12.7,0
				C146.1,434.3,137.2,432.5,136.6,430z"/>
			<path opacity="0.11" d="M132.9,334.4c0,0-2.6,4.2,0.8,9.7c0.4-3.3,2.4-7.4,2.4-7.4C133.8,336.3,132.9,334.4,132.9,334.4z"/>
		</g>
		<g clip-path="url(#SVGID_2_)">
			<g>
				<path fill="#656565" d="M404.8,314.4l1.4,9.2l1.9,4.1c0,0-10.6,1-14.8,0l7.9-4.4l-1.4-8.3L404.8,314.4z"/>
				<path fill="#414141" d="M393.2,327.7c4.2,1,14.8,0,14.8,0l-1.9-4.1l-5-0.3L393.2,327.7z"/>
			</g>
			<g>
				<path fill="#656565" d="M421.4,314.4l1.4,9.2l1.9,4.1c0,0-10.6,1-14.8,0l7.9-4.4l-1.4-8.3L421.4,314.4z"/>
				<path fill="#414141" d="M409.8,327.7c4.2,1,14.8,0,14.8,0l-1.9-4.1l-5-0.3L409.8,327.7z"/>
			</g>
			<path fill="#909090" d="M412.5,258.5l-22.1-0.8c0.2,10.2,0.5,21.1,1.1,26.4c1.3,11.4,6.8,34.3,6.8,34.3h8l-4-40.6l13.6,40.6h7.5
				c0.1-5.2-10.7-53.3-10.9-56.9C412.6,260.5,412.5,259.5,412.5,258.5z"/>
			<path fill="none" stroke="#777777" stroke-width="0.5" stroke-miterlimit="10" d="M406.6,259.5c0,0,0,10.5,7.7,11.1"/>
			<line fill="none" stroke="#777777" stroke-width="0.5" stroke-miterlimit="10" x1="400.5" y1="264.6" x2="402.4" y2="278"/>
			<path fill="none" stroke="#777777" stroke-width="0.5" stroke-miterlimit="10" d="M397.8,264.6l0.9,5.7c0.3,1.6,1.4,2.9,2.9,3.4
				l0.2,0.1"/>
			<path fill="#656565" d="M417,227.8c-6-6.9-10.2-7.2-15.2-8.3c-5-1.1-18.7,1.5-25.4-0.8c-6.7-2.3-10.1-13.1-10.1-13.1
				c-0.1-2.8-2.6-8-3.5-7.6c-0.9,0.4,0,4.2,0,4.2h-6.9l5.2,4.8c7.8,26.3,29.1,24.1,29.1,24.1s0,18.6,0.4,32.6
				c8.7,6.5,18.8-0.5,22-3.1c-0.3-8.1,1.9-20.5,1.9-20.5c6.3,5.8,10.3,25.1,10.3,25.1l-0.1,5.7c0,0,1.3-0.6,3.2,0.1
				c0.8,0.3-0.4,2.8,0,3.1c0.4,0.3,1.4-0.9,1.6-2.8c0.3-3.5-0.3-20.6-1.8-25.7C426,240.7,423,234.7,417,227.8z"/>
			<path fill="#BABABA" d="M362.8,197.9c-0.9,0.4,0,4.2,0,4.2h-6.9l5.2,4.8l5.3-1.4C366.3,202.7,363.8,197.5,362.8,197.9z"/>
			<path fill="#BABABA" d="M400.3,201.5l-4.6,5.2l1.8,0.9c0,0-0.9,2.1-1.7,4.1c-0.8,2,3.6,2,3.7,3.1c0.2,1.1-0.5,3.5-0.5,5.4
				c1,1.1,6,0.3,6,0.3l1.9-7.1c0,0,5-4.6,5.6-7.9c0.5-3.3-5.7-5.6-7.1-6.5s-1.3-4-2.7-4.3C401.2,194.5,399.7,198.3,400.3,201.5z"/>
			<path opacity="0.11" d="M407.1,213.3l-1.6-0.4c0,0-5.6,1.5-9.1,0.4c1.1,0.6,3,0.9,3.1,1.6c0.2,1.1-0.5,3.5-0.5,5.4
				c1,1.1,6,0.3,6,0.3l1.9-7.1C406.9,213.5,406.9,213.4,407.1,213.3z"/>
			<path fill="#0F0F0F" d="M412.4,205.6c0.5-3.3-5.7-5.6-7.1-6.5s-1.3-4-2.7-4.3c-1.4-0.3-3.9,2.5-2.3,6.7c0,0,3,2.2,7.5,3.5
				l-1.7,4.8c0,0,2.2-0.7,2.1,0.5s-2.2,3.1-2.9,2.5c0,0-1.2,1.4,1.2,2.7l0.5-2C406.9,213.5,411.9,208.9,412.4,205.6z"/>
			<line fill="none" stroke="#777777" stroke-width="0.5" stroke-miterlimit="10" x1="414.9" y1="315.1" x2="423.2" y2="315.1"/>
			<line fill="none" stroke="#777777" stroke-width="0.5" stroke-miterlimit="10" x1="397.7" y1="315.4" x2="406.1" y2="315.4"/>
			<path fill="none" stroke="#0F0F0F" stroke-width="0.5" stroke-miterlimit="10" d="M397.9,219.1c-1,3.2,4.7,4.3,9.6,1.7"/>
			<line fill="none" stroke="#0F0F0F" stroke-width="0.5" stroke-miterlimit="10" x1="424.5" y1="264" x2="429.4" y2="264"/>
			<line fill="none" stroke="#0F0F0F" stroke-width="0.5" stroke-miterlimit="10" x1="366.7" y1="206.5" x2="361.5" y2="208.3"/>
			<path opacity="0.11" d="M410.5,232.6c0,0-4.4,16.2,2.7,16.6c0.6-5,1.3-9.1,1.3-9.1C412.6,237.8,410.4,234.5,410.5,232.6z"/>
			<polygon opacity="0.11" points="401.5,318.4 406.4,318.4 402.6,280.2 402.6,280.2 			"/>
			<path fill="#BABABA" d="M427.9,274.1c0.4,0.3,1.4-0.9,1.6-2.8c0.1-1,0.1-3.4,0.1-6.2l-4.7-0.1l0,0c0,0.1,0,0.1,0,0.1l-0.1,5.7
				c0,0,1.3-0.6,3.2,0.1C428.6,271.3,427.5,273.8,427.9,274.1z"/>
		</g>
		<g clip-path="url(#SVGID_2_)">
			<path fill="#7E7E7E" d="M414,328.8l-0.2,2.6h-4.3h-17.3l0.2-2.6h-2.5l-8.2,94.8h2.5l1.3-15.6h17.3h4.3l-1.3,15.6h2.5l8.2-94.8
				H414z M409.3,333.2h4.3l-1.4,16.8h-4.3h-17.3l1.4-16.8H409.3z M390.4,351.9h17.3h4.3l-1.4,16.8h-4.3H389L390.4,351.9z
				 M410.4,370.6l-1.4,16.8h-4.3h-17.3l1.4-16.8h17.3H410.4z M407.4,406h-4.3h-17.3l1.4-16.8h17.3h4.3L407.4,406z"/>
			<rect x="386.5" y="327.5" fill="#A5A5A5" width="44.5" height="1.3"/>
			<rect x="386.5" y="327.5" opacity="0.23" width="19.6" height="1.3"/>
			<g>
				<g>
					<polygon fill="#A5A5A5" points="425.6,333.2 402.9,333.2 402.7,331.3 425.5,331.3 					"/>
					<polygon opacity="0.14" points="407.9,333.2 402.9,333.2 402.7,331.3 407.7,331.3 					"/>
				</g>
				<g>
					<polygon fill="#A5A5A5" points="427.3,351.8 404.5,351.8 404.3,350 427.1,350 					"/>
					<polygon opacity="0.14" points="409.5,351.8 404.5,351.8 404.3,350 409.3,350 					"/>
				</g>
				<g>
					<polygon fill="#A5A5A5" points="428.9,370.5 406.1,370.5 405.9,368.6 428.7,368.6 					"/>
					<polygon opacity="0.14" points="411.1,370.5 406.1,370.5 405.9,368.6 410.9,368.6 					"/>
				</g>
				<g>
					<polygon fill="#A5A5A5" points="430.5,389.2 407.7,389.2 407.6,387.3 430.3,387.3 					"/>
					<polygon opacity="0.14" points="412.7,389.2 407.7,389.2 407.6,387.3 412.5,387.3 					"/>
				</g>
				<g>
					<polygon fill="#A5A5A5" points="432.1,407.8 409.3,407.8 409.2,406 431.9,406 					"/>
					<polygon opacity="0.14" points="414.3,407.8 409.3,407.8 409.2,406 414.1,406 					"/>
				</g>
				<polygon fill="#A5A5A5" points="411.3,423.5 408.8,423.5 400.6,328.7 403.1,328.7 				"/>
				<polygon fill="#A5A5A5" points="435.4,423.5 432.9,423.5 424.8,328.7 427.3,328.7 				"/>
			</g>
		</g>
		<path opacity="0.11" clip-path="url(#SVGID_2_)" d="M397.8,198.5c0,0-1.1,4.2-0.2,6.4c0,0,0-1.7,0.6-2.8
			C398.2,202.1,397.8,200.8,397.8,198.5z"/>
		<g clip-path="url(#SVGID_2_)">
			<g>
				<rect x="26" y="374.6" fill="#606060" width="79.7" height="29.9"/>
				<path fill="#8C8C8C" d="M26,374.6c-8.3,0-15,6.7-15,15s6.7,15,15,15V374.6z"/>
				<path opacity="0.11" d="M26,374.6c-8.3,0-15,6.7-15,15s6.7,15,15,15V374.6z"/>
				<path opacity="0.11" d="M105.7,374.6c-8.3,0-15,6.7-15,15s6.7,15,15,15V374.6z"/>
				<polygon fill="#8C8C8C" points="103.9,374.6 27.9,374.6 26,374.6 26,376.4 26,404.6 27.9,404.6 27.9,376.4 103.9,376.4 
					103.9,404.6 105.7,404.6 105.7,376.4 105.7,374.6 				"/>
				<rect x="26" y="401.4" opacity="0.11" width="79.7" height="3.1"/>
			</g>
			<g>
				<g>
					
						<rect x="82.8" y="385" transform="matrix(0.9861 -0.1659 0.1659 0.9861 -65.0389 21.8375)" fill="#FFFFFF" width="30.8" height="30.4"/>
					
						<rect x="84.6" y="386.4" transform="matrix(-0.1659 -0.9861 0.9861 -0.1659 -280.1584 563.4009)" fill="#E7E7E7" width="27.2" height="27.6"/>
					<path fill="#DADADA" d="M111.9,398.1c-8.9,1.6-21.7,7.7-26.4,10l1.3,7.8l27.3-4.6L111.9,398.1z"/>
					<path fill="#C7C7C7" d="M110.3,390.2l3.6,21.2l-12.7,2.1c1.1-1.6,5.2-2.3,3-3.4c-2.4-1.2-5.3,0.5-3.9-1.9
						c1.4-2.4,3.6-6.6,2.4-6.5s-4,1.3-2.8-1.2c1.2-2.6,4.3-6.8,2.6-6.6c-1.7,0.2-4.3,1.9-2.8-0.7c1.5-2.6,2-5.4,0.9-5
						c-0.5,0.2-0.1-0.9,0.6-2.2l4.2-0.7l1,1L110.3,390.2z"/>
					<path fill="#A5A5A5" d="M109.6,384.5l4.5,26.9l-7.9,1.3c-0.4-1,4.6-3.8,4.2-5.3c-0.4-1.5-4.6,1.7-5,0.8c-0.3-0.9,4.2-6.1,4-8.5
						c-0.2-2.4-2.5,1.2-4.4,0c-2-1.3,2.6-4.9,2.8-7.5c0.2-2.6-2.1-0.8-3.3-1.7c-0.6-0.4,0.5-2.4,1.7-4.3c0.3-0.5,0.6-0.9,0.9-1.3
						L109.6,384.5z"/>
				</g>
				<g>
					
						<rect x="65.8" y="385" transform="matrix(0.9861 -0.1659 0.1659 0.9861 -65.2742 19.0201)" fill="#FFFFFF" width="30.8" height="30.4"/>
					
						<rect x="67.6" y="386.4" transform="matrix(-0.1659 -0.9861 0.9861 -0.1659 -299.9583 546.6547)" fill="#C7C7C7" width="27.2" height="27.6"/>
					<circle fill="#E1E1E1" cx="85.6" cy="399.4" r="4.9"/>
					<path fill="#A5A5A5" d="M94.7,397l2.4,14.3l-27.3,4.6l-2-11.7c3,1.2,5.8,1.7,10.4,0.6c7.1-1.7,9.9-7.1,15-7.7
						C93.7,397.1,94.2,397,94.7,397z"/>
					<polygon fill="#606060" points="73.5,391.7 72.5,392.5 71.3,392.1 70.4,393.5 71.3,392.7 72.6,393.4 73.6,392.3 74.8,392.8 
											"/>
					<polygon fill="#606060" points="77,394.1 76,394.8 74.8,394.4 73.9,395.8 74.9,395 76.2,395.7 77.2,394.6 78.3,395.1 					"/>
				</g>
				<g>
					
						<rect x="48.3" y="385" transform="matrix(0.9861 -0.1659 0.1659 0.9861 -65.5165 16.1196)" fill="#FFFFFF" width="30.8" height="30.4"/>
					
						<rect x="50.1" y="386.4" transform="matrix(-0.1659 -0.9861 0.9861 -0.1659 -320.3367 529.418)" fill="#D4D4D4" width="27.2" height="27.6"/>
					<path fill="#BBBBBB" d="M77.4,398.1c-8.9,1.6-21.7,7.7-26.4,10l1.3,7.8l27.3-4.6L77.4,398.1z"/>
					<path fill="#8C8C8C" d="M75.8,390.2l3.6,21.2l-12.7,2.1c1.1-1.6,5.2-2.3,3-3.4c-2.4-1.2-5.3,0.5-3.9-1.9
						c1.4-2.4,3.6-6.6,2.4-6.5c-1.2,0.1-4,1.3-2.8-1.2c1.2-2.6,4.3-6.8,2.6-6.6c-1.7,0.2-4.3,1.9-2.8-0.7c1.5-2.6,2-5.4,0.9-5
						c-0.5,0.2-0.1-0.9,0.6-2.2l4.2-0.7l1,1L75.8,390.2z"/>
					<path fill="#606060" d="M75.1,384.5l4.5,26.9l-7.9,1.3c-0.4-1,4.6-3.8,4.2-5.3c-0.4-1.5-4.6,1.7-5,0.8c-0.4-0.9,4.2-6.1,4-8.5
						c-0.2-2.4-2.5,1.2-4.4,0c-2-1.3,2.6-4.9,2.8-7.5c0.2-2.6-2.1-0.8-3.3-1.7c-0.6-0.4,0.5-2.4,1.7-4.3c0.3-0.5,0.6-0.9,0.9-1.3
						L75.1,384.5z"/>
				</g>
				<g>
					
						<rect x="31.3" y="385" transform="matrix(0.9861 -0.1659 0.1659 0.9861 -65.7519 13.3022)" fill="#FFFFFF" width="30.8" height="30.4"/>
					
						<rect x="33.1" y="386.4" transform="matrix(-0.1659 -0.9861 0.9861 -0.1659 -340.1367 512.6717)" fill="#D4D4D4" width="27.2" height="27.6"/>
					<circle fill="#A2A2A2" cx="51.1" cy="399.4" r="4.9"/>
					<path fill="#8C8C8C" d="M60.2,397l2.4,14.3l-27.3,4.6l-2-11.7c3,1.2,5.8,1.7,10.4,0.6c7.1-1.7,9.9-7.1,15-7.7
						C59.3,397.1,59.8,397,60.2,397z"/>
					<polygon fill="#606060" points="39,391.7 38,392.5 36.8,392.1 35.9,393.5 36.9,392.7 38.2,393.4 39.2,392.3 40.3,392.8 					
						"/>
					<polygon fill="#606060" points="42.5,394.1 41.5,394.8 40.4,394.4 39.5,395.8 40.4,395 41.7,395.7 42.7,394.6 43.9,395.1 					
						"/>
				</g>
			</g>
			<polygon opacity="0.11" points="116.1,414.6 33.4,414.6 31.4,401.4 114.1,401.4 			"/>
			<rect x="26" y="404.6" fill="#8C8C8C" width="95.4" height="30.8"/>
			<rect x="26" y="404.6" opacity="0.11" width="27.3" height="30.8"/>
			<path opacity="0.11" d="M79.6,404.6v0.9c0,1.9,1.6,3.5,3.5,3.5h7.8c1.9,0,3.5-1.6,3.5-3.5v-0.9H79.6z"/>
			<g opacity="0.11">
				<path d="M115.4,417H60.6c-0.5,0-0.9-0.4-0.9-0.9c0-0.5,0.4-0.9,0.9-0.9h54.7c0.5,0,0.9,0.4,0.9,0.9
					C116.3,416.6,115.9,417,115.4,417z"/>
			</g>
			<g opacity="0.11">
				<path d="M115.4,422H60.6c-0.5,0-0.9-0.4-0.9-0.9s0.4-0.9,0.9-0.9h54.7c0.5,0,0.9,0.4,0.9,0.9S115.9,422,115.4,422z"/>
			</g>
			<g opacity="0.11">
				<path d="M115.4,427H60.6c-0.5,0-0.9-0.4-0.9-0.9c0-0.5,0.4-0.9,0.9-0.9h54.7c0.5,0,0.9,0.4,0.9,0.9
					C116.3,426.6,115.9,427,115.4,427z"/>
			</g>
		</g>
		<path clip-path="url(#SVGID_2_)" fill="#CECECE" d="M421.3,111.4h-5c-7.9,0-10.1-18.5-17.7-18.2c-7.6,0.3-12.2,13.3-17.2,13.3
			c-5,0-8.8-3.4-15.3-3.4c-6.5,0-14.1,8.3-19.3,8.3h-5.3c-2.9,0-5.3,2.4-5.3,5.3l0,0c0,2.9,2.4,5.3,5.3,5.3h79.8
			c2.9,0,5.3-2.4,5.3-5.3l0,0C426.6,113.8,424.2,111.4,421.3,111.4z"/>
		<path clip-path="url(#SVGID_2_)" fill="#CECECE" d="M186.8,144.1h-2.4v0c-5.3,0-8-4.2-12-5.2c-4.1-1-6.9,0.8-6.9,0.8
			s-4.7-6.4-11.8-6.4c-7.1,0-10,3.1-10,3.1s-5.7-4.6-13.8-4.6c-11.9,0-15.7,12.2-19.2,12.2h-3.1c-1.9,0-3.5,1.6-3.5,3.5
			s1.6,3.5,3.5,3.5h79.2c1.9,0,3.5-1.6,3.5-3.5S188.7,144.1,186.8,144.1z"/>
		<g clip-path="url(#SVGID_2_)">
			<polygon fill="#656565" points="478.1,428 451.3,428 449.4,393.7 480,393.7 			"/>
			<line fill="none" stroke="#4A4A4A" stroke-miterlimit="10" x1="452.6" y1="398.3" x2="479.7" y2="398.3"/>
			<path fill="none" stroke="#909090" stroke-miterlimit="10" d="M450.3,398.3c0,0,8.4,24.5,27.2,24.5c10.6,0,2.1-22.1,2.1-22.1"/>
		</g>
	</g>
</g>
<g id="DESIGNED_BY_FREEPIK">
</g>
</svg>
